<svg width="95" height="67" viewBox="0 0 95 67" fill="none" xmlns="http://www.w3.org/2000/svg">
<path d="M27.6686 5.70693C27.6686 5.70693 24.7818 6.15036 25.4378 10.09C26.1454 14.0106 24.3954 15.1711 24.3954 15.1711L27.6393 12.7896C27.6393 12.7896 28.0962 9.98877 28.0268 8.98192C27.9221 8.0397 28.3045 6.66006 28.8735 6.45055L27.7204 5.68789L27.6686 5.70693Z" fill="#E85D5D"/>
<path d="M24.4022 15.8391C24.4022 15.8391 33.812 12.6843 33.3 8.33031C32.8812 4.56142 29.5314 5.02047 27.6691 5.70613C27.6691 5.70613 30.4687 7.46279 27.6764 11.588C24.8677 15.6676 23.3777 15.5968 23.3777 15.5968L24.4539 15.82L24.4022 15.8391Z" fill="#F58989"/>
<path opacity="0.2" d="M32.7445 6.62492C31.5761 6.79698 30.163 7.26566 28.8534 7.69623C28.9328 8.07992 28.9252 8.54728 28.7789 9.11737C30.2955 8.61061 32.0164 8.18347 33.234 8.14815C33.1242 7.5175 32.9438 7.0161 32.6928 6.64397L32.7445 6.62492Z" fill="white"/>
<path d="M14.8688 9.69608C14.8688 9.69608 17.5121 8.41315 19.0121 12.0937C20.5122 15.7742 22.604 15.7266 22.604 15.7266L18.6297 15.5897C18.6297 15.5897 16.7612 13.4902 16.278 12.6357C15.7948 11.7812 14.8158 10.8512 14.2303 11.0152L14.7653 9.73417L14.8688 9.69608Z" fill="#E85D5D"/>
<path d="M22.9206 16.2816C22.9206 16.2816 13.4312 19.0527 11.5578 15.1483C9.93281 11.7719 12.9408 10.1999 14.8687 9.69655C14.8687 9.69655 13.4643 12.7946 17.9773 14.5915C22.4903 16.3883 23.6877 15.4829 23.6877 15.4829L22.9206 16.2816Z" fill="#F58989"/>
<path opacity="0.2" d="M11.1064 13.4042C12.1599 12.9131 13.5731 12.4444 14.9672 12.086C15.0985 12.4506 15.3659 12.8684 15.7886 13.2289C14.2556 13.6901 12.6002 14.2996 11.5605 14.9921C11.3473 14.3995 11.1669 13.8981 11.1745 13.4308L11.1064 13.4042Z" fill="white"/>
<path d="M20.1403 10.1811C20.1403 10.1811 22.0139 9.85259 22.0744 12.4629C22.1348 15.0732 23.4318 15.4216 23.4318 15.4216L21.0801 14.584C21.0801 14.584 20.4732 12.8975 20.3635 12.2669C20.3055 11.6172 19.8715 10.8995 19.4955 10.8314L20.1239 10.1355L20.1403 10.1811Z" fill="#E85D5D"/>
<path d="M23.528 15.8519C23.528 15.8519 17.2031 15.8577 16.9407 13.012C16.7062 10.569 18.8902 10.1262 20.1405 10.1821C20.1405 10.1821 18.639 11.8705 20.8861 13.8823C23.1848 15.875 24.0995 15.4866 24.0995 15.4866L23.4763 15.8709L23.528 15.8519Z" fill="#F27C7C"/>
<path opacity="0.2" d="M17.0452 11.8363C17.8186 11.7063 18.7447 11.6751 19.6355 11.7085C19.6657 11.9554 19.7124 12.248 19.8272 12.567C18.7813 12.5908 17.6836 12.6336 16.8912 12.8737C16.8635 12.471 16.9039 12.0948 17.0288 11.7907L17.0452 11.8363Z" fill="white"/>
<path d="M21.6947 11.5708C21.6947 11.5708 20.5111 12.6775 22.3406 14.0171C24.1182 15.3758 23.7927 16.4248 23.7927 16.4248L24.3731 14.456C24.3731 14.456 23.5026 13.1763 23.1317 12.7967C22.709 12.4361 22.4113 11.7715 22.5526 11.513L21.7464 11.5517L21.6947 11.5708Z" fill="#D34F4F"/>
<path d="M24.0627 16.6869C24.0627 16.6869 27.2335 12.474 25.3574 10.8418C23.7513 9.47163 22.3092 10.6737 21.7464 11.5519C21.7464 11.5519 23.7374 11.3867 23.953 13.9399C24.2204 16.474 23.442 16.9155 23.442 16.9155L24.0627 16.6869Z" fill="#F58989"/>
<path opacity="0.2" d="M24.4226 10.3604C23.9356 10.7978 23.4624 11.4366 23.0246 12.0108C23.1936 12.155 23.3791 12.3448 23.5292 12.5992C24.0541 11.9414 24.6661 11.1999 25.2212 10.789C24.9677 10.5727 24.6787 10.421 24.4062 10.3148L24.4226 10.3604Z" fill="white"/>
<path d="M43.2578 14.8062L6.93518 26.1883L18.224 65.17L54.5465 53.7878L43.2578 14.8062Z" fill="#FCCBAC"/>
<path d="M44.2706 8.82504L2.79663 21.8214L4.40161 27.3636L45.8756 14.3672L44.2706 8.82504Z" fill="#FCCBAC"/>
<path d="M43.3648 15.1907L7.04218 26.5728L7.48725 28.1097L43.8098 16.7276L43.3648 15.1907Z" fill="#F4B795"/>
<path d="M25.8718 14.5737L21.2986 16.0067L34.0845 60.158L38.6577 58.7249L25.8718 14.5737Z" fill="#F58989"/>
<path d="M27.4901 20.1651L22.917 21.5982L23.362 23.1351L27.9352 21.702L27.4901 20.1651Z" fill="#E85D5D"/>
<path d="M73.4497 19.2798C73.4497 19.2798 76.6664 17.7875 78.7353 15.0299C80.7629 12.2483 82.5731 13.7021 82.5731 13.7021L84.2572 15.2805L76.9478 20.2817L73.2563 19.8113L73.5322 19.328L73.4497 19.2798Z" fill="#F4B795"/>
<path d="M74.2349 19.6389C74.2349 19.6389 84.8419 16.7619 82.5321 13.6779C82.5321 13.6779 86.6983 16.111 86.3702 19.1913C86.3254 19.4625 86.2181 19.7469 85.9871 19.959C85.1254 20.7942 82.4213 22.8337 77.6834 21.3059L74.2349 19.6389Z" fill="#FCCBAC"/>
<g opacity="0.2">
<path d="M86.177 19.7233C85.7788 18.301 84.8467 16.3686 82.8715 14.8184C82.8054 15.1269 82.6357 15.4243 82.3622 15.7107C84.0215 17.6217 84.4738 19.7201 84.6045 20.9365C85.2528 20.5716 85.7562 20.1715 86.0084 19.9223C86.0509 19.8479 86.0933 19.7736 86.1357 19.6992L86.177 19.7233Z" fill="white"/>
</g>
<path d="M70.8274 17.9963C70.8274 17.9963 69.8106 14.4777 70.4958 11.0608C71.1811 7.64386 68.9853 7.15464 68.9853 7.15464L66.7459 6.83823L67.8209 15.8439L70.5515 18.4796L70.8274 17.9963Z" fill="#F4B795"/>
<path d="M70.0431 17.6372C70.0431 17.6372 65.2449 7.34945 69.0272 7.17892C69.0272 7.17892 64.5415 5.40189 62.4986 7.72846C62.3088 7.96463 62.2227 8.2118 62.1779 8.48305C62.1424 9.70164 62.3706 13.1563 66.5745 15.9089L70.023 17.5759L70.0431 17.6372Z" fill="#FCCBAC"/>
<g opacity="0.2">
<path d="M62.2013 8.24871C63.5167 7.6785 65.5382 7.12404 67.9614 7.69653C67.8129 7.95678 67.6431 8.25421 67.6171 8.68519C65.1667 8.64213 63.3267 9.64959 62.3425 10.3141C62.1646 9.56574 62.1517 8.91377 62.1565 8.51997C62.1989 8.44561 62.1588 8.32307 62.2013 8.24871Z" fill="white"/>
</g>
<path d="M79.4845 14.9718C79.4055 14.6282 79.2641 14.2978 78.9554 14.0679C78.359 13.5709 77.0426 12.5046 75.2253 11.6415C73.4079 10.7784 71.772 10.3683 71.0047 10.2672C70.6523 10.2101 70.2987 10.2515 69.9852 10.4154C68.8547 11.1432 69.0207 12.8761 69.5651 14.235C70.1908 15.7406 70.9283 18.3029 70.9283 18.3029L72.0019 18.8309L73.0756 19.3588C73.0756 19.3588 75.4154 18.2466 76.9371 17.7969C78.2713 17.3864 79.6752 16.3721 79.4632 15.009L79.4845 14.9718Z" fill="#FCCBAC"/>
<g opacity="0.2">
<path d="M74.8401 12.5071C76.9462 13.5388 78.5113 14.6512 79.1689 15.2336C79.2927 15.3058 79.3952 15.4153 79.4765 15.5619C79.5201 15.3891 79.5225 15.1922 79.4624 15.0084C79.3835 14.6649 79.2421 14.3344 78.9333 14.1045C78.337 13.6075 77.0206 12.5413 75.2032 11.6782C73.3858 10.8151 71.7499 10.4049 70.9827 10.3038C70.6303 10.2467 70.2766 10.2881 69.9631 10.452C69.7957 10.5525 69.6696 10.6771 69.5435 10.8018C69.7096 10.7997 69.8134 10.8107 69.9583 10.8458C70.7869 11.0322 72.6503 11.5256 74.7776 12.5202L74.8401 12.5071Z" fill="white"/>
</g>
<path d="M85.2791 31.6927L55.2629 17.2985L42.739 45.5297L72.7551 59.9239L85.2791 31.6927Z" fill="#F58989"/>
<path d="M90.0807 25.0389L55.8503 8.62372L52.5801 15.9952L86.8106 32.4104L90.0807 25.0389Z" fill="#F58989"/>
<path d="M76.6053 18.5811L69.8969 15.364L54.1028 50.9667L60.8113 54.1838L76.6053 18.5811Z" fill="#FCCBAC"/>
<path d="M85.2533 31.6722L55.2371 17.278L54.7849 18.2975L84.801 32.6917L85.2533 31.6722Z" fill="#E85D5D"/>
<path d="M73.341 25.9594L66.6326 22.7424L66.1803 23.7618L72.8888 26.9789L73.341 25.9594Z" fill="#F4B795"/>
</svg>
