<svg width="231" height="216" viewBox="0 0 231 216" fill="none" xmlns="http://www.w3.org/2000/svg">
<g filter="url(#filter0_d_217_2256)">
<path d="M12.4442 152.4V188.5C12.5442 200.4 58.5442 210 115.344 210C172.144 210 218.144 200.4 218.244 188.5V152.4H12.4442Z" fill="#C56A31"/>
<path d="M115.244 206.2C58.5443 206.2 12.4442 196.6 12.3442 184.7V188.5C12.4442 200.4 58.4443 210 115.244 210C172.044 210 218.044 200.4 218.144 188.5V184.7C218.044 196.6 172.044 206.2 115.244 206.2Z" fill="#BF672C"/>
<path d="M12.4442 124.3V160.4C12.5442 172.3 58.5442 181.9 115.344 181.9C172.144 181.9 218.144 172.3 218.244 160.4V124.3H12.4442Z" fill="#F58989"/>
<path d="M12.4442 108.6V136.5C12.5442 148.4 58.5442 158 115.344 158C172.144 158 218.144 148.4 218.244 136.5V108.6H12.4442Z" fill="#F4F2E4"/>
<path d="M223.544 161.7C221.944 158.9 221.144 155.8 221.144 152.6C221.144 152.6 221.544 128.5 221.144 114.8C220.844 106.8 218.944 98.2 206.344 93.2C187.944 86.2 154.044 81.5 115.344 81.5C76.6442 81.5 39.9442 86.6 22.1442 94.1C11.0442 99.1 9.64421 107.6 9.64421 111C9.64421 123 9.64421 150.1 9.64421 150.1C9.64421 154.3 8.64422 158.4 6.74422 162.2C5.74422 164.2 5.94422 166 6.24422 167.2C7.84422 173.6 12.7442 173.9 12.7442 173.9V136.6C12.7442 133.1 14.7442 129.7 18.0442 128.7C19.0442 128.4 20.2442 128.3 21.3442 128.6C26.0442 129.9 30.8442 132.8 31.4442 138.5C32.0442 144.1 29.6442 152.9 31.4442 158.1C32.8442 161.9 38.2442 160.1 38.9442 158.5C40.8442 154.4 38.0442 146.9 39.5442 140.3C41.1442 133.7 49.5442 134.4 50.8442 139C51.5442 141.8 51.6442 151.4 51.6442 158.6C51.6442 163.1 50.1442 165 48.8442 170.3C47.3442 176.4 51.0442 179.5 53.3442 179.7C55.9442 179.9 59.3442 176.5 58.5442 171.8C57.7442 167.4 56.9442 163.1 56.9442 158.6C56.9442 153.4 57.2442 147.2 58.4442 143.7C60.6442 137.1 67.8442 137.1 70.9442 139.6C74.0442 142.1 74.2442 153.8 83.1442 152.9C92.0442 152 87.2442 140.5 98.1442 142.1C108.144 143.5 106.744 161.3 114.744 162.8C122.744 164.2 119.744 140.1 132.544 141.2C139.744 141.8 139.944 167.2 138.844 171.1C137.744 175 136.644 182.4 142.544 181.9C147.344 181.5 146.144 175.1 145.544 171.6C144.944 167.7 145.844 153.3 146.944 148.7C148.044 144.1 154.644 144.3 156.044 149C157.444 153.7 160.344 194 160.244 196.4C159.944 202.8 170.344 201.8 167.944 196.2C165.644 190.6 165.144 187.5 165.144 184.6C165.144 177.6 167.444 162.8 168.144 149.6C168.444 142.9 174.944 136.9 179.944 140.1C185.844 143.9 184.544 165.6 184.544 165.6C184.544 165.6 180.944 179.7 186.144 181C193.744 182.8 192.044 171.7 190.644 166.6C189.244 161.4 189.844 142.7 192.044 141.7C201.144 137.5 197.244 159.1 206.144 156.2C210.944 154.7 211.044 145.5 213.044 138.7C214.644 133.4 217.944 136.5 217.944 138.1L218.244 172.1C218.244 172.1 222.444 172.1 224.144 167.3C224.544 166.2 224.644 163.6 223.544 161.7Z" fill="white"/>
<path d="M12.4442 125.5V175.3C13.5442 175.8 14.3442 175.9 14.3442 175.9V138.6C14.3442 135.1 16.3442 131.7 19.6442 130.7C20.6442 130.4 21.8442 130.3 22.9442 130.6C27.6442 131.9 32.4442 134.8 33.0442 140.5C33.6442 146.1 31.1442 154.9 33.0442 160.1C34.4442 163.9 39.8442 162.1 40.5442 160.5C42.4442 156.4 39.6442 148.9 41.1442 142.3C42.7442 135.7 51.1442 136.4 52.4442 141C53.2442 143.8 53.2442 153.4 53.2442 160.6C53.2442 165.1 51.7442 167 50.4442 172.3C48.9442 178.4 52.6442 181.5 54.9442 181.7C57.5442 181.9 60.9442 178.5 60.1442 173.8C59.3442 169.4 58.5442 165.1 58.5442 160.6C58.5442 155.4 58.8442 149.2 60.0442 145.7C62.2442 139.1 69.4442 139.1 72.5442 141.6C75.6442 144.1 75.8442 155.8 84.7442 154.9C93.6442 154 88.8442 142.5 99.7442 144.1C109.744 145.5 108.344 163.3 116.344 164.8C124.344 166.2 121.344 142.1 134.144 143.2C141.344 143.8 141.544 169.2 140.444 173.1C139.344 177 138.244 184.4 144.144 183.9C148.944 183.5 147.744 177.1 147.144 173.6C146.544 169.7 147.444 155.3 148.544 150.7C149.644 146.1 156.244 146.3 157.644 151C159.044 155.7 161.944 196 161.844 198.4C161.544 204.8 171.944 203.8 169.544 198.2C167.244 192.6 166.744 189.5 166.744 186.6C166.744 179.6 169.044 164.8 169.744 151.6C170.044 144.9 176.544 138.9 181.544 142.1C187.444 145.9 186.144 167.6 186.144 167.6C186.144 167.6 182.544 181.7 187.744 183C195.344 184.8 193.644 173.7 192.244 168.6C190.844 163.4 191.444 144.7 193.644 143.7C202.744 139.5 198.844 161.1 207.744 158.3C212.544 156.8 212.644 147.6 214.644 140.8C215.544 137.6 217.144 137.5 218.244 138.2V108.8H12.4442V125.7V125.5Z" fill="white"/>
<path d="M72.6442 164.5C72.6442 162.7 71.1442 161.2 69.3442 161.2C67.5442 161.2 66.0442 162.7 66.0442 164.5C66.0442 166.3 67.5442 167.8 69.3442 167.8C71.1442 167.8 72.6442 166.3 72.6442 164.5Z" fill="#F58989"/>
<path d="M92.3442 173C92.3442 171.4 91.0443 170.2 89.5443 170.2C88.0443 170.2 86.7443 171.5 86.7443 173C86.7443 174.5 88.0443 175.8 89.5443 175.8C91.0443 175.8 92.3442 174.5 92.3442 173Z" fill="#F58989"/>
<path d="M121.044 173.5C123.64 173.5 125.744 171.396 125.744 168.8C125.744 166.204 123.64 164.1 121.044 164.1C118.449 164.1 116.344 166.204 116.344 168.8C116.344 171.396 118.449 173.5 121.044 173.5Z" fill="#F58989"/>
<path d="M38.8442 168.8C38.8442 167.5 37.7443 166.5 36.5443 166.5C35.3443 166.5 34.2443 167.6 34.2443 168.8C34.2443 170 35.3443 171.1 36.5443 171.1C37.7443 171.1 38.8442 170 38.8442 168.8Z" fill="#F58989"/>
<path d="M64.7442 195.5C64.7442 194.5 63.9442 193.6 62.8442 193.6C61.7442 193.6 60.9442 194.4 60.9442 195.5C60.9442 196.6 61.7442 197.4 62.8442 197.4C63.9442 197.4 64.7442 196.6 64.7442 195.5Z" fill="#C56A31"/>
<path d="M86.2443 192.7C86.2443 191.1 84.9443 189.9 83.4443 189.9C81.9443 189.9 80.6443 191.2 80.6443 192.7C80.6443 194.2 81.9443 195.5 83.4443 195.5C84.9443 195.5 86.2443 194.2 86.2443 192.7Z" fill="#C56A31"/>
<path d="M112.144 203.5C112.144 201.9 110.844 200.7 109.344 200.7C107.844 200.7 106.544 202 106.544 203.5C106.544 205 107.844 206.3 109.344 206.3C110.844 206.3 112.144 205 112.144 203.5Z" fill="#C56A31"/>
<path d="M25.7442 189.4C25.7442 188.4 24.9442 187.5 23.8442 187.5C22.7442 187.5 21.9442 188.3 21.9442 189.4C21.9442 190.5 22.7442 191.3 23.8442 191.3C24.9442 191.3 25.7442 190.5 25.7442 189.4Z" fill="#C56A31"/>
<path d="M151.544 193.6C151.544 192.3 150.444 191.3 149.244 191.3C148.044 191.3 146.944 192.4 146.944 193.6C146.944 194.8 148.044 195.9 149.244 195.9C150.444 195.9 151.544 194.8 151.544 193.6Z" fill="#C56A31"/>
<path d="M205.544 184.3C205.544 182.7 204.244 181.5 202.744 181.5C201.244 181.5 199.944 182.8 199.944 184.3C199.944 185.8 201.244 187.1 202.744 187.1C204.244 187.1 205.544 185.8 205.544 184.3Z" fill="#C56A31"/>
<path d="M195.844 195.5C195.844 194.3 194.944 193.4 193.744 193.4C192.544 193.4 191.644 194.3 191.644 195.5C191.644 196.7 192.544 197.6 193.744 197.6C194.944 197.6 195.844 196.7 195.844 195.5Z" fill="#C56A31"/>
<path d="M185.344 192.7C185.344 190.9 183.844 189.4 182.044 189.4C180.244 189.4 178.744 190.9 178.744 192.7C178.744 194.5 180.244 196 182.044 196C183.844 196 185.344 194.5 185.344 192.7Z" fill="#C56A31"/>
<path d="M223.544 161.7C221.944 158.9 221.144 155.8 221.144 152.6C221.144 152.6 221.544 128.5 221.144 114.8C220.844 106.8 218.944 98.2 206.344 93.2C187.944 86.2 154.044 81.5 115.344 81.5C76.6442 81.5 39.9442 86.6 22.1442 94.1C11.0442 99.1 9.64421 107.6 9.64421 111C9.64421 123 9.64421 150.1 9.64421 150.1C9.64421 154.3 8.64422 158.4 6.74422 162.2C5.74422 164.2 5.94422 166 6.24422 167.2C7.84422 173.6 12.7442 173.9 12.7442 173.9V136.6C12.7442 133.1 14.7442 129.7 18.0442 128.7C19.0442 128.4 29.2442 126.1 31.4442 138.4C32.4442 144 29.6442 152.8 31.4442 158C32.8442 161.8 38.2442 160 38.9442 158.4C40.8442 154.3 38.0442 146.8 39.5442 140.2C41.1442 133.6 49.5442 134.3 50.8442 138.9C51.5442 141.7 51.6442 151.3 51.6442 158.5C51.6442 163 50.1442 164.9 48.8442 170.2C47.3442 176.3 51.0442 179.4 53.3442 179.6C55.9442 179.8 59.3442 176.4 58.5442 171.7C57.7442 167.3 56.9442 163 56.9442 158.5C56.9442 153.3 57.2442 147.1 58.4442 143.6C60.6442 137 67.8442 137 70.9442 139.5C74.0442 142 74.2442 153.7 83.1442 152.8C92.0442 151.9 87.2442 140.4 98.1442 142C108.144 143.4 106.744 161.2 114.744 162.7C122.744 164.1 119.744 140 132.544 141.1C139.744 141.7 139.944 167.1 138.844 171C137.744 174.9 136.644 182.3 142.544 181.8C147.344 181.4 146.144 175 145.544 171.5C144.944 167.6 145.844 153.2 146.944 148.6C148.044 144 154.644 144.2 156.044 148.9C157.444 153.6 160.344 193.9 160.244 196.3C159.944 202.7 170.344 201.7 167.944 196.1C165.644 190.5 165.144 187.4 165.144 184.5C165.144 177.5 167.444 162.7 168.144 149.5C168.444 142.8 174.944 136.8 179.944 140C185.844 143.8 184.544 165.5 184.544 165.5C184.544 165.5 180.944 179.6 186.144 180.9C193.744 182.7 192.044 171.6 190.644 166.5C189.244 161.3 189.844 142.6 192.044 141.6C201.144 137.4 197.244 159 206.144 156.1C210.944 154.6 211.044 145.4 213.044 138.6C214.644 133.3 217.944 136.4 217.944 138L218.244 172C218.244 172 222.444 172 224.144 167.2C224.544 166.1 224.644 163.5 223.544 161.6V161.7Z" fill="white"/>
<path d="M213.444 104.1C213.444 116.4 169.444 126.3 115.244 126.3C61.0442 126.3 17.0442 116.4 17.0442 104.1C17.0442 91.8 61.0442 81.9 115.244 81.9C169.444 81.9 213.444 91.8 213.444 104.1Z" fill="#F4F2E4"/>
<path d="M110.944 126.7C67.3442 126.6 30.9442 121 19.7442 111.2C18.3442 110 16.3442 108.1 15.5442 105.4C14.5442 102.2 14.1442 100.9 12.9442 103.9C12.5442 104.9 12.7442 107.1 12.9442 107.8C14.9442 122.1 56.2442 129.3 109.844 128C115.544 127.5 118.344 126.6 111.044 126.6L110.944 126.7Z" fill="#F4F2E4"/>
<path d="M8.84424 163.6C8.74424 162.7 7.64425 163.2 7.54425 163.8C7.04425 165.6 7.24425 167.1 8.44425 168.7C9.04425 169.5 11.2442 169.7 10.4442 167.6C9.94425 166.4 9.14425 165 8.94425 163.6H8.84424Z" fill="#F4F2E4"/>
<path d="M35.2442 136.1C34.5442 132.9 33.2442 130.2 30.7442 128.1C25.2442 123.5 19.3442 124.2 13.7442 128.3C13.0442 128.8 13.7442 129.4 14.6442 128.9C22.3442 124 30.8442 128.1 32.7442 136.3C33.8442 141.1 30.6442 152.8 33.7442 157C34.6442 158.2 37.0442 156.8 35.6442 153.6C33.5442 148.8 36.2442 141.2 35.1442 136.1H35.2442Z" fill="#F4F2E4"/>
<path d="M52.8442 169.7C52.8442 168.8 52.0442 168.3 51.4442 169.1C50.1442 170.9 49.1443 175.5 52.1443 176.2C52.7443 176.4 53.4443 175.6 53.5443 175C53.6443 173.2 53.0442 171.2 52.8442 169.6V169.7Z" fill="#F4F2E4"/>
<path d="M84.6442 146.4C78.8442 144.9 78.9442 138.4 74.0442 135.7C71.1442 134 68.1442 134 64.7442 135.7C64.0442 136.1 64.1442 136.8 64.9442 136.5C67.8442 135.4 71.1442 136.2 73.2442 138.2C75.0442 139.9 75.8442 142.9 77.0442 144.9C78.6442 147.4 81.1442 149.8 84.2442 148.8C85.2442 148.5 85.9442 146.7 84.5442 146.4H84.6442Z" fill="#F4F2E4"/>
<path d="M44.7442 132.6C44.2442 132.8 44.4442 133.9 45.0442 133.8C46.9442 133.6 48.9442 133.8 50.4442 135.3C51.7442 136.6 52.3442 138.3 52.9442 140C53.3442 140.9 54.6442 140.4 54.7442 139.6C55.1442 134.7 50.2442 130.2 44.7442 132.7V132.6Z" fill="#F4F2E4"/>
<path d="M115.144 157.3C113.944 156.6 110.944 149.7 110.344 148.4C109.544 146.6 108.644 144.6 107.444 142.9C105.444 140 102.844 138.8 99.4442 139.3C98.7442 139.4 98.9442 139.9 99.8442 139.9C107.844 140.4 108.444 156.4 113.344 159.3C115.944 160.8 116.644 158.1 115.044 157.2L115.144 157.3Z" fill="#F4F2E4"/>
<path d="M133.744 138.8C132.944 138.6 132.244 139.1 133.144 139.4C136.344 140.7 138.444 143.8 139.144 147.1C139.444 148.4 141.144 148.3 141.044 147.1C140.744 142.8 137.844 139.9 133.744 138.8Z" fill="#F4F2E4"/>
<path d="M142.544 173.9C142.144 172.7 141.044 172.6 140.444 173.6C139.644 174.8 139.044 176.1 139.544 177.6C139.944 178.8 141.144 179.8 142.444 179.2C143.644 178.6 142.944 174.8 142.644 173.9H142.544Z" fill="#F4F2E4"/>
<path d="M38.7441 72.6001V99.5001C38.7441 108.3 73.0441 115.5 115.344 115.5C157.644 115.5 191.844 108.3 191.944 99.5001V72.6001H38.7441Z" fill="#C56A31"/>
<path d="M38.7441 47.3999V74.2999C38.7441 83.0999 73.0441 90.2999 115.344 90.2999C157.644 90.2999 191.844 83.0999 191.944 74.2999V47.3999H38.7441Z" fill="#F58989"/>
<path d="M38.7441 25.5V50.3C38.7441 59.1 73.0441 66.3 115.344 66.3C157.644 66.3 191.844 59.1 191.944 50.3V25.5H38.7441Z" fill="#F4F2E4"/>
<path d="M38.7443 25.5002V72.5002H39.7443V54.7002C39.7443 53.7002 39.9443 52.8002 40.1443 51.8002C41.2443 48.2002 46.2443 47.5002 48.4443 50.6002C50.0443 52.8002 50.4443 53.9002 51.0443 57.4002C51.8443 61.9002 52.1443 67.1002 51.9443 68.4002C51.6443 70.6002 49.0443 76.4002 53.0443 77.3002C56.5443 78.1002 56.1443 72.5002 55.5443 69.3002C54.9443 66.2002 57.6443 56.6002 61.1443 56.5002C68.0443 56.4002 66.6443 68.5002 69.7443 69.2002C72.8443 69.9002 75.3443 57.8002 80.5443 58.0002C85.7443 58.2002 85.5443 63.6002 92.1443 64.1002C96.7443 64.4002 98.6443 54.6002 105.644 60.0002C110.444 63.8002 114.044 78.6002 113.144 82.7002C112.244 86.8002 110.044 94.0002 114.744 94.1002C119.444 94.3002 118.944 89.3002 117.844 83.6002C116.744 78.0002 118.144 70.6002 125.844 70.1002C135.444 69.5002 136.344 90.4002 135.344 95.4002C134.444 100.4 136.644 104.5 140.044 102C143.444 99.5002 140.244 96.9002 140.044 94.5002C139.744 91.4002 138.744 62.3002 145.944 62.6002C153.144 62.9002 151.144 71.0002 158.644 70.1002C163.544 69.5002 166.344 47.9002 172.244 52.3002C178.144 56.7002 179.044 78.5002 178.144 80.8002C177.644 82.1002 175.444 90.0002 180.144 90.0002C184.844 90.0002 183.244 84.5002 182.144 80.5002C181.044 76.6002 183.444 49.8002 187.144 47.3002C189.744 45.6002 191.044 47.4002 191.844 49.5002V25.2002H38.6443L38.7443 25.5002Z" fill="white"/>
<path d="M100.344 78.5999C100.344 76.2999 98.4443 74.3999 96.1443 74.3999C93.8443 74.3999 91.9443 76.2999 91.9443 78.5999C91.9443 80.8999 93.8443 82.7999 96.1443 82.7999C98.4443 82.7999 100.344 80.8999 100.344 78.5999Z" fill="#F58989"/>
<path d="M72.2444 73.5001C72.2444 72.5001 71.4443 71.6001 70.3443 71.6001C69.2443 71.6001 68.4443 72.4001 68.4443 73.5001C68.4443 74.6001 69.2443 75.4001 70.3443 75.4001C71.4443 75.4001 72.2444 74.6001 72.2444 73.5001Z" fill="#F58989"/>
<path d="M80.6443 82.4C80.6443 81.4 79.8443 80.5 78.7443 80.5C77.6443 80.5 76.8442 81.3 76.8442 82.4C76.8442 83.5 77.6443 84.3 78.7443 84.3C79.8443 84.3 80.6443 83.5 80.6443 82.4Z" fill="#F58989"/>
<path d="M161.344 76.8C161.344 75.2 160.044 74 158.544 74C157.044 74 155.744 75.3 155.744 76.8C155.744 78.3 157.044 79.6 158.544 79.6C160.044 79.6 161.344 78.3 161.344 76.8Z" fill="#F58989"/>
<path d="M155.244 97.0002C155.244 95.7002 154.144 94.7002 152.944 94.7002C151.744 94.7002 150.644 95.8002 150.644 97.0002C150.644 98.2002 151.744 99.3002 152.944 99.3002C154.144 99.3002 155.244 98.2002 155.244 97.0002Z" fill="#C56A31"/>
<path d="M176.844 102.1C176.844 100.8 175.744 99.7998 174.544 99.7998C173.344 99.7998 172.244 100.9 172.244 102.1C172.244 103.3 173.344 104.4 174.544 104.4C175.744 104.4 176.844 103.3 176.844 102.1Z" fill="#C56A31"/>
<path d="M164.644 104.5C164.644 103.7 164.044 103.1 163.244 103.1C162.444 103.1 161.844 103.7 161.844 104.5C161.844 105.3 162.444 105.9 163.244 105.9C164.044 105.9 164.644 105.3 164.644 104.5Z" fill="#C56A31"/>
<path d="M56.7443 95.0998C56.7443 93.7998 55.6443 92.7998 54.4443 92.7998C53.2443 92.7998 52.1443 93.8998 52.1443 95.0998C52.1443 96.2998 53.2443 97.3998 54.4443 97.3998C55.6443 97.3998 56.7443 96.2998 56.7443 95.0998Z" fill="#C56A31"/>
<path d="M67.0441 103.5C67.0441 102.7 66.4441 102.1 65.6441 102.1C64.8441 102.1 64.2441 102.7 64.2441 103.5C64.2441 104.3 64.8441 104.9 65.6441 104.9C66.4441 104.9 67.0441 104.3 67.0441 103.5Z" fill="#C56A31"/>
<path d="M90.0443 103.5C90.0443 102.2 88.9444 101.2 87.7444 101.2C86.5444 101.2 85.4443 102.3 85.4443 103.5C85.4443 104.7 86.5444 105.8 87.7444 105.8C88.9444 105.8 90.0443 104.7 90.0443 103.5Z" fill="#C56A31"/>
<path d="M198.944 73.6001C198.844 73.0001 198.344 72.0001 197.744 70.9001C196.144 67.8001 195.344 64.5001 195.344 61.0001L195.144 36.9001C195.144 36.9001 195.144 32.8001 195.144 31.4001C195.044 27.6001 195.744 22.2001 190.244 18.4001C179.044 11.5001 149.844 6.6001 115.444 6.6001C81.0441 6.6001 50.8441 11.7001 40.1441 18.7001C35.8441 21.8001 35.7442 27.6001 35.7442 30.8001C35.7442 32.7001 35.7442 36.9001 35.7442 36.9001V56.5001C35.7442 59.2001 34.9442 61.8001 33.7442 64.1001C33.2442 65.2001 32.8441 66.2001 32.9441 66.9001C34.5441 74.5001 38.8441 71.9001 38.8441 71.9001V52.4001C38.8441 51.4001 39.0442 50.4001 39.2442 49.5001C40.3442 45.9001 45.3441 45.2001 47.5441 48.3001C49.1441 50.5001 49.5441 51.6001 50.1441 55.1001C50.9441 59.6001 51.2441 64.8001 51.0441 66.1001C50.7441 68.3001 48.1441 74.1001 52.1441 75.0001C55.6441 75.8001 55.2441 70.1001 54.6441 67.0001C54.0441 63.9001 56.7442 54.3001 60.2442 54.2001C67.1442 54.1001 65.7441 66.2001 68.8441 66.9001C71.9441 67.6001 74.4441 55.5001 79.6441 55.7001C84.8442 55.9001 84.6442 61.3001 91.2442 61.8001C95.8442 62.1001 97.7442 52.3001 104.744 57.7001C109.544 61.5001 113.144 76.3001 112.244 80.4001C111.344 84.5001 109.144 91.7001 113.844 91.8001C118.544 92.0001 118.044 87.0001 116.944 81.3001C115.844 75.7001 117.244 68.3001 124.944 67.8001C134.544 67.2001 135.444 88.1001 134.444 93.1001C133.544 98.1001 135.744 102.2 139.144 99.7001C142.544 97.2001 139.344 94.6001 139.144 92.2001C138.844 89.1001 137.844 60.0001 145.044 60.3001C152.244 60.6001 150.244 68.7001 157.744 67.8001C162.644 67.2001 165.444 45.6001 171.344 50.0001C177.244 54.4001 178.144 76.2001 177.244 78.5001C176.744 79.8001 174.544 87.7001 179.244 87.7001C183.944 87.7001 182.344 82.2001 181.244 78.2001C180.144 74.3001 182.544 47.5001 186.244 45.0001C191.244 41.7001 191.744 51.6001 191.744 51.6001V75.1001C191.744 75.1001 193.044 80.8001 196.544 78.9001C198.144 78.1001 199.644 76.0001 198.944 73.3001V73.6001Z" fill="white"/>
<path d="M116.144 40.1001C81.5442 40.0001 51.8442 34.7001 43.9442 27.3001C42.8442 26.3001 41.6442 24.9001 41.4442 23.2001C41.0442 20.6001 39.2442 20.0001 38.0442 22.7001C37.7442 23.3001 37.6442 24.6001 37.6442 25.2001C38.0442 36.7001 72.8441 42.2001 115.344 41.2001C119.844 40.8001 122.044 40.1001 116.244 40.1001H116.144Z" fill="#F4F2E4"/>
<path d="M52.8442 70.2001C52.8442 69.5001 51.9442 69.5001 51.5442 69.8001C50.4442 70.5001 50.2442 72.0001 51.2442 72.9001C51.9442 73.5001 53.1442 72.9001 53.0442 72.0001C53.0442 71.4001 52.9442 70.8001 52.8442 70.2001Z" fill="#F4F2E4"/>
<path d="M35.8442 65.2001C35.8442 64.5001 34.9442 64.5001 34.5442 64.8001C33.4442 65.5001 33.2442 67.0001 34.2442 67.9001C34.9442 68.5001 36.1442 67.9001 36.0442 67.0001C36.0442 66.4001 35.8442 65.8001 35.8442 65.2001Z" fill="#F4F2E4"/>
<path d="M48.9441 44.4001C45.9441 42.5001 41.3441 42.4001 39.2441 45.6001C38.7441 46.3001 39.4441 46.3001 40.0441 45.9001C43.1441 43.6001 47.1441 45.0001 49.2441 47.8001C51.0441 50.2001 52.1441 53.7001 52.0441 57.9001C52.0441 59.0001 53.1441 56.1001 53.1441 54.1001C53.1441 50.3001 52.5441 46.7001 48.9441 44.4001Z" fill="#F4F2E4"/>
<path d="M67.2442 54.9001C66.3442 53.5001 64.5441 51.7001 61.8441 51.7001C59.1441 51.7001 60.9441 52.3001 61.5441 52.5001C64.2441 53.5001 65.0442 54.6001 66.1442 56.8001C67.1442 59.0001 67.3442 61.0001 68.2442 63.7001C68.6442 64.8001 69.9441 64.2001 69.9441 62.6001C69.9441 59.8001 68.9441 57.2001 67.3441 54.9001H67.2442Z" fill="#F4F2E4"/>
<path d="M90.2442 58.8001C87.6442 58.6001 85.6441 55.1001 84.1441 54.2001C82.7441 53.4001 80.7442 53.2001 79.2442 53.6001C78.4442 53.8001 78.7441 54.3001 79.6441 54.2001C81.0441 54.0001 83.0441 55.7001 83.8441 56.5001C84.7441 57.4001 87.4441 60.6001 89.6441 60.7001C92.4441 60.8001 92.1442 58.9001 90.2442 58.8001Z" fill="#F4F2E4"/>
<path d="M103.744 54.6001C102.844 54.5001 102.244 54.9001 103.344 55.3001C109.144 57.1001 111.544 63.6001 112.544 69.0001C112.744 70.3001 113.044 69.1001 113.044 68.0001C113.044 61.6001 110.444 55.6001 103.744 54.6001Z" fill="#F4F2E4"/>
<path d="M114.844 85.1001C114.844 84.4001 113.944 84.5001 113.644 84.9001C112.844 86.1001 112.344 87.5001 113.144 88.7001C113.844 89.8001 115.444 89.1001 115.344 87.9001C115.344 86.9001 114.844 86.0001 114.844 85.1001Z" fill="#F4F2E4"/>
<path d="M137.844 96.0001C137.644 95.5001 137.344 95.2001 136.944 94.8001C136.544 94.4001 135.744 94.5001 135.444 95.1001C134.944 96.0001 134.944 96.6001 135.344 97.7001C136.044 99.5001 138.744 98.5001 137.844 96.0001Z" fill="#F4F2E4"/>
<path d="M187.544 23.0002C187.544 32.0002 155.244 39.3002 115.344 39.3002C75.4443 39.3002 43.1443 32.0002 43.1443 23.0002C43.1443 14.0002 75.4443 6.7002 115.344 6.7002C155.244 6.7002 187.544 14.0002 187.544 23.0002Z" fill="#F4F2E4"/>
<path d="M12.8443 102.4C12.8443 102.4 14.2443 106.9 18.0443 108.5C21.8443 110.1 23.9443 109 25.3443 110.1C26.7443 111.3 32.1443 113.4 32.1443 113.4C35.7443 113 32.6443 115.7 39.4443 118.3C42.3443 119.4 48.6443 118.5 51.4443 119.2C54.2443 119.9 61.3443 118 63.1443 118.3C65.0443 118.5 67.1443 123.2 72.3443 124.9C77.5443 126.5 82.6443 122.6 87.1443 122.8C90.6443 123 95.1443 122.6 98.8443 123C102.644 123.5 106.144 126.9 111.044 126.7C115.944 126.5 129.744 127.4 132.344 126C134.944 124.6 135.444 121.8 138.644 122.7C141.944 123.6 149.244 124.8 152.444 124.6C155.744 124.4 160.444 121.1 162.544 121.8C164.644 122.5 178.744 122.7 182.444 120.9C186.244 119 187.344 112 190.144 112.7C192.944 113.4 203.744 112.7 205.844 110.6C207.944 108.5 211.444 108.5 213.544 105.4C215.644 102.3 212.944 100.2 212.944 100.2L159.744 109.2L106.744 114.6L69.9443 111.3L27.9443 103.6L12.6443 102.4H12.8443Z" fill="white"/>
<path d="M104.244 86.6C104.244 86.6 104.144 86.6 104.044 86.5C104.044 86.5 104.144 86.5 104.244 86.6Z" fill="white"/>
</g>
<defs>
<filter id="filter0_d_217_2256" x="0" y="0.600098" width="230.423" height="215.4" filterUnits="userSpaceOnUse" color-interpolation-filters="sRGB">
<feFlood flood-opacity="0" result="BackgroundImageFix"/>
<feColorMatrix in="SourceAlpha" type="matrix" values="0 0 0 0 0 0 0 0 0 0 0 0 0 0 0 0 0 0 127 0" result="hardAlpha"/>
<feOffset/>
<feGaussianBlur stdDeviation="3"/>
<feComposite in2="hardAlpha" operator="out"/>
<feColorMatrix type="matrix" values="0 0 0 0 0 0 0 0 0 0 0 0 0 0 0 0 0 0 0.7 0"/>
<feBlend mode="normal" in2="BackgroundImageFix" result="effect1_dropShadow_217_2256"/>
<feBlend mode="normal" in="SourceGraphic" in2="effect1_dropShadow_217_2256" result="shape"/>
</filter>
</defs>
</svg>
