<svg width="815" height="111" viewBox="0 0 815 111" fill="none" xmlns="http://www.w3.org/2000/svg">
<path d="M713.4 109.5L700.6 77.2L730 79L713.4 109.5Z" fill="#F58989"/>
<path d="M700.6 77.2L699.4 74.2L731.6 76.2L730 79L700.6 77.2Z" fill="#F58989"/>
<path d="M613.9 94.7L606.7 60.8L635.4 67.4L613.9 94.7Z" fill="#F58989"/>
<path d="M606.7 60.8L606 57.6L637.4 64.9L635.4 67.4L606.7 60.8Z" fill="#F58989"/>
<path d="M517.5 63.8L515.8 29.1L543 40.4L517.5 63.8Z" fill="#F58989"/>
<path d="M515.8 29.1L515.6 25.9L545.5 38.1L543 40.4L515.8 29.1Z" fill="#F58989"/>
<path d="M761 110.2L745.1 79.3L774.6 78.2L761 110.2Z" fill="#FEE9E6"/>
<path d="M745.1 79.3L743.6 76.4L775.9 75.2L774.6 78.2L745.1 79.3Z" fill="#FEE9E6"/>
<path d="M475.9 44.7L478 10L503.8 24.1L475.9 44.7Z" fill="#FCCBAC"/>
<path d="M478 9.99999L478.1 6.79999L506.5 22.2L503.8 24.1L478 9.99999Z" fill="#FCCBAC"/>
<path d="M665.3 104.3L654.8 71.3L684 75.1L665.3 104.3Z" fill="#FCCBAC"/>
<path d="M654.8 71.3L653.8 68.1L685.7 72.3L684 75.1L654.8 71.3Z" fill="#FCCBAC"/>
<path d="M564.7 81.1L560.4 46.7L588.4 55.8L564.7 81.1Z" fill="#FEE9E6"/>
<path d="M560.4 46.7L560 43.4L590.6 53.4L588.4 55.8L560.4 46.7Z" fill="#FEE9E6"/>
<path d="M814.8 72.7C713.3 85.7 624.6 65.8 568.1 46.9C506.9 26.4 469.1 2.5 468.8 2.2L470.2 0C470.6 0.2 508.1 24 569 44.4C625.2 63.2 713.4 83 814.4 70.1L814.7 72.7H814.8Z" fill="white"/>
<path d="M101.4 109.5L114.2 77.2L84.7999 79L101.4 109.5Z" fill="#F58989"/>
<path d="M114.2 77.2L115.4 74.2L83.2 76.2L84.8 79L114.2 77.2Z" fill="#F58989"/>
<path d="M200.9 94.7L208.1 60.8L179.4 67.4L200.9 94.7Z" fill="#F58989"/>
<path d="M208.1 60.8L208.8 57.6L177.4 64.9L179.4 67.4L208.1 60.8Z" fill="#F58989"/>
<path d="M297.3 63.8L299 29.1L271.8 40.4L297.3 63.8Z" fill="#F58989"/>
<path d="M299 29.1L299.2 25.9L269.3 38.1L271.8 40.4L299 29.1Z" fill="#F58989"/>
<path d="M53.8001 110.2L69.7001 79.3L40.2001 78.2L53.8001 110.2Z" fill="#FEE9E6"/>
<path d="M69.7 79.3L71.2 76.4L38.9 75.2L40.2 78.2L69.7 79.3Z" fill="#FEE9E6"/>
<path d="M338.9 44.7L336.8 10L311 24.1L338.9 44.7Z" fill="#FCCBAC"/>
<path d="M336.8 9.99999L336.7 6.79999L308.3 22.2L311 24.1L336.8 9.99999Z" fill="#FCCBAC"/>
<path d="M149.5 104.3L160 71.3L130.8 75.1L149.5 104.3Z" fill="#FCCBAC"/>
<path d="M160 71.3L161 68.1L129.1 72.3L130.8 75.1L160 71.3Z" fill="#FCCBAC"/>
<path d="M250.1 81.1L254.4 46.7L226.4 55.8L250.1 81.1Z" fill="#FEE9E6"/>
<path d="M254.4 46.7L254.8 43.4L224.2 53.4L226.4 55.8L254.4 46.7Z" fill="#FEE9E6"/>
<path d="M0 72.7C101.5 85.7 190.2 65.8 246.7 46.9C307.9 26.4 345.7 2.5 346 2.2L344.6 0C344.2 0.2 306.7 24 245.8 44.4C189.6 63.2 101.4 83 0.400002 70.1L0.100002 72.7H0Z" fill="white"/>
</svg>
