<svg width="722" height="470" viewBox="0 0 722 470" fill="none" xmlns="http://www.w3.org/2000/svg">
<path d="M547.9 124.5C548.7 126 549.1 127.5 549.4 129C549.7 130.5 549.8 132 549.8 133.5C549.8 135 549.7 136.5 549.4 138C549.1 139.5 548.7 141 547.8 142.5C547 141 546.5 139.5 546.2 138C545.9 136.5 545.8 135 545.8 133.5C545.8 132 545.9 130.5 546.2 129C546.5 127.5 546.9 126 547.7 124.5H547.9Z" fill="white"/>
<path d="M556.8 133.4C555.3 134.2 553.8 134.6 552.3 134.9C550.8 135.2 549.3 135.3 547.8 135.3C546.3 135.3 544.8 135.2 543.3 134.9C541.8 134.6 540.3 134.2 538.8 133.3C540.3 132.5 541.8 132 543.3 131.7C544.8 131.4 546.3 131.3 547.8 131.3C549.3 131.3 550.8 131.4 552.3 131.7C553.8 132 555.3 132.4 556.8 133.2V133.4Z" fill="white"/>
<path d="M545 379.3C545.8 380.8 546.3 382.3 546.6 383.9C546.9 385.4 547 386.9 547 388.5C547 390 546.9 391.5 546.6 393.1C546.3 394.6 545.9 396.1 545 397.7C544.2 396.2 543.7 394.7 543.4 393.1C543.1 391.6 543 390.1 543 388.5C543 387 543.1 385.5 543.4 383.9C543.7 382.4 544.1 380.9 545 379.3Z" fill="white"/>
<path d="M554.1 388.4C552.6 389.2 551.1 389.7 549.5 390C548 390.3 546.5 390.4 544.9 390.4C543.4 390.4 541.9 390.3 540.3 390C538.8 389.7 537.3 389.3 535.7 388.4C537.2 387.6 538.7 387.1 540.3 386.8C541.8 386.5 543.3 386.4 544.9 386.4C546.4 386.4 547.9 386.5 549.5 386.8C551 387.1 552.5 387.5 554.1 388.4Z" fill="white"/>
<path d="M494 310.9C494.8 312.4 495.3 313.9 495.6 315.5C495.9 317 496 318.5 496 320.1C496 321.6 495.9 323.1 495.6 324.7C495.3 326.2 494.9 327.7 494 329.3C493.2 327.8 492.7 326.3 492.4 324.7C492.1 323.2 492 321.7 492 320.1C492 318.6 492.1 317.1 492.4 315.5C492.7 314 493.1 312.5 494 310.9Z" fill="white"/>
<path d="M503.1 320C501.6 320.8 500.1 321.3 498.5 321.6C497 321.9 495.5 322 493.9 322C492.4 322 490.9 321.9 489.3 321.6C487.8 321.3 486.3 320.9 484.7 320C486.2 319.2 487.7 318.7 489.3 318.4C490.8 318.1 492.3 318 493.9 318C495.4 318 496.9 318.1 498.5 318.4C500 318.7 501.5 319.1 503.1 320Z" fill="white"/>
<path d="M708.9 257.7C709.4 258.7 709.7 259.7 709.9 260.7C710.1 261.7 710.2 262.7 710.2 263.7C710.2 264.7 710.2 265.7 709.9 266.7C709.7 267.7 709.4 268.7 708.9 269.7C708.3 268.7 708.1 267.7 707.9 266.7C707.7 265.7 707.6 264.7 707.6 263.7C707.6 262.7 707.6 261.7 707.9 260.7C708.1 259.7 708.4 258.7 708.9 257.7Z" fill="white"/>
<path d="M714.9 263.7C713.9 264.2 712.9 264.5 711.9 264.7C710.9 264.9 709.9 265 708.9 265C707.9 265 706.9 265 705.9 264.7C704.9 264.5 703.9 264.2 702.9 263.7C703.9 263.1 704.9 262.9 705.9 262.7C706.9 262.5 707.9 262.4 708.9 262.4C709.9 262.4 710.9 262.4 711.9 262.7C712.9 262.9 713.9 263.2 714.9 263.7Z" fill="white"/>
<path d="M685.6 0C686.4 1.5 686.9 3 687.2 4.6C687.5 6.1 687.6 7.6 687.6 9.2C687.6 10.7 687.5 12.2 687.2 13.8C686.9 15.3 686.5 16.8 685.6 18.4C684.8 16.9 684.3 15.4 684 13.8C683.7 12.3 683.6 10.8 683.6 9.2C683.6 7.7 683.7 6.2 684 4.6C684.3 3.1 684.7 1.6 685.6 0Z" fill="white"/>
<path d="M694.7 9.20001C693.2 10 691.7 10.5 690.1 10.8C688.6 11.1 687.1 11.2 685.5 11.2C684 11.2 682.5 11.1 680.9 10.8C679.4 10.5 677.9 10.1 676.3 9.20001C677.8 8.40001 679.3 7.90001 680.9 7.60001C682.4 7.30001 683.9 7.20001 685.5 7.20001C687 7.20001 688.5 7.30001 690.1 7.60001C691.6 7.90001 693.1 8.30001 694.7 9.20001Z" fill="white"/>
<path d="M540.7 70C540.7 68 542.3 66.4 544.3 66.4C546.3 66.4 547.9 68 547.9 70C547.9 72 546.3 73.6 544.3 73.6C542.3 73.6 540.7 72 540.7 70Z" fill="white"/>
<path d="M580.6 13.4C580.6 12.5 581.3 11.8 582.2 11.8C583.1 11.8 583.8 12.5 583.8 13.4C583.8 14.3 583.1 15 582.2 15C581.3 15 580.6 14.3 580.6 13.4Z" fill="white"/>
<path d="M605.2 199.9C605.2 197.9 606.8 196.3 608.8 196.3C610.8 196.3 612.4 197.9 612.4 199.9C612.4 201.9 610.8 203.5 608.8 203.5C606.8 203.5 605.2 201.9 605.2 199.9Z" fill="white"/>
<path d="M597.6 258.7C597.6 257.6 598.5 256.6 599.7 256.6C600.9 256.6 601.8 257.5 601.8 258.7C601.8 259.9 600.9 260.8 599.7 260.8C598.5 260.8 597.6 259.9 597.6 258.7Z" fill="white"/>
<path d="M609.4 452.8C610.9 454.1 611.1 456.4 609.8 457.9C608.5 459.4 606.2 459.6 604.7 458.3C603.2 457 603 454.7 604.3 453.2C605.6 451.7 607.9 451.5 609.4 452.8Z" fill="white"/>
<path d="M606.3 387.1C607.3 388 607.4 389.4 606.5 390.4C605.6 391.4 604.2 391.5 603.2 390.6C602.2 389.7 602.1 388.3 603 387.3C603.9 386.3 605.3 386.2 606.3 387.1Z" fill="white"/>
<path d="M466.4 230C467.3 230.7 467.4 232 466.6 232.9C465.8 233.8 464.6 233.9 463.7 233.1C462.8 232.3 462.7 231.1 463.5 230.2C464.2 229.3 465.5 229.2 466.4 230Z" fill="white"/>
<path d="M615.4 101.3C615.4 100.2 616.3 99.2 617.5 99.2C618.7 99.2 619.6 100.1 619.6 101.3C619.6 102.5 618.7 103.4 617.5 103.4C616.3 103.4 615.4 102.5 615.4 101.3Z" fill="white"/>
<path d="M717.1 110.7C717.1 109.6 718 108.6 719.2 108.6C720.4 108.6 721.3 109.5 721.3 110.7C721.3 111.9 720.4 112.8 719.2 112.8C718 112.8 717.1 111.9 717.1 110.7Z" fill="white"/>
<path d="M437.2 116.9C437.2 114.9 438.8 113.3 440.8 113.3C442.8 113.3 444.4 114.9 444.4 116.9C444.4 118.9 442.8 120.5 440.8 120.5C438.8 120.5 437.2 118.9 437.2 116.9Z" fill="white"/>
<path d="M185.4 131.1C184.6 132.6 184.2 134.1 183.8 135.6C183.5 137.1 183.4 138.6 183.4 140.1C183.4 141.6 183.5 143.1 183.8 144.6C184.1 146.1 184.5 147.6 185.4 149.1C186.2 147.6 186.7 146.1 187 144.6C187.3 143.1 187.4 141.6 187.4 140.1C187.4 138.6 187.3 137.1 187 135.6C186.7 134.1 186.3 132.6 185.4 131.1Z" fill="white"/>
<path d="M176.4 140.1C177.9 140.9 179.4 141.3 180.9 141.7C182.4 142 183.9 142.1 185.4 142.1C186.9 142.1 188.4 142 189.9 141.7C191.4 141.4 192.9 141 194.4 140.1C192.9 139.3 191.4 138.8 189.9 138.5C188.4 138.2 186.9 138.1 185.4 138.1C183.9 138.1 182.4 138.2 180.9 138.5C179.4 138.8 177.9 139.2 176.4 140.1Z" fill="white"/>
<path d="M196.5 454.6C195.8 455.9 195.5 457.1 195.2 458.4C195 459.7 194.8 460.9 194.8 462.2C194.8 463.5 194.9 464.7 195.1 466C195.4 467.3 195.7 468.5 196.4 469.8C197.1 468.5 197.5 467.3 197.7 466C197.9 464.7 198.1 463.5 198 462.2C198 460.9 197.9 459.7 197.6 458.4C197.3 457.1 197 455.9 196.3 454.6H196.5Z" fill="white"/>
<path d="M188.9 462.1C190.2 462.8 191.4 463.1 192.7 463.4C194 463.6 195.2 463.8 196.5 463.8C197.8 463.8 199 463.7 200.3 463.5C201.6 463.2 202.8 462.9 204.1 462.2C202.8 461.5 201.6 461.1 200.3 460.9C199 460.7 197.8 460.5 196.5 460.6C195.2 460.6 194 460.7 192.7 461C191.4 461.3 190.2 461.6 188.9 462.3V462.1Z" fill="white"/>
<path d="M233.5 295.4C232.9 296.6 232.5 297.8 232.3 299C232.1 300.2 232 301.4 232 302.6C232 303.8 232 305 232.3 306.2C232.5 307.4 232.9 308.6 233.5 309.8C234.2 308.6 234.5 307.4 234.7 306.2C234.9 305 235 303.8 235 302.6C235 301.4 234.9 300.2 234.7 299C234.5 297.8 234.1 296.6 233.5 295.4Z" fill="white"/>
<path d="M226.4 302.5C227.6 303.1 228.8 303.5 230 303.7C231.2 303.9 232.4 304 233.6 304C234.8 304 236 304 237.2 303.7C238.4 303.5 239.6 303.1 240.8 302.5C239.6 301.8 238.4 301.5 237.2 301.3C236 301.1 234.8 301 233.6 301C232.4 301 231.2 301.1 230 301.3C228.8 301.5 227.6 301.9 226.4 302.5Z" fill="white"/>
<path d="M5.99995 431.8C5.49995 432.8 5.19995 433.8 4.99995 434.8C4.79995 435.8 4.69995 436.8 4.69995 437.8C4.69995 438.8 4.69995 439.8 4.99995 440.8C5.19995 441.8 5.49995 442.8 5.99995 443.8C6.59995 442.8 6.79995 441.8 6.99995 440.8C7.19995 439.8 7.29995 438.8 7.29995 437.8C7.29995 436.8 7.29995 435.8 6.99995 434.8C6.79995 433.8 6.49995 432.8 5.99995 431.8Z" fill="white"/>
<path d="M0 437.8C1 438.3 2 438.6 3 438.8C4 439 5 439.1 6 439.1C7 439.1 8 439.1 9 438.8C10 438.6 11 438.3 12 437.8C11 437.2 10 437 9 436.8C8 436.6 7 436.5 6 436.5C5 436.5 4 436.5 3 436.8C2 437 1 437.3 0 437.8Z" fill="white"/>
<path d="M262.2 203.6C261.7 204.6 261.4 205.6 261.2 206.6C261 207.6 260.9 208.6 260.9 209.6C260.9 210.6 260.9 211.6 261.2 212.6C261.4 213.6 261.7 214.6 262.2 215.6C262.8 214.6 263 213.6 263.2 212.6C263.4 211.6 263.5 210.6 263.5 209.6C263.5 208.6 263.5 207.6 263.2 206.6C263 205.6 262.7 204.6 262.2 203.6Z" fill="white"/>
<path d="M256.2 209.6C257.2 210.1 258.2 210.4 259.2 210.6C260.2 210.8 261.2 210.9 262.2 210.9C263.2 210.9 264.2 210.9 265.2 210.6C266.2 210.4 267.2 210.1 268.2 209.6C267.2 209 266.2 208.8 265.2 208.6C264.2 208.4 263.2 208.3 262.2 208.3C261.2 208.3 260.2 208.3 259.2 208.6C258.2 208.8 257.2 209.1 256.2 209.6Z" fill="white"/>
<path d="M404.6 33.3C404.1 34.3 403.8 35.3 403.6 36.3C403.4 37.3 403.3 38.3 403.3 39.3C403.3 40.3 403.3 41.3 403.6 42.3C403.8 43.3 404.1 44.3 404.6 45.3C405.2 44.3 405.4 43.3 405.6 42.3C405.8 41.3 405.9 40.3 405.9 39.3C405.9 38.3 405.9 37.3 405.6 36.3C405.4 35.3 405.1 34.3 404.6 33.3Z" fill="white"/>
<path d="M398.6 39.4C399.6 39.9 400.6 40.2 401.6 40.4C402.6 40.6 403.6 40.7 404.6 40.7C405.6 40.7 406.6 40.7 407.6 40.4C408.6 40.2 409.6 39.9 410.6 39.4C409.6 38.8 408.6 38.6 407.6 38.4C406.6 38.2 405.6 38.1 404.6 38.1C403.6 38.1 402.6 38.1 401.6 38.4C400.6 38.6 399.6 38.9 398.6 39.4Z" fill="white"/>
<path d="M127.7 287.4C127.2 288.4 126.9 289.4 126.7 290.4C126.5 291.4 126.4 292.4 126.4 293.4C126.4 294.4 126.4 295.4 126.7 296.4C126.9 297.4 127.2 298.4 127.7 299.4C128.3 298.4 128.5 297.4 128.7 296.4C128.9 295.4 129 294.4 129 293.4C129 292.4 129 291.4 128.7 290.4C128.5 289.4 128.2 288.4 127.7 287.4Z" fill="white"/>
<path d="M121.7 293.4C122.7 293.9 123.7 294.2 124.7 294.4C125.7 294.6 126.7 294.7 127.7 294.7C128.7 294.7 129.7 294.7 130.7 294.4C131.7 294.2 132.7 293.9 133.7 293.4C132.7 292.8 131.7 292.6 130.7 292.4C129.7 292.2 128.7 292.1 127.7 292.1C126.7 292.1 125.7 292.1 124.7 292.4C123.7 292.6 122.7 292.9 121.7 293.4Z" fill="white"/>
<path d="M153.4 7.70001C152.8 8.80001 152.5 9.90001 152.3 10.9C152.1 12 152 13 152 14.1C152 15.2 152 16.2 152.3 17.3C152.5 18.4 152.8 19.5 153.4 20.5C154 19.4 154.3 18.3 154.5 17.3C154.7 16.2 154.8 15.2 154.8 14.1C154.8 13 154.7 11.9 154.5 10.9C154.3 9.80001 154 8.80001 153.4 7.70001Z" fill="white"/>
<path d="M147 14.2C148.1 14.8 149.1 15.1 150.2 15.3C151.3 15.5 152.3 15.6 153.4 15.6C154.5 15.6 155.5 15.6 156.6 15.3C157.7 15.1 158.7 14.8 159.8 14.2C158.7 13.6 157.7 13.3 156.6 13.1C155.5 12.9 154.5 12.8 153.4 12.8C152.3 12.8 151.3 12.9 150.2 13.1C149.1 13.3 148.1 13.6 147 14.2Z" fill="white"/>
<path d="M22.3 22C22.3 20 20.7 18.4 18.7 18.4C16.7 18.4 15.1 20 15.1 22C15.1 24 16.7 25.6 18.7 25.6C20.7 25.6 22.3 24 22.3 22Z" fill="white"/>
<path d="M89 3.7C89.8837 3.7 90.6 2.98366 90.6 2.1C90.6 1.21634 89.8837 0.5 89 0.5C88.1164 0.5 87.4 1.21634 87.4 2.1C87.4 2.98366 88.1164 3.7 89 3.7Z" fill="white"/>
<path d="M12 258.6C12 256.6 10.4 255 8.40005 255C6.40005 255 4.80005 256.6 4.80005 258.6C4.80005 260.6 6.40005 262.2 8.40005 262.2C10.4 262.2 12 260.6 12 258.6Z" fill="white"/>
<path d="M511.6 444.6C510.1 445.9 509.9 448.2 511.2 449.7C512.5 451.2 514.8 451.4 516.3 450.1C517.8 448.8 518 446.5 516.7 445C515.4 443.5 513.1 443.3 511.6 444.6Z" fill="white"/>
<path d="M84.7 448.2C83.2 449.5 83 451.8 84.3 453.3C85.6 454.8 87.9 455 89.4 453.7C90.9 452.4 91.1 450.1 89.8 448.6C88.5 447.1 86.2 446.9 84.7 448.2Z" fill="white"/>
<path d="M90.6 358.3C89.6 359.2 89.5 360.6 90.4 361.6C91.3 362.6 92.7 362.7 93.7 361.8C94.7 360.9 94.8 359.5 93.9 358.5C93 357.5 91.6 357.4 90.6 358.3Z" fill="white"/>
<path d="M209.8 238.1C208.9 238.8 208.8 240.1 209.6 241C210.4 241.9 211.6 242 212.5 241.2C213.4 240.4 213.5 239.2 212.7 238.3C211.9 237.4 210.7 237.3 209.8 238.1Z" fill="white"/>
<path d="M101.5 105.3C101.5 104.2 100.6 103.2 99.4001 103.2C98.2001 103.2 97.3 104.1 97.3 105.3C97.3 106.5 98.2001 107.4 99.4001 107.4C100.6 107.4 101.5 106.5 101.5 105.3Z" fill="white"/>
<path d="M356.5 2.1C356.5 1 355.6 0 354.4 0C353.2 0 352.3 0.9 352.3 2.1C352.3 3.3 353.2 4.2 354.4 4.2C355.6 4.2 356.5 3.3 356.5 2.1Z" fill="white"/>
<path d="M254.6 84.5C254.6 82.5 253 80.9 251 80.9C249 80.9 247.4 82.5 247.4 84.5C247.4 86.5 249 88.1 251 88.1C253 88.1 254.6 86.5 254.6 84.5Z" fill="white"/>
</svg>
