<svg width="250" height="32" viewBox="0 0 250 32" fill="none" xmlns="http://www.w3.org/2000/svg">
<path d="M19.5114 25.4513C19.2474 25.5233 18.8274 25.5952 18.2515 25.6672C17.6995 25.7392 17.1475 25.7752 16.5955 25.7752C16.0435 25.7752 15.5515 25.7272 15.1196 25.6312C14.7116 25.5592 14.3636 25.4153 14.0756 25.1993C13.7876 24.9833 13.5716 24.6833 13.4276 24.2993C13.2836 23.9153 13.2116 23.4113 13.2116 22.7873V17.1715H6.29982V25.4513C6.03582 25.5233 5.61584 25.5952 5.03985 25.6672C4.48787 25.7392 3.93588 25.7752 3.3839 25.7752C2.83192 25.7752 2.33993 25.7272 1.90794 25.6312C1.49996 25.5592 1.15197 25.4153 0.863975 25.1993C0.575983 24.9833 0.359989 24.6833 0.215994 24.2993C0.0719979 23.9153 0 23.4113 0 22.7873V3.77989C0.263992 3.73189 0.68398 3.67189 1.25996 3.5999C1.83595 3.5039 2.38793 3.4559 2.91591 3.4559C3.4679 3.4559 3.94788 3.5039 4.35587 3.5999C4.78786 3.67189 5.14785 3.81589 5.43584 4.03188C5.72383 4.24788 5.93983 4.54787 6.08382 4.93186C6.22782 5.31584 6.29982 5.81983 6.29982 6.44381V12.2036H13.2116V3.77989C13.4756 3.73189 13.8956 3.67189 14.4716 3.5999C15.0476 3.5039 15.5995 3.4559 16.1275 3.4559C16.6795 3.4559 17.1595 3.5039 17.5675 3.5999C17.9995 3.67189 18.3595 3.81589 18.6475 4.03188C18.9354 4.24788 19.1514 4.54787 19.2954 4.93186C19.4394 5.31584 19.5114 5.81983 19.5114 6.44381V25.4513Z" fill="#F58989"/>
<path d="M27.7057 4.42787C28.1137 4.18788 28.7257 3.95988 29.5416 3.74389C30.3816 3.5279 31.2216 3.4199 32.0616 3.4199C33.2615 3.4199 34.3175 3.59989 35.2295 3.95988C36.1654 4.29587 36.7654 4.83586 37.0294 5.57984C37.4614 6.8278 37.9294 8.27976 38.4334 9.93571C38.9374 11.5917 39.4413 13.3076 39.9453 15.0836C40.4493 16.8355 40.9413 18.5755 41.4213 20.3034C41.9013 22.0074 42.3213 23.5193 42.6812 24.8393C42.3933 25.1753 41.9613 25.4393 41.3853 25.6312C40.8093 25.8472 40.1253 25.9552 39.3333 25.9552C38.7574 25.9552 38.2654 25.9072 37.8574 25.8112C37.4734 25.7152 37.1494 25.5713 36.8854 25.3793C36.6454 25.1873 36.4414 24.9353 36.2734 24.6233C36.1294 24.3113 35.9974 23.9513 35.8774 23.5433L35.2295 21.0594H28.7137C28.5217 21.7794 28.3297 22.5233 28.1377 23.2913C27.9457 24.0593 27.7537 24.8033 27.5617 25.5233C27.2257 25.6432 26.8657 25.7392 26.4817 25.8112C26.1217 25.9072 25.6777 25.9552 25.1498 25.9552C23.9258 25.9552 23.0138 25.7512 22.4138 25.3433C21.8379 24.9113 21.5499 24.3233 21.5499 23.5793C21.5499 23.2433 21.5979 22.9073 21.6939 22.5713C21.7899 22.2353 21.8979 21.8394 22.0179 21.3834C22.1859 20.7354 22.4138 19.9314 22.7018 18.9714C23.0138 18.0115 23.3498 16.9795 23.7098 15.8755C24.0698 14.7476 24.4538 13.5956 24.8618 12.4196C25.2698 11.2437 25.6537 10.1397 26.0137 9.10773C26.3737 8.05176 26.6977 7.11579 26.9857 6.29982C27.2977 5.48384 27.5377 4.85986 27.7057 4.42787ZM32.0256 9.07173C31.6896 10.0797 31.3056 11.2077 30.8736 12.4556C30.4656 13.6796 30.0936 14.9276 29.7576 16.1995H34.2215C33.8855 14.9036 33.5375 13.6436 33.1775 12.4196C32.8415 11.1717 32.5295 10.0557 32.2416 9.07173H32.0256Z" fill="#F58989"/>
<path d="M52.6783 13.8956C53.6862 13.8956 54.4542 13.6676 54.9822 13.2116C55.5342 12.7316 55.8102 12.0116 55.8102 11.0517C55.8102 10.1397 55.5222 9.44372 54.9462 8.96374C54.3942 8.45975 53.5782 8.20776 52.4983 8.20776C52.1143 8.20776 51.7903 8.21976 51.5263 8.24376C51.2863 8.24376 51.0343 8.26776 50.7703 8.31576V13.8956H52.6783ZM50.8063 25.4513C50.5423 25.5233 50.1223 25.5952 49.5464 25.6672C48.9944 25.7392 48.4424 25.7752 47.8904 25.7752C47.3384 25.7752 46.8464 25.7272 46.4144 25.6312C46.0065 25.5592 45.6585 25.4153 45.3705 25.1993C45.0825 24.9833 44.8665 24.6833 44.7225 24.2993C44.5785 23.9153 44.5065 23.4113 44.5065 22.7873V5.83183C44.5065 5.32784 44.6385 4.94385 44.9025 4.67986C45.1905 4.39187 45.5745 4.16388 46.0545 3.99588C46.8704 3.70789 47.7944 3.5039 48.8264 3.3839C49.8823 3.2399 50.9383 3.16791 51.9943 3.16791C55.3062 3.16791 57.8381 3.87589 59.5901 5.29185C61.342 6.7078 62.218 8.62775 62.218 11.0517C62.218 12.2276 62.026 13.2956 61.642 14.2556C61.282 15.1916 60.73 16.0075 59.9861 16.7035C59.2661 17.3755 58.3421 17.9035 57.2141 18.2875C56.1102 18.6475 54.8262 18.8274 53.3622 18.8274H50.8063V25.4513Z" fill="#F58989"/>
<path d="M72.4707 13.8956C73.4786 13.8956 74.2466 13.6676 74.7746 13.2116C75.3266 12.7316 75.6026 12.0116 75.6026 11.0517C75.6026 10.1397 75.3146 9.44372 74.7386 8.96374C74.1866 8.45975 73.3706 8.20776 72.2907 8.20776C71.9067 8.20776 71.5827 8.21976 71.3187 8.24376C71.0787 8.24376 70.8267 8.26776 70.5627 8.31576V13.8956H72.4707ZM70.5987 25.4513C70.3347 25.5233 69.9147 25.5952 69.3387 25.6672C68.7868 25.7392 68.2348 25.7752 67.6828 25.7752C67.1308 25.7752 66.6388 25.7272 66.2068 25.6312C65.7989 25.5592 65.4509 25.4153 65.1629 25.1993C64.8749 24.9833 64.6589 24.6833 64.5149 24.2993C64.3709 23.9153 64.2989 23.4113 64.2989 22.7873V5.83183C64.2989 5.32784 64.4309 4.94385 64.6949 4.67986C64.9829 4.39187 65.3669 4.16388 65.8468 3.99588C66.6628 3.70789 67.5868 3.5039 68.6188 3.3839C69.6747 3.2399 70.7307 3.16791 71.7867 3.16791C75.0986 3.16791 77.6305 3.87589 79.3824 5.29185C81.1344 6.7078 82.0104 8.62775 82.0104 11.0517C82.0104 12.2276 81.8184 13.2956 81.4344 14.2556C81.0744 15.1916 80.5224 16.0075 79.7784 16.7035C79.0585 17.3755 78.1345 17.9035 77.0065 18.2875C75.9025 18.6475 74.6186 18.8274 73.1546 18.8274H70.5987V25.4513Z" fill="#F58989"/>
<path d="M95.5389 25.4513C95.275 25.5233 94.867 25.5952 94.315 25.6672C93.763 25.7392 93.223 25.7752 92.695 25.7752C91.5911 25.7752 90.7631 25.5952 90.2111 25.2353C89.6591 24.8513 89.3831 24.0593 89.3831 22.8593V17.9995C88.7831 17.1115 88.1352 16.1275 87.4392 15.0476C86.7432 13.9676 86.0592 12.8636 85.3872 11.7357C84.7153 10.6077 84.0913 9.50372 83.5153 8.42375C82.9393 7.31979 82.4713 6.31182 82.1113 5.39984C82.4233 4.96785 82.8433 4.57187 83.3713 4.21188C83.9233 3.85189 84.5953 3.67189 85.3872 3.67189C86.3232 3.67189 87.0792 3.86389 87.6552 4.24787C88.2552 4.63186 88.8191 5.35184 89.3471 6.40781L92.335 12.4196H92.551C92.887 11.6757 93.175 11.0037 93.415 10.4037C93.679 9.77971 93.931 9.16773 94.171 8.56775C94.411 7.94377 94.663 7.30779 94.927 6.6598C95.191 5.98782 95.4909 5.21985 95.8269 4.35587C96.2589 4.13988 96.7389 3.97188 97.2669 3.85189C97.7949 3.73189 98.2989 3.67189 98.7788 3.67189C99.6188 3.67189 100.327 3.89989 100.903 4.35587C101.503 4.78786 101.803 5.44784 101.803 6.33581C101.803 6.62381 101.743 6.9718 101.623 7.37978C101.503 7.78777 101.227 8.41175 100.795 9.25173C100.363 10.0677 99.7268 11.1837 98.8868 12.5996C98.0709 14.0156 96.9549 15.8635 95.5389 18.1435V25.4513Z" fill="#F58989"/>
<path d="M115.839 21.0954C116.175 21.1914 116.607 21.2634 117.135 21.3114C117.663 21.3354 118.167 21.3474 118.647 21.3474C119.607 21.3474 120.399 21.1554 121.023 20.7714C121.671 20.3634 121.995 19.7394 121.995 18.8994C121.995 18.1075 121.731 17.5435 121.203 17.2075C120.675 16.8715 119.871 16.7035 118.791 16.7035H115.839V21.0954ZM115.839 12.3116H118.467C119.499 12.3116 120.243 12.1196 120.699 11.7357C121.179 11.3517 121.419 10.7877 121.419 10.0437C121.419 9.39572 121.143 8.87974 120.591 8.49575C120.063 8.11176 119.259 7.91977 118.179 7.91977C117.819 7.91977 117.399 7.93177 116.919 7.95577C116.463 7.97977 116.103 8.01577 115.839 8.06376V12.3116ZM118.179 26.1712C117.771 26.1712 117.291 26.1592 116.739 26.1352C116.187 26.1112 115.611 26.0632 115.011 25.9912C114.435 25.9192 113.859 25.8232 113.283 25.7032C112.707 25.6073 112.179 25.4633 111.699 25.2713C110.379 24.7673 109.719 23.8913 109.719 22.6433V5.83183C109.719 5.32784 109.851 4.94385 110.115 4.67986C110.403 4.39187 110.787 4.16388 111.267 3.99588C112.083 3.70789 113.103 3.5039 114.327 3.3839C115.551 3.2399 116.811 3.16791 118.107 3.16791C121.179 3.16791 123.543 3.68389 125.199 4.71586C126.855 5.74783 127.683 7.34378 127.683 9.50372C127.683 10.5837 127.371 11.5197 126.747 12.3116C126.123 13.0796 125.283 13.6436 124.227 14.0036C125.427 14.3396 126.423 14.9516 127.215 15.8395C128.031 16.7275 128.439 17.8435 128.439 19.1874C128.439 21.5634 127.551 23.3273 125.775 24.4793C124.023 25.6072 121.491 26.1712 118.179 26.1712Z" fill="#F58989"/>
<path d="M130.271 3.2399C130.271 2.32793 130.571 1.55995 131.171 0.935971C131.795 0.31199 132.611 0 133.619 0C134.627 0 135.431 0.31199 136.031 0.935971C136.655 1.55995 136.967 2.32793 136.967 3.2399C136.967 4.15188 136.655 4.91986 136.031 5.54384C135.431 6.16782 134.627 6.47981 133.619 6.47981C132.611 6.47981 131.795 6.16782 131.171 5.54384C130.571 4.91986 130.271 4.15188 130.271 3.2399ZM136.679 25.5593C136.415 25.6073 136.019 25.6672 135.491 25.7392C134.987 25.8352 134.471 25.8832 133.943 25.8832C133.415 25.8832 132.935 25.8472 132.503 25.7752C132.095 25.7032 131.747 25.5592 131.459 25.3433C131.171 25.1273 130.943 24.8393 130.775 24.4793C130.631 24.0953 130.559 23.6033 130.559 23.0033V8.35175C130.823 8.30376 131.207 8.24376 131.711 8.17176C132.239 8.07576 132.767 8.02776 133.295 8.02776C133.823 8.02776 134.291 8.06376 134.699 8.13576C135.131 8.20776 135.491 8.35176 135.779 8.56775C136.067 8.78374 136.283 9.08373 136.427 9.46772C136.595 9.82771 136.679 10.3077 136.679 10.9077V25.5593Z" fill="#F58989"/>
<path d="M145.57 25.5593C145.33 25.6312 144.946 25.7032 144.418 25.7752C143.914 25.8472 143.386 25.8832 142.834 25.8832C142.306 25.8832 141.826 25.8472 141.394 25.7752C140.986 25.7032 140.638 25.5592 140.35 25.3433C140.062 25.1273 139.834 24.8393 139.666 24.4793C139.522 24.0953 139.45 23.6033 139.45 23.0033V12.2036C139.45 11.6517 139.546 11.1837 139.738 10.7997C139.954 10.3917 140.254 10.0317 140.638 9.71972C141.022 9.40772 141.49 9.13173 142.042 8.89174C142.618 8.62775 143.23 8.39975 143.878 8.20776C144.526 8.01577 145.198 7.87177 145.894 7.77577C146.59 7.65578 147.286 7.59578 147.982 7.59578C149.133 7.59578 150.045 7.82377 150.717 8.27976C151.389 8.71174 151.725 9.43172 151.725 10.4397C151.725 10.7757 151.677 11.1117 151.581 11.4477C151.485 11.7597 151.365 12.0476 151.221 12.3116C150.717 12.3116 150.201 12.3356 149.673 12.3836C149.145 12.4316 148.63 12.5036 148.126 12.5996C147.622 12.6956 147.142 12.8036 146.686 12.9236C146.254 13.0196 145.882 13.1396 145.57 13.2836V25.5593Z" fill="#F58989"/>
<path d="M159.245 19.5834C159.245 20.2074 159.437 20.6514 159.821 20.9154C160.229 21.1794 160.793 21.3114 161.513 21.3114C161.873 21.3114 162.245 21.2874 162.629 21.2394C163.013 21.1674 163.349 21.0834 163.637 20.9874C163.853 21.2514 164.033 21.5514 164.177 21.8874C164.345 22.1994 164.429 22.5833 164.429 23.0393C164.429 23.9513 164.081 24.6953 163.385 25.2713C162.713 25.8472 161.513 26.1352 159.785 26.1352C157.673 26.1352 156.041 25.6552 154.889 24.6953C153.761 23.7353 153.197 22.1753 153.197 20.0154V4.60787C153.461 4.53587 153.833 4.46387 154.313 4.39187C154.817 4.29587 155.345 4.24787 155.897 4.24787C156.953 4.24787 157.769 4.43987 158.345 4.82386C158.945 5.18385 159.245 5.96382 159.245 7.16379V9.46772H163.961C164.105 9.73172 164.237 10.0677 164.357 10.4757C164.501 10.8597 164.573 11.2917 164.573 11.7717C164.573 12.6116 164.381 13.2236 163.997 13.6076C163.637 13.9676 163.145 14.1476 162.521 14.1476H159.245V19.5834Z" fill="#F58989"/>
<path d="M183.693 25.5593C183.453 25.6312 183.069 25.7032 182.541 25.7752C182.037 25.8472 181.509 25.8832 180.957 25.8832C180.429 25.8832 179.949 25.8472 179.517 25.7752C179.109 25.7032 178.761 25.5592 178.473 25.3433C178.185 25.1273 177.957 24.8393 177.79 24.4793C177.646 24.0953 177.574 23.6033 177.574 23.0033V15.0116C177.574 14.0276 177.322 13.3436 176.818 12.9596C176.338 12.5516 175.738 12.3476 175.018 12.3476C174.538 12.3476 174.082 12.4076 173.65 12.5276C173.218 12.6476 172.87 12.7916 172.606 12.9596V25.5593C172.366 25.6312 171.982 25.7032 171.454 25.7752C170.95 25.8472 170.422 25.8832 169.87 25.8832C169.342 25.8832 168.862 25.8472 168.43 25.7752C168.022 25.7032 167.674 25.5592 167.386 25.3433C167.098 25.1273 166.87 24.8393 166.702 24.4793C166.558 24.0953 166.486 23.6033 166.486 23.0033V2.12394C166.75 2.07594 167.134 2.01594 167.638 1.94394C168.166 1.84795 168.694 1.79995 169.222 1.79995C169.75 1.79995 170.218 1.83595 170.626 1.90794C171.058 1.97994 171.418 2.12394 171.706 2.33993C171.994 2.55592 172.21 2.85592 172.354 3.2399C172.522 3.59989 172.606 4.07988 172.606 4.67986V8.20776C172.918 8.08776 173.386 7.95577 174.01 7.81177C174.658 7.64377 175.366 7.55978 176.134 7.55978C178.509 7.55978 180.357 8.15976 181.677 9.35972C183.021 10.5357 183.693 12.2996 183.693 14.6516V25.5593Z" fill="#F58989"/>
<path d="M185.591 16.8475C185.591 15.2636 185.831 13.8956 186.311 12.7436C186.791 11.5677 187.451 10.5957 188.291 9.82771C189.155 9.05973 190.151 8.49575 191.279 8.13576C192.431 7.75177 193.667 7.55978 194.987 7.55978C195.467 7.55978 195.935 7.60778 196.391 7.70377C196.847 7.77577 197.219 7.87177 197.507 7.99177V2.15994C197.747 2.08794 198.13 2.01594 198.658 1.94394C199.186 1.84795 199.726 1.79995 200.278 1.79995C200.806 1.79995 201.274 1.83595 201.682 1.90794C202.114 1.97994 202.474 2.12394 202.762 2.33993C203.05 2.55592 203.266 2.85592 203.41 3.2399C203.554 3.59989 203.626 4.07988 203.626 4.67986V21.7434C203.626 22.8713 203.098 23.7713 202.042 24.4433C201.346 24.8993 200.446 25.2953 199.342 25.6312C198.238 25.9912 196.967 26.1712 195.527 26.1712C193.967 26.1712 192.563 25.9552 191.315 25.5233C190.091 25.0913 189.047 24.4673 188.183 23.6513C187.343 22.8353 186.695 21.8634 186.239 20.7354C185.807 19.5834 185.591 18.2875 185.591 16.8475ZM195.815 12.3476C194.519 12.3476 193.523 12.7196 192.827 13.4636C192.131 14.2076 191.783 15.3355 191.783 16.8475C191.783 18.3355 192.107 19.4634 192.755 20.2314C193.403 20.9754 194.339 21.3474 195.563 21.3474C195.995 21.3474 196.379 21.2874 196.715 21.1674C197.075 21.0234 197.351 20.8674 197.543 20.6994V12.7796C197.063 12.4916 196.487 12.3476 195.815 12.3476Z" fill="#F58989"/>
<path d="M213.803 21.7074C214.211 21.7074 214.655 21.6714 215.135 21.5994C215.639 21.5034 216.011 21.3834 216.251 21.2394V18.3595L213.659 18.5755C212.987 18.6235 212.435 18.7674 212.003 19.0074C211.571 19.2474 211.355 19.6074 211.355 20.0874C211.355 20.5674 211.535 20.9634 211.895 21.2754C212.279 21.5634 212.915 21.7074 213.803 21.7074ZM213.515 7.55978C214.811 7.55978 215.987 7.69177 217.043 7.95577C218.123 8.21976 219.035 8.62775 219.779 9.17973C220.547 9.70772 221.135 10.3917 221.543 11.2317C221.951 12.0476 222.155 13.0196 222.155 14.1476V22.2113C222.155 22.8353 221.975 23.3513 221.615 23.7593C221.279 24.1433 220.871 24.4793 220.391 24.7673C218.831 25.7032 216.635 26.1712 213.803 26.1712C212.531 26.1712 211.379 26.0512 210.347 25.8112C209.339 25.5712 208.463 25.2113 207.719 24.7313C206.999 24.2513 206.435 23.6393 206.027 22.8953C205.643 22.1514 205.451 21.2874 205.451 20.3034C205.451 18.6475 205.943 17.3755 206.927 16.4875C207.911 15.5995 209.435 15.0476 211.499 14.8316L216.215 14.3276V14.0756C216.215 13.3796 215.903 12.8876 215.279 12.5996C214.679 12.2876 213.803 12.1316 212.651 12.1316C211.739 12.1316 210.851 12.2276 209.987 12.4196C209.123 12.6116 208.343 12.8516 207.647 13.1396C207.335 12.9236 207.071 12.5996 206.855 12.1676C206.639 11.7117 206.531 11.2437 206.531 10.7637C206.531 10.1397 206.675 9.64772 206.963 9.28773C207.275 8.90374 207.743 8.57975 208.367 8.31576C209.063 8.05176 209.879 7.85977 210.815 7.73977C211.775 7.61978 212.675 7.55978 213.515 7.55978Z" fill="#F58989"/>
<path d="M227.086 21.1314C226.822 20.5314 226.534 19.8594 226.222 19.1154C225.934 18.3715 225.622 17.5195 225.286 16.5595C224.974 15.5995 224.638 14.5076 224.278 13.2836C223.942 12.0356 223.582 10.6077 223.198 8.99974C223.534 8.66375 223.978 8.37575 224.53 8.13576C225.106 7.87177 225.73 7.73977 226.402 7.73977C227.242 7.73977 227.938 7.91977 228.49 8.27976C229.042 8.61575 229.449 9.26373 229.713 10.2237L232.557 20.1234H232.701C232.989 19.3074 233.265 18.4195 233.529 17.4595C233.817 16.4995 234.093 15.5155 234.357 14.5076C234.621 13.4756 234.861 12.4556 235.077 11.4477C235.317 10.4157 235.521 9.40772 235.689 8.42375C236.553 7.96777 237.501 7.73977 238.533 7.73977C239.373 7.73977 240.069 7.91977 240.621 8.27976C241.173 8.63975 241.449 9.26373 241.449 10.1517C241.449 10.7997 241.365 11.5557 241.197 12.4196C241.029 13.2596 240.801 14.1596 240.513 15.1196C240.249 16.0795 239.925 17.0755 239.541 18.1075C239.181 19.1154 238.797 20.1114 238.389 21.0954C237.981 22.0794 237.561 23.0153 237.129 23.9033C236.697 24.7673 236.277 25.5473 235.869 26.2432C235.197 27.4192 234.573 28.3792 233.997 29.1231C233.421 29.8671 232.869 30.4431 232.341 30.8511C231.813 31.2831 231.285 31.5711 230.757 31.7151C230.229 31.8831 229.677 31.9671 229.101 31.9671C228.094 31.9671 227.278 31.6671 226.654 31.0671C226.03 30.4671 225.658 29.6871 225.538 28.7272C226.306 28.1272 227.074 27.4552 227.842 26.7112C228.61 25.9912 229.305 25.2473 229.929 24.4793C229.521 24.3593 229.077 24.0833 228.598 23.6513C228.142 23.1953 227.638 22.3553 227.086 21.1314Z" fill="#F58989"/>
<path d="M249.712 4.71586C249.712 5.26784 249.7 6.07182 249.676 7.12779C249.652 8.15976 249.604 9.28773 249.532 10.5117C249.46 11.7117 249.364 12.9236 249.244 14.1476C249.124 15.3476 248.98 16.3915 248.812 17.2795C248.716 17.3515 248.572 17.4235 248.38 17.4955C248.188 17.5675 247.984 17.6275 247.768 17.6755C247.552 17.7235 247.336 17.7595 247.12 17.7835C246.904 17.8075 246.712 17.8195 246.544 17.8195C245.848 17.8195 245.26 17.7115 244.78 17.4955C244.324 17.2795 244.036 16.8595 243.916 16.2355C243.796 15.6835 243.688 14.8436 243.592 13.7156C243.52 12.5876 243.448 11.3637 243.376 10.0437C243.304 8.72374 243.244 7.41578 243.196 6.11982C243.172 4.82386 243.16 3.71989 243.16 2.80792C243.64 2.54392 244.18 2.33993 244.78 2.19594C245.404 2.02794 246.016 1.94394 246.616 1.94394C247.6 1.94394 248.356 2.17194 248.884 2.62792C249.436 3.08391 249.712 3.77989 249.712 4.71586ZM243.088 22.8593C243.088 21.8754 243.388 21.0714 243.988 20.4474C244.612 19.7994 245.464 19.4754 246.544 19.4754C247.624 19.4754 248.464 19.7994 249.064 20.4474C249.688 21.0714 250 21.8754 250 22.8593C250 23.8433 249.688 24.6593 249.064 25.3073C248.464 25.9312 247.624 26.2432 246.544 26.2432C245.464 26.2432 244.612 25.9312 243.988 25.3073C243.388 24.6593 243.088 23.8433 243.088 22.8593Z" fill="#F58989"/>
<rect x="1.03494" y="6.59387" width="1.12497" height="5.62484" rx="0.562483" fill="white"/>
<rect x="1.03494" y="13.3436" width="1.12497" height="1.12497" rx="0.562483" fill="white"/>
<rect x="28.0341" y="6.59387" width="1.12497" height="5.62484" rx="0.562483" fill="white"/>
<rect x="28.0341" y="13.3436" width="1.12497" height="1.12497" rx="0.562483" fill="white"/>
<rect x="46.0336" y="6.59387" width="1.12497" height="5.62484" rx="0.562483" fill="white"/>
<rect x="46.0336" y="13.3436" width="1.12497" height="1.12497" rx="0.562483" fill="white"/>
<rect x="66.283" y="6.59387" width="1.12497" height="5.62484" rx="0.562483" fill="white"/>
<rect x="66.283" y="13.3436" width="1.12497" height="1.12497" rx="0.562483" fill="white"/>
<rect x="87" y="7" width="1.12497" height="5.62484" rx="0.562483" fill="white"/>
<rect x="87" y="13.7498" width="1.12497" height="1.12497" rx="0.562483" fill="white"/>
<rect x="111.282" y="6.59387" width="1.12497" height="5.62484" rx="0.562483" fill="white"/>
<rect x="111.282" y="13.3436" width="1.12497" height="1.12497" rx="0.562483" fill="white"/>
<rect x="131.531" y="11.0938" width="1.12497" height="5.62484" rx="0.562483" fill="white"/>
<rect x="131.531" y="17.8435" width="1.12497" height="1.12497" rx="0.562483" fill="white"/>
<rect x="140.531" y="11.0938" width="1.12497" height="5.62484" rx="0.562483" fill="white"/>
<rect x="140.531" y="17.8435" width="1.12497" height="1.12497" rx="0.562483" fill="white"/>
<rect x="154.03" y="6.59387" width="1.12497" height="5.62484" rx="0.562483" fill="white"/>
<rect x="154.03" y="13.3436" width="1.12497" height="1.12497" rx="0.562483" fill="white"/>
<rect x="167.53" y="6.59387" width="1.12497" height="5.62484" rx="0.562483" fill="white"/>
<rect x="167.53" y="13.3436" width="1.12497" height="1.12497" rx="0.562483" fill="white"/>
<rect x="201.279" y="6.59387" width="1.12497" height="5.62484" rx="0.562483" fill="white"/>
<rect x="201.279" y="13.3436" width="1.12497" height="1.12497" rx="0.562483" fill="white"/>
<rect x="219.279" y="12.2186" width="1.12497" height="5.62484" rx="0.562483" fill="white"/>
<rect x="219.279" y="18.9685" width="1.12497" height="1.12497" rx="0.562483" fill="white"/>
<rect x="238.403" y="11.0938" width="1.12497" height="5.62484" rx="0.562483" fill="white"/>
<rect x="238.403" y="17.8435" width="1.12497" height="1.12497" rx="0.562483" fill="white"/>
<rect x="247.403" y="4.34387" width="1.12497" height="5.62484" rx="0.562483" fill="white"/>
<rect x="247.403" y="11.0938" width="1.12497" height="1.12497" rx="0.562483" fill="white"/>
</svg>
