<svg width="9" height="9" viewBox="0 0 9 9" fill="none" xmlns="http://www.w3.org/2000/svg">
<g clip-path="url(#clip0_624_3374)">
<path fill-rule="evenodd" clip-rule="evenodd" d="M3.62918 0.160767C2.99951 0.160767 2.38279 0.18301 1.78377 0.225648C0.989169 0.282208 0.345976 0.881872 0.30763 1.6527C0.261965 2.57064 0.23793 3.52326 0.23793 4.50005C0.23793 5.47685 0.261965 6.42946 0.30763 7.3474C0.345977 8.11825 0.989169 8.7179 1.78377 8.77447C2.38279 8.81709 2.99951 8.83934 3.62918 8.83934C4.25884 8.83934 4.87556 8.81709 5.47458 8.77447C6.26919 8.7179 6.91238 8.11825 6.9507 7.3474C6.95391 7.28337 6.89888 7.23207 6.83473 7.23219C6.67086 7.23239 6.50597 7.19677 6.35215 7.12394C5.95914 6.9379 5.70856 6.54196 5.70856 6.10716C5.70856 5.97403 5.60065 5.86612 5.46753 5.86612H3.46728C2.71282 5.86612 2.10121 5.25451 2.10121 4.50005C2.10121 3.74559 2.71282 3.13398 3.46728 3.13398H5.46754C5.60065 3.13398 5.70856 3.02607 5.70856 2.89296C5.70856 2.45813 5.95914 2.06224 6.35215 1.87617C6.50597 1.80333 6.67086 1.76775 6.83473 1.76795C6.89888 1.76803 6.95391 1.71675 6.9507 1.6527C6.91238 0.881872 6.26919 0.282208 5.47458 0.225648C4.87556 0.18301 4.25884 0.160767 3.62918 0.160767ZM6.69593 6.39766C6.58369 6.3445 6.51208 6.23139 6.51208 6.10715V5.14291H3.46722C3.11218 5.14291 2.82436 4.85509 2.82436 4.50005C2.82436 4.14501 3.11218 3.8572 3.46722 3.8572H6.51208V2.89296C6.51208 2.76872 6.58369 2.65561 6.69593 2.60245C6.80824 2.54928 6.94112 2.56559 7.03723 2.64432C7.75832 3.23516 8.12616 3.60273 8.69014 4.29748C8.78599 4.41553 8.78599 4.58458 8.69014 4.70263C8.12616 5.39739 7.75832 5.76495 7.03723 6.35579C6.94112 6.43454 6.80824 6.4508 6.69593 6.39766Z" fill="#872B2B"/>
</g>
<defs>
<clipPath id="clip0_624_3374">
<rect width="9" height="9" fill="white"/>
</clipPath>
</defs>
</svg>
