<svg width="334" height="85" viewBox="0 0 334 85" fill="none" xmlns="http://www.w3.org/2000/svg">
<path fill-rule="evenodd" clip-rule="evenodd" d="M69 77.9844C61.9733 82.4185 53.5523 85 44.5 85C19.9233 85 0 65.9721 0 42.5C0 19.0279 19.9233 0 44.5 0C53.5523 0 61.9733 2.58145 69 7.01561C76.0267 2.58145 84.4477 0 93.5 0C102.552 0 110.973 2.58145 118 7.01561C125.027 2.58145 133.448 0 142.5 0C151.552 0 159.973 2.58145 167 7.01561C174.027 2.58145 182.448 0 191.5 0C200.552 0 208.973 2.58145 216 7.01561C223.027 2.58145 231.448 0 240.5 0C249.552 0 257.973 2.58146 265 7.01562C272.027 2.58146 280.448 0 289.5 0C314.077 0 334 19.0279 334 42.5C334 65.9721 314.077 85 289.5 85C280.448 85 272.027 82.4185 265 77.9844C257.973 82.4185 249.552 85 240.5 85C231.448 85 223.027 82.4185 216 77.9844C208.973 82.4185 200.552 85 191.5 85C182.448 85 174.027 82.4185 167 77.9844C159.973 82.4185 151.552 85 142.5 85C133.448 85 125.027 82.4185 118 77.9844C110.973 82.4185 102.552 85 93.5 85C84.4477 85 76.0267 82.4185 69 77.9844Z" fill="white" fill-opacity="0.85"/>
</svg>
