<svg width="40" height="40" viewBox="0 0 40 40" fill="none" xmlns="http://www.w3.org/2000/svg">
<path fill-rule="evenodd" clip-rule="evenodd" d="M20 11C15.0294 11 11 15.0294 11 20C11 24.9706 15.0294 29 20 29C24.9706 29 29 24.9706 29 20C29 15.0294 24.9706 11 20 11ZM20 23.375C20.466 23.375 20.8438 23.7528 20.8438 24.2188V24.23C20.8438 24.696 20.466 25.0738 20 25.0738C19.534 25.0738 19.1562 24.696 19.1562 24.23V24.2188C19.1562 23.7528 19.534 23.375 20 23.375ZM20.6584 15.0024C20.0037 14.8721 19.3251 14.939 18.7084 15.1944C18.0917 15.4499 17.5646 15.8824 17.1938 16.4375C16.8229 16.9925 16.625 17.645 16.625 18.3125C16.625 18.7785 17.0028 19.1562 17.4688 19.1562C17.9347 19.1562 18.3125 18.7785 18.3125 18.3125C18.3125 17.9787 18.4115 17.6525 18.5969 17.375C18.7823 17.0975 19.0459 16.8812 19.3542 16.7535C19.6626 16.6257 20.0019 16.5923 20.3292 16.6574C20.6566 16.7225 20.9572 16.8833 21.1932 17.1193C21.4292 17.3553 21.59 17.6559 21.6551 17.9833C21.7202 18.3106 21.6868 18.6499 21.559 18.9583C21.4313 19.2666 21.215 19.5302 20.9375 19.7156C20.66 19.901 20.3338 20 20 20C19.7762 20 19.5616 20.0889 19.4034 20.2471C19.2451 20.4054 19.1562 20.62 19.1562 20.8438L19.1562 21.4063C19.1563 21.8722 19.534 22.25 20 22.25C20.4046 22.25 20.7427 21.9652 20.8247 21.5852C21.197 21.4914 21.5525 21.3342 21.875 21.1187C22.4301 20.7479 22.8626 20.2208 23.1181 19.6041C23.3735 18.9874 23.4404 18.3088 23.3101 17.6541C23.1799 16.9994 22.8585 16.398 22.3865 15.926C21.9145 15.454 21.3131 15.1326 20.6584 15.0024Z" fill="black"/>
<path d="M18.7084 15.1944C19.3251 14.939 20.0037 14.8721 20.6584 15.0024C21.3131 15.1326 21.9145 15.454 22.3865 15.926C22.8585 16.398 23.1799 16.9994 23.3101 17.6541C23.4404 18.3088 23.3735 18.9874 23.1181 19.6041C22.8626 20.2208 22.4301 20.7479 21.875 21.1187C21.5525 21.3342 21.197 21.4914 20.8247 21.5852C20.7427 21.9652 20.4046 22.25 20 22.25C19.534 22.25 19.1563 21.8722 19.1562 21.4063L19.1562 20.8438C19.1562 20.62 19.2451 20.4054 19.4034 20.2471C19.5616 20.0889 19.7762 20 20 20C20.3338 20 20.66 19.901 20.9375 19.7156C21.215 19.5302 21.4313 19.2666 21.559 18.9583C21.6868 18.6499 21.7202 18.3106 21.6551 17.9833C21.59 17.6559 21.4292 17.3553 21.1932 17.1193C20.9572 16.8833 20.6566 16.7225 20.3292 16.6574C20.0019 16.5923 19.6626 16.6257 19.3542 16.7535C19.0459 16.8812 18.7823 17.0975 18.5969 17.375C18.4115 17.6525 18.3125 17.9787 18.3125 18.3125C18.3125 18.7785 17.9347 19.1562 17.4688 19.1562C17.0028 19.1562 16.625 18.7785 16.625 18.3125C16.625 17.645 16.8229 16.9925 17.1938 16.4375C17.5646 15.8824 18.0917 15.4499 18.7084 15.1944Z" fill="white"/>
<path d="M20.8438 24.2188C20.8438 23.7528 20.466 23.375 20 23.375C19.534 23.375 19.1562 23.7528 19.1562 24.2188V24.23C19.1562 24.696 19.534 25.0738 20 25.0738C20.466 25.0738 20.8438 24.696 20.8438 24.23V24.2188Z" fill="white"/>
</svg>
