<svg width="105" height="15" viewBox="0 0 105 15" fill="none" xmlns="http://www.w3.org/2000/svg">
<path d="M4.312 10.612H3.976C3.822 10.612 3.752 10.528 3.752 10.36V8.302L4.298 8.26C4.34 8.246 4.368 8.246 4.396 8.246C4.55 8.246 4.564 8.344 4.564 8.498V10.332C4.564 10.43 4.536 10.612 4.312 10.612ZM7.35 10.612H7C6.846 10.612 6.776 10.528 6.776 10.36V8.302L7.322 8.26H7.378C7.546 8.26 7.588 8.344 7.588 8.498V10.332C7.588 10.43 7.574 10.612 7.35 10.612ZM10.822 0C11.62 0 12.978 0.336 13.804 1.47C13.846 0.812 14.168 0.574 14.546 0.574C14.812 0.574 15.106 0.714 15.344 0.924C15.638 1.204 16.03 1.61 16.464 1.61C16.73 1.61 17.514 0.868 19.124 0.868C22.5045 0.868 24.1288 3.50848 24.3024 6.86281C24.3128 7.06476 24.318 7.2693 24.318 7.476C24.318 7.79156 24.3137 8.10713 24.3024 8.41993C24.1923 11.4516 23.4182 14.224 19.446 14.224C16.912 14.224 15.778 13.258 14.812 11.368V12.74C14.812 13.524 14.196 14.14 13.412 14.14H11.844C11.55 14.14 11.27 14.042 11.004 13.832C10.766 14.056 10.402 14.14 9.968 14.14H3.976C2.058 14.14 0.504 13.748 0.504 11.13V4.088C0.504 3.122 0.378 2.674 0.224 2.436C0.07 2.128 0 1.89 0 1.736V1.708C0.042 1.148 0.994 0.994 1.47 0.994C2.086 0.994 2.702 1.12 3.248 1.442C3.486 1.106 4.074 0.938 4.522 0.938C5.25 0.952 5.852 1.106 6.342 1.386C6.622 1.106 7.126 0.938 7.56 0.938C8.218 0.938 8.932 1.12 9.506 1.554C9.282 1.232 9.142 0.994 9.142 0.812C9.142 0.742 9.086 0.363999 10.08 0.0979996C10.29 0.0419995 10.556 0 10.822 0ZM21.896 7.182C21.924 7.224 21.938 7.294 21.938 7.378C21.938 7.532 21.882 7.84 21.7 8.316C21.518 8.792 21.252 9.254 21.042 9.31C21.028 9.324 21 9.324 20.972 9.324C20.552 9.324 19.628 8.092 19.474 8.092C19.46 8.092 19.46 8.092 19.446 8.106C19.418 8.12 19.404 8.176 19.404 8.274C19.404 8.372 19.488 9.086 19.488 9.422C19.488 9.646 19.502 10.038 19.278 10.136C19.208 10.164 19.138 10.178 19.04 10.178C18.858 10.178 18.494 10.122 17.99 9.912C17.486 9.702 17.024 9.422 16.926 9.198C16.912 9.17 16.912 9.142 16.912 9.1C16.912 8.918 17.164 8.624 17.514 8.302C17.85 7.98 18.186 7.714 18.186 7.602V7.588C18.172 7.546 18.116 7.532 18.018 7.532C17.962 7.532 17.276 7.602 16.982 7.602C16.716 7.602 16.338 7.616 16.184 7.392C16.17 7.35 16.156 7.28 16.156 7.21C16.156 7.056 16.198 6.734 16.408 6.244C16.618 5.754 16.842 5.306 17.052 5.264C17.08 5.25 17.108 5.25 17.122 5.25C17.556 5.25 18.452 6.468 18.606 6.468C18.62 6.468 18.62 6.468 18.634 6.454C18.662 6.44 18.676 6.384 18.676 6.286C18.676 6.202 18.592 5.474 18.592 5.152C18.592 4.928 18.578 4.536 18.802 4.438C18.872 4.41 18.956 4.396 19.054 4.396C19.236 4.396 19.6 4.438 20.104 4.634C20.594 4.83 21.056 5.138 21.168 5.376C21.182 5.404 21.182 5.432 21.182 5.46C21.182 5.628 20.972 5.936 20.58 6.272C20.23 6.594 19.894 6.86 19.894 6.958V6.972C19.908 7.014 19.964 7.028 20.062 7.028C20.118 7.028 20.79 6.972 21.084 6.972C21.35 6.972 21.742 6.958 21.896 7.182ZM3.416 12.6H9.268C9.646 12.6 9.842 12.474 9.842 12.04V3.892C9.842 2.436 8.582 1.778 7.56 1.778C7.448 1.778 7.35 1.792 7.266 1.82C7.154 1.862 7.168 1.876 7.168 1.89C7.168 1.904 7.182 1.932 7.196 1.974C7.378 2.296 7.574 2.87 7.574 4.032V6.202L6.79 6.244V3.878C6.79 2.548 5.964 1.82 4.522 1.778C4.396 1.778 4.298 1.792 4.214 1.82C4.102 1.862 4.116 1.876 4.116 1.89C4.116 1.904 4.13 1.932 4.144 1.974C4.494 2.576 4.55 3.304 4.55 3.976V6.202L3.752 6.244V3.948C3.752 2.492 2.604 1.834 1.47 1.834C1.358 1.834 1.26 1.848 1.176 1.876C1.064 1.918 1.078 1.932 1.078 1.946C1.078 1.96 1.092 1.988 1.106 2.03C1.288 2.352 1.484 2.926 1.484 4.088V11.13C1.484 11.802 1.89 12.6 3.416 12.6ZM13.272 5.992V2.968C13.272 1.288 11.662 0.84 10.822 0.84C10.626 0.84 10.444 0.868 10.29 0.91C10.206 0.938 10.164 0.966 10.164 0.98C10.164 0.994 10.178 1.008 10.234 1.106C10.346 1.316 10.584 1.904 10.584 3.094V12.04C10.584 12.39 10.906 12.6 11.144 12.6H12.712C13.034 12.6 13.272 12.362 13.272 12.04V8.484H14.014C14.336 8.484 14.574 8.232 14.574 7.91V6.552C14.574 6.23 14.336 5.992 14.014 5.992H13.272ZM22.778 6.776C22.778 3.416 21.476 1.708 19.124 1.708C18.242 1.708 17.668 2.002 17.01 2.296C16.912 2.338 16.674 2.45 16.464 2.45C15.68 2.45 15.134 1.904 14.756 1.526C14.714 1.484 14.644 1.47 14.644 1.568C14.644 1.988 14.672 3.374 15.498 4.242C15.176 5.236 15.148 6.258 15.148 7.21C15.148 7.42 15.148 7.644 15.162 7.868C15.232 10.78 15.834 12.684 18.746 12.684C22.372 12.684 22.778 9.73 22.778 6.776Z" fill="#747474"/>
<path d="M27.1304 10.612H26.7944C26.6404 10.612 26.5704 10.528 26.5704 10.36V8.302L27.1164 8.26C27.1584 8.246 27.1864 8.246 27.2144 8.246C27.3684 8.246 27.3824 8.344 27.3824 8.498V10.332C27.3824 10.43 27.3544 10.612 27.1304 10.612ZM30.1684 10.612H29.8184C29.6644 10.612 29.5944 10.528 29.5944 10.36V8.302L30.1404 8.26H30.1964C30.3644 8.26 30.4064 8.344 30.4064 8.498V10.332C30.4064 10.43 30.3924 10.612 30.1684 10.612ZM36.2304 14.14H34.6624C34.3684 14.14 34.0884 14.042 33.8224 13.832C33.5844 14.056 33.2204 14.14 32.7864 14.14H26.7944C24.8764 14.14 23.3224 13.748 23.3224 11.13V4.088C23.3224 3.122 23.1964 2.674 23.0424 2.436C22.8884 2.128 22.8184 1.89 22.8184 1.736V1.708C22.8604 1.148 23.8124 0.994 24.2884 0.994C24.9044 0.994 25.5204 1.12 26.0664 1.442C26.3044 1.106 26.8924 0.938 27.3404 0.938C28.0684 0.952 28.6704 1.106 29.1604 1.386C29.4404 1.106 29.9444 0.938 30.3784 0.938C31.0364 0.938 31.7504 1.12 32.3244 1.554C32.1004 1.232 31.9604 0.994 31.9604 0.812C31.9604 0.742 31.9044 0.363999 32.8984 0.0979996C33.1084 0.0419995 33.3744 0 33.6404 0C35.9504 0 37.5884 1.582 37.6304 3.668V5.404C38.7504 5.586 38.9324 6.272 38.9324 7.168V8.61C38.9324 9.324 38.3444 9.982 37.6304 10.024V12.74C37.6304 13.524 37.0144 14.14 36.2304 14.14ZM26.2344 12.6H32.0864C32.4644 12.6 32.6604 12.474 32.6604 12.04V3.892C32.6604 2.436 31.4004 1.778 30.3784 1.778C30.2664 1.778 30.1684 1.792 30.0844 1.82C29.9724 1.862 29.9864 1.876 29.9864 1.89C29.9864 1.904 30.0004 1.932 30.0144 1.974C30.1964 2.296 30.3924 2.87 30.3924 4.032V6.202L29.6084 6.244V3.878C29.6084 2.548 28.7824 1.82 27.3404 1.778C27.2144 1.778 27.1164 1.792 27.0324 1.82C26.9204 1.862 26.9344 1.876 26.9344 1.89C26.9344 1.904 26.9484 1.932 26.9624 1.974C27.3124 2.576 27.3684 3.304 27.3684 3.976V6.202L26.5704 6.244V3.948C26.5704 2.492 25.4224 1.834 24.2884 1.834C24.1764 1.834 24.0784 1.848 23.9944 1.876C23.8824 1.918 23.8964 1.932 23.8964 1.946C23.8964 1.96 23.9104 1.988 23.9244 2.03C24.1064 2.352 24.3024 2.926 24.3024 4.088V6.86281V8.41993V11.13C24.3024 11.802 24.7084 12.6 26.2344 12.6ZM36.0904 5.992V2.968C36.0904 1.288 34.4804 0.84 33.6404 0.84C33.4444 0.84 33.2624 0.868 33.1084 0.91C33.0244 0.938 32.9824 0.966 32.9824 0.98C32.9824 0.994 32.9964 1.008 33.0524 1.106C33.1644 1.316 33.4024 1.904 33.4024 3.094V12.04C33.4024 12.39 33.7244 12.6 33.9624 12.6H35.5304C35.8524 12.6 36.0904 12.362 36.0904 12.04V8.484H36.8324C37.1544 8.484 37.3924 8.232 37.3924 7.91V6.552C37.3924 6.23 37.1544 5.992 36.8324 5.992H36.0904Z" fill="#747474"/>
<path d="M50.9016 0C53.6876 0 54.7096 1.582 54.7516 3.668V12.74C54.7516 13.524 54.1356 14.14 53.3516 14.14H51.9236C51.6016 14.14 51.2656 14.014 50.9856 13.748C50.7196 13.986 50.3976 14.14 50.0196 14.14H48.5916C48.2136 14.14 47.7516 13.93 47.4716 13.552C46.4076 14 44.4476 14.294 42.8376 14.294C40.5276 14.294 38.3016 13.636 38.3016 10.724V7.168C38.1756 6.622 38.1896 6.216 38.1896 6.104C38.1896 5.278 38.3996 4.984 38.7216 4.942C37.8956 4.158 37.6856 2.912 37.6856 1.568C37.6856 0.966 37.8956 0.42 38.3996 0.42C38.6656 0.42 39.0016 0.574 39.3376 1.022C39.4356 1.162 39.8976 1.638 40.6396 1.638C41.2416 1.638 42.0396 1.526 42.8376 1.428C43.6776 1.316 44.5036 1.218 45.0076 1.218C45.3996 1.218 45.7216 1.288 45.9876 1.4C45.8756 1.19 45.8896 1.078 45.8896 1.064C45.8896 0.812 46.0996 0.574 46.8276 0.378C47.0376 0.322 47.3036 0.28 47.5696 0.28C48.0596 0.28 48.6616 0.392 49.2356 0.686C49.2916 0.462 49.5576 0.266 50.1596 0.0979996C50.3696 0.0419995 50.6356 0 50.9016 0ZM39.1696 6.16C39.1696 6.202 39.1696 6.608 39.2816 7.07V10.724C39.2816 11.83 39.7016 12.432 40.6956 12.642C42.1516 12.936 44.9516 12.6 46.2956 12.082C46.5896 11.956 46.6456 11.732 46.6456 11.55V9.8C46.6456 9.562 46.4916 9.52 46.3796 9.52C46.3376 9.52 46.2956 9.52 46.2536 9.534C44.7556 9.982 43.7616 10.164 42.1796 10.206C41.9976 10.206 41.9136 10.122 41.9136 9.968V8.554C43.4256 8.554 44.8536 8.358 45.2456 8.288C45.6516 8.19 45.8056 8.05 45.8056 7.728V3.388C45.8056 2.814 45.6096 2.058 44.5876 2.058C43.5516 2.058 41.8156 2.478 40.6396 2.478C39.5616 2.478 38.8196 1.75 38.6796 1.54C38.6376 1.498 38.6096 1.47 38.5816 1.47C38.5396 1.484 38.5256 1.526 38.5256 1.568C38.5256 2.744 38.8336 3.794 39.5616 4.41C39.9956 4.76 40.4016 4.9 40.9756 4.9C41.4096 4.9 42.6556 4.774 42.8516 4.732C42.8936 4.718 42.9216 4.718 42.9636 4.718C43.0756 4.718 43.2156 4.746 43.2156 5.012V5.852C43.2156 6.02 43.1176 6.118 42.9076 6.132C42.5996 6.174 41.2976 6.314 40.5976 6.314C40.0516 6.314 39.5336 6.09 39.3236 5.992C39.2956 5.978 39.2676 5.964 39.2396 5.964C39.2256 5.964 39.1836 5.936 39.1696 6.16ZM47.5696 1.12C47.3736 1.12 47.1916 1.148 47.0376 1.19C46.9536 1.218 46.9116 1.246 46.9116 1.26C46.9116 1.274 46.9256 1.288 46.9816 1.386C47.0936 1.596 47.3316 2.184 47.3316 3.374V5.712H46.7156C46.3936 5.712 46.1556 5.95 46.1556 6.272V7.63C46.1556 7.952 46.3936 8.204 46.7156 8.204H47.3316V12.04C47.3316 12.39 47.6536 12.6 47.8916 12.6H49.3196C49.6416 12.6 49.8796 12.362 49.8796 12.04V3.248C49.8796 1.568 48.4096 1.12 47.5696 1.12ZM50.9016 0.84C50.7056 0.84 50.5236 0.868 50.3696 0.91C50.2856 0.938 50.2436 0.966 50.2436 0.98C50.2436 0.994 50.2576 1.008 50.3136 1.106C50.4256 1.316 50.6636 1.904 50.6636 3.094V12.04C50.6636 12.39 50.9856 12.6 51.2236 12.6H52.6516C52.9736 12.6 53.2116 12.362 53.2116 12.04V2.968C53.2116 1.288 51.7416 0.84 50.9016 0.84Z" fill="#747474"/>
<path d="M65.7578 5.782V12.754C65.7578 13.538 65.1418 14.154 64.3578 14.154H62.2158C61.2638 14.154 60.6898 13.664 60.6898 12.614V6.258C58.8278 5.698 57.4838 3.822 57.4838 1.526C57.4838 0.924 57.7638 0.42 58.2258 0.42C58.4918 0.42 58.7858 0.574 59.1358 0.966C59.2338 1.106 59.7798 1.624 60.6198 1.624H60.7878C61.5158 1.624 62.2158 1.498 62.9438 1.344C63.6578 1.19 64.3998 1.022 65.1978 1.022C67.4938 1.022 68.4878 2.254 68.4878 3.892C68.4878 4.382 68.3758 4.928 68.0538 5.586C67.9418 5.768 67.7738 6.146 67.1998 6.146C66.9058 6.146 66.6538 6.02 66.4578 5.782H65.7578ZM64.2178 12.054V4.368C64.6658 4.27 65.0438 4.228 65.3658 4.228C65.7998 4.228 66.1498 4.242 66.3878 4.508C66.4298 4.578 66.4718 4.606 66.4998 4.606C66.5558 4.606 66.5838 4.55 66.5978 4.508C67.0598 3.5 67.0458 2.8 66.6678 2.366C66.2758 1.932 65.6598 1.862 65.1698 1.862C64.9878 1.862 64.8058 1.876 64.5958 1.904C63.1258 2.086 62.1738 2.464 60.6058 2.464C59.4298 2.464 58.6318 1.708 58.4918 1.498C58.4498 1.456 58.4218 1.428 58.3938 1.428C58.3798 1.428 58.3238 1.428 58.3238 1.526C58.3238 2.702 58.6458 3.738 59.4298 4.354C60.0458 4.844 60.6338 4.844 61.0678 4.844C61.2218 4.844 61.3758 4.83 61.5298 4.816V12.054C61.5298 12.404 61.8518 12.614 62.0898 12.614H63.6578C63.9798 12.614 64.2178 12.376 64.2178 12.054Z" fill="#747474"/>
<path d="M75.9053 8.33C76.3673 8.33 76.3813 8.12 76.3813 7.854C76.3813 7.812 76.3813 7.756 76.3673 7.686L76.2833 6.636C76.2413 6.202 76.1713 6.076 75.7093 6.076C74.3653 6.076 72.9233 6.174 71.5233 6.44V4.788C71.8033 4.746 72.0973 4.704 72.3773 4.648C73.3153 4.494 74.5893 4.228 75.1773 4.228C75.5833 4.228 75.9193 4.242 76.1433 4.508C76.1853 4.578 76.2273 4.606 76.2413 4.606C76.2973 4.606 76.3253 4.55 76.3393 4.508C76.7733 3.5 76.7453 2.786 76.3953 2.352C76.0453 1.918 75.4433 1.848 74.9953 1.848C74.8273 1.848 74.6453 1.862 74.4493 1.89C73.0773 2.072 71.8873 2.45 70.4173 2.45C69.3113 2.45 68.5693 1.68 68.4293 1.484C68.3873 1.442 68.3593 1.414 68.3313 1.414L68.3033 1.428C68.2893 1.442 68.2753 1.47 68.2753 1.512C68.2753 2.394 68.4433 3.192 68.8353 3.808V10.71C68.8353 11.816 69.2553 12.474 70.2493 12.628C70.7953 12.726 71.2993 12.712 71.5653 12.712C72.2373 12.712 73.5393 12.642 74.6873 12.474C75.4153 12.362 76.0593 12.236 76.4933 12.082C76.7873 11.984 76.8433 11.732 76.8433 11.55V9.856C76.8433 9.618 76.7033 9.562 76.5913 9.562C76.5493 9.562 76.4933 9.576 76.4513 9.59C75.2193 9.968 73.6793 10.262 71.7893 10.262C71.6073 10.262 71.5233 10.178 71.5233 10.024V8.722C72.9373 8.456 74.6033 8.33 75.9053 8.33ZM75.0093 1.008C77.3613 1.008 78.2013 2.282 78.2013 3.892C78.2013 4.494 77.9493 5.712 77.3333 6.076C77.6833 6.244 77.7673 6.608 77.8233 7.266L77.9073 8.33C77.9213 8.484 77.9213 8.61 77.9213 8.736C77.9213 8.918 77.9353 9.212 77.7673 9.478C78.1453 9.632 78.3833 9.996 78.3833 10.556V12.1183V12.25C78.3833 12.326 78.379 12.4081 78.3677 12.4932C78.3144 12.8936 78.1059 13.3606 77.4593 13.58C76.3953 13.916 74.0853 14.252 72.2793 14.252C71.7613 14.252 71.2713 14.224 70.8233 14.154C69.1153 13.86 67.9953 13.244 67.9953 11.214V4.046C67.6033 3.318 67.4353 2.464 67.4353 1.512C67.4353 1.022 67.6593 0.574 67.8833 0.448C68.0093 0.378 68.1073 0.35 68.2053 0.35C68.3733 0.35 68.6533 0.363999 69.0873 0.966C69.3673 1.358 69.9273 1.61 70.4313 1.61H70.5853C71.3273 1.61 72.0693 1.47 72.8953 1.302C73.3573 1.218 73.8333 1.134 74.3233 1.064C74.5893 1.022 74.7993 1.008 75.0093 1.008Z" fill="#747474"/>
<path d="M85.4397 11.088L85.7477 12.166C85.8457 12.544 86.0277 12.614 86.3777 12.614H88.0437C88.5337 12.614 88.4777 12.418 88.4777 12.32C88.4777 12.236 88.4637 12.138 88.4217 12.026L85.3837 2.352C85.2857 2.016 85.1177 1.848 84.7117 1.848H82.6257C82.2197 1.848 82.0517 2.016 81.9537 2.352L79.3917 10.388C79.0168 11.5478 78.6615 11.9332 78.3833 12.1183C78.329 12.1544 78.2777 12.1829 78.2297 12.208C78.1317 12.264 78.1177 12.32 78.1177 12.334C78.1177 12.376 78.1597 12.404 78.2437 12.446C78.2847 12.4627 78.326 12.4784 78.3677 12.4932C78.7099 12.6144 79.0732 12.67 79.4477 12.67C80.4277 12.67 81.4357 12.32 81.8137 11.088H85.4397ZM88.7437 14.154H86.7697C85.6917 14.154 85.3837 13.496 85.0057 12.628H83.0877C82.4577 13.79 81.2537 14.21 80.1477 14.21C78.5937 14.21 77.0677 13.384 77.0257 12.348V12.32C77.0257 11.998 77.3757 11.718 77.8097 11.48C77.9917 11.368 78.2577 11.214 78.5937 10.15L81.1557 2.1C81.3797 1.386 81.7157 1.008 82.6257 1.008H84.9077C86.1257 1.008 86.5877 1.792 86.8817 2.8L89.9197 12.474C90.0737 12.978 90.0737 13.202 90.0737 13.3C90.0737 13.734 89.8637 14.154 88.7437 14.154ZM82.3737 9.142L83.6617 4.704L84.8937 9.142H82.3737Z" fill="#747474"/>
<path d="M103.622 3.052L104.168 12.796V12.908C104.168 13.804 103.692 14.154 102.796 14.154H101.2C100.122 14.154 99.7295 13.608 99.3515 13.006C99.1835 13.664 98.8615 14 98.0215 14H96.6215C95.4875 14 95.0815 13.342 94.7875 12.782C94.1855 14.042 92.9956 14.294 91.9875 14.294C90.6575 14.294 89.0195 13.552 88.9775 12.488V12.46C88.9775 12.11 89.2995 11.788 89.6915 11.564C89.8455 11.494 90.0975 11.312 90.1675 10.164L90.5175 3.85V3.626C90.5175 3.416 90.5035 3.192 90.4475 2.968C90.3915 2.744 90.2795 2.59 90.1675 2.38C90.0555 2.17 89.9715 2.002 89.9715 1.834V1.806C89.9715 1.526 90.1815 1.302 90.8115 1.12C91.0355 1.05 91.3016 1.022 91.5816 1.008H91.8755C94.5636 1.008 96.2156 1.904 96.7756 4.2L96.9855 5.068L97.8955 2.142C98.0915 1.526 98.3575 1.148 99.2255 1.148H101.816C103.328 1.148 103.552 1.988 103.622 3.052ZM102.628 12.124L102.082 2.394C102.068 2.128 101.9 1.988 101.55 1.988H99.2255C98.8895 1.988 98.7635 2.128 98.6936 2.394L96.6075 9.114L95.2635 3.696C94.8576 1.974 93.4576 1.848 91.5816 1.848C91.3856 1.848 91.2035 1.876 91.0495 1.918C90.9795 1.946 90.9375 1.974 90.9375 1.988C90.9375 2.002 90.9375 2.016 90.9935 2.114C91.0495 2.226 91.1615 2.366 91.2455 2.632C91.3295 2.912 91.3715 3.234 91.3715 3.556C91.3715 3.654 91.3715 3.766 91.3575 3.892L91.0075 10.206C90.9375 11.802 90.4055 12.152 90.1115 12.292C90.0135 12.348 89.9995 12.404 89.9995 12.418C89.9995 12.46 90.0415 12.488 90.1255 12.53C90.5035 12.698 90.8815 12.754 91.2875 12.754C92.2815 12.754 93.5555 12.418 93.5975 10.304L93.6815 5.656L95.3895 12.054C95.4595 12.32 95.5855 12.46 95.9215 12.46H97.3215C97.6575 12.46 97.7835 12.32 97.8535 12.054L99.8275 5.46L99.9675 12.152C99.9675 12.488 100.164 12.614 100.5 12.614H102.096C102.432 12.614 102.628 12.502 102.628 12.166V12.124Z" fill="#747474"/>
<path fill-rule="evenodd" clip-rule="evenodd" d="M3.416 12.6H9.268C9.646 12.6 9.842 12.474 9.842 12.04V3.892C9.842 2.436 8.582 1.778 7.56 1.778C7.448 1.778 7.35 1.792 7.266 1.82C7.154 1.862 7.168 1.876 7.168 1.89C7.168 1.904 7.182 1.932 7.196 1.974C7.378 2.296 7.574 2.87 7.574 4.032V6.202L6.79 6.244V3.878C6.79 2.548 5.964 1.82 4.522 1.778C4.396 1.778 4.298 1.792 4.214 1.82C4.102 1.862 4.116 1.876 4.116 1.89C4.116 1.904 4.13 1.932 4.144 1.974C4.494 2.576 4.55 3.304 4.55 3.976V6.202L3.752 6.244V3.948C3.752 2.492 2.604 1.834 1.47 1.834C1.358 1.834 1.26 1.848 1.176 1.876C1.064 1.918 1.078 1.932 1.078 1.946C1.078 1.96 1.092 1.988 1.106 2.03C1.288 2.352 1.484 2.926 1.484 4.088V11.13C1.484 11.802 1.89 12.6 3.416 12.6ZM3.976 10.612H4.312C4.536 10.612 4.564 10.43 4.564 10.332V8.498C4.564 8.344 4.55 8.246 4.396 8.246C4.368 8.246 4.34 8.246 4.298 8.26L3.752 8.302V10.36C3.752 10.528 3.822 10.612 3.976 10.612ZM7 10.612H7.35C7.574 10.612 7.588 10.43 7.588 10.332V8.498C7.588 8.344 7.546 8.26 7.378 8.26H7.322L6.776 8.302V10.36C6.776 10.528 6.846 10.612 7 10.612Z" fill="white"/>
<path d="M13.272 5.992V2.968C13.272 1.288 11.662 0.84 10.822 0.84C10.626 0.84 10.444 0.868 10.29 0.91C10.206 0.938 10.164 0.966 10.164 0.98C10.164 0.994 10.178 1.008 10.234 1.106C10.346 1.316 10.584 1.904 10.584 3.094V12.04C10.584 12.39 10.906 12.6 11.144 12.6H12.712C13.034 12.6 13.272 12.362 13.272 12.04V8.484H14.014C14.336 8.484 14.574 8.232 14.574 7.91V6.552C14.574 6.23 14.336 5.992 14.014 5.992H13.272Z" fill="white"/>
<path fill-rule="evenodd" clip-rule="evenodd" d="M22.778 6.776C22.778 3.416 21.476 1.708 19.124 1.708C18.242 1.708 17.668 2.002 17.01 2.296C16.912 2.338 16.674 2.45 16.464 2.45C15.68 2.45 15.134 1.904 14.756 1.526C14.714 1.484 14.644 1.47 14.644 1.568C14.644 1.988 14.672 3.374 15.498 4.242C15.176 5.236 15.148 6.258 15.148 7.21C15.148 7.42 15.148 7.644 15.162 7.868C15.232 10.78 15.834 12.684 18.746 12.684C22.372 12.684 22.778 9.73 22.778 6.776ZM21.938 7.378C21.938 7.294 21.924 7.224 21.896 7.182C21.742 6.958 21.35 6.972 21.084 6.972C20.79 6.972 20.118 7.028 20.062 7.028C19.964 7.028 19.908 7.014 19.894 6.972V6.958C19.894 6.86 20.23 6.594 20.58 6.272C20.972 5.936 21.182 5.628 21.182 5.46C21.182 5.432 21.182 5.404 21.168 5.376C21.056 5.138 20.594 4.83 20.104 4.634C19.6 4.438 19.236 4.396 19.054 4.396C18.956 4.396 18.872 4.41 18.802 4.438C18.578 4.536 18.592 4.928 18.592 5.152C18.592 5.474 18.676 6.202 18.676 6.286C18.676 6.384 18.662 6.44 18.634 6.454C18.62 6.468 18.62 6.468 18.606 6.468C18.452 6.468 17.556 5.25 17.122 5.25C17.108 5.25 17.08 5.25 17.052 5.264C16.842 5.306 16.618 5.754 16.408 6.244C16.198 6.734 16.156 7.056 16.156 7.21C16.156 7.28 16.17 7.35 16.184 7.392C16.338 7.616 16.716 7.602 16.982 7.602C17.276 7.602 17.962 7.532 18.018 7.532C18.116 7.532 18.172 7.546 18.186 7.588V7.602C18.186 7.714 17.85 7.98 17.514 8.302C17.164 8.624 16.912 8.918 16.912 9.1C16.912 9.142 16.912 9.17 16.926 9.198C17.024 9.422 17.486 9.702 17.99 9.912C18.494 10.122 18.858 10.178 19.04 10.178C19.138 10.178 19.208 10.164 19.278 10.136C19.502 10.038 19.488 9.646 19.488 9.422C19.488 9.086 19.404 8.372 19.404 8.274C19.404 8.176 19.418 8.12 19.446 8.106C19.46 8.092 19.46 8.092 19.474 8.092C19.628 8.092 20.552 9.324 20.972 9.324C21 9.324 21.028 9.324 21.042 9.31C21.252 9.254 21.518 8.792 21.7 8.316C21.882 7.84 21.938 7.532 21.938 7.378Z" fill="white"/>
<path fill-rule="evenodd" clip-rule="evenodd" d="M24.3024 6.86281C24.3128 7.06476 24.318 7.2693 24.318 7.476C24.318 7.79156 24.3137 8.10713 24.3024 8.41993V11.13C24.3024 11.802 24.7084 12.6 26.2344 12.6H32.0864C32.4644 12.6 32.6604 12.474 32.6604 12.04V3.892C32.6604 2.436 31.4004 1.778 30.3784 1.778C30.2664 1.778 30.1684 1.792 30.0844 1.82C29.9724 1.862 29.9864 1.876 29.9864 1.89C29.9864 1.904 30.0004 1.932 30.0144 1.974C30.1964 2.296 30.3924 2.87 30.3924 4.032V6.202L29.6084 6.244V3.878C29.6084 2.548 28.7824 1.82 27.3404 1.778C27.2144 1.778 27.1164 1.792 27.0324 1.82C26.9204 1.862 26.9344 1.876 26.9344 1.89C26.9344 1.904 26.9484 1.932 26.9624 1.974C27.3124 2.576 27.3684 3.304 27.3684 3.976V6.202L26.5704 6.244V3.948C26.5704 2.492 25.4224 1.834 24.2884 1.834C24.1764 1.834 24.0784 1.848 23.9944 1.876C23.8824 1.918 23.8964 1.932 23.8964 1.946C23.8964 1.96 23.9104 1.988 23.9244 2.03C24.1064 2.352 24.3024 2.926 24.3024 4.088V6.86281ZM26.7944 10.612H27.1304C27.3544 10.612 27.3824 10.43 27.3824 10.332V8.498C27.3824 8.344 27.3684 8.246 27.2144 8.246C27.1864 8.246 27.1584 8.246 27.1164 8.26L26.5704 8.302V10.36C26.5704 10.528 26.6404 10.612 26.7944 10.612ZM29.8184 10.612H30.1684C30.3924 10.612 30.4064 10.43 30.4064 10.332V8.498C30.4064 8.344 30.3644 8.26 30.1964 8.26H30.1404L29.5944 8.302V10.36C29.5944 10.528 29.6644 10.612 29.8184 10.612Z" fill="white"/>
<path d="M36.0904 5.992V2.968C36.0904 1.288 34.4804 0.84 33.6404 0.84C33.4444 0.84 33.2624 0.868 33.1084 0.91C33.0244 0.938 32.9824 0.966 32.9824 0.98C32.9824 0.994 32.9964 1.008 33.0524 1.106C33.1644 1.316 33.4024 1.904 33.4024 3.094V12.04C33.4024 12.39 33.7244 12.6 33.9624 12.6H35.5304C35.8524 12.6 36.0904 12.362 36.0904 12.04V8.484H36.8324C37.1544 8.484 37.3924 8.232 37.3924 7.91V6.552C37.3924 6.23 37.1544 5.992 36.8324 5.992H36.0904Z" fill="white"/>
<path d="M39.1696 6.16C39.1696 6.202 39.1696 6.608 39.2816 7.07V10.724C39.2816 11.83 39.7016 12.432 40.6956 12.642C42.1516 12.936 44.9516 12.6 46.2956 12.082C46.5896 11.956 46.6456 11.732 46.6456 11.55V9.8C46.6456 9.562 46.4916 9.52 46.3796 9.52C46.3376 9.52 46.2956 9.52 46.2536 9.534C44.7556 9.982 43.7616 10.164 42.1796 10.206C41.9976 10.206 41.9136 10.122 41.9136 9.968V8.554C43.4256 8.554 44.8536 8.358 45.2456 8.288C45.6516 8.19 45.8056 8.05 45.8056 7.728V3.388C45.8056 2.814 45.6096 2.058 44.5876 2.058C43.5516 2.058 41.8156 2.478 40.6396 2.478C39.5616 2.478 38.8196 1.75 38.6796 1.54C38.6376 1.498 38.6096 1.47 38.5816 1.47C38.5396 1.484 38.5256 1.526 38.5256 1.568C38.5256 2.744 38.8336 3.794 39.5616 4.41C39.9956 4.76 40.4016 4.9 40.9756 4.9C41.4096 4.9 42.6556 4.774 42.8516 4.732C42.8936 4.718 42.9216 4.718 42.9636 4.718C43.0756 4.718 43.2156 4.746 43.2156 5.012V5.852C43.2156 6.02 43.1176 6.118 42.9076 6.132C42.5996 6.174 41.2976 6.314 40.5976 6.314C40.0516 6.314 39.5336 6.09 39.3236 5.992C39.2956 5.978 39.2676 5.964 39.2396 5.964C39.2256 5.964 39.1836 5.936 39.1696 6.16Z" fill="white"/>
<path d="M47.5696 1.12C47.3736 1.12 47.1916 1.148 47.0376 1.19C46.9536 1.218 46.9116 1.246 46.9116 1.26C46.9116 1.274 46.9256 1.288 46.9816 1.386C47.0936 1.596 47.3316 2.184 47.3316 3.374V5.712H46.7156C46.3936 5.712 46.1556 5.95 46.1556 6.272V7.63C46.1556 7.952 46.3936 8.204 46.7156 8.204H47.3316V12.04C47.3316 12.39 47.6536 12.6 47.8916 12.6H49.3196C49.6416 12.6 49.8796 12.362 49.8796 12.04V3.248C49.8796 1.568 48.4096 1.12 47.5696 1.12Z" fill="white"/>
<path d="M50.9016 0.84C50.7056 0.84 50.5236 0.868 50.3696 0.91C50.2856 0.938 50.2436 0.966 50.2436 0.98C50.2436 0.994 50.2576 1.008 50.3136 1.106C50.4256 1.316 50.6636 1.904 50.6636 3.094V12.04C50.6636 12.39 50.9856 12.6 51.2236 12.6H52.6516C52.9736 12.6 53.2116 12.362 53.2116 12.04V2.968C53.2116 1.288 51.7416 0.84 50.9016 0.84Z" fill="white"/>
<path d="M64.2178 12.054V4.368C64.6658 4.27 65.0438 4.228 65.3658 4.228C65.7998 4.228 66.1498 4.242 66.3878 4.508C66.4298 4.578 66.4718 4.606 66.4998 4.606C66.5558 4.606 66.5838 4.55 66.5978 4.508C67.0598 3.5 67.0458 2.8 66.6678 2.366C66.2758 1.932 65.6598 1.862 65.1698 1.862C64.9878 1.862 64.8058 1.876 64.5958 1.904C63.1258 2.086 62.1738 2.464 60.6058 2.464C59.4298 2.464 58.6318 1.708 58.4918 1.498C58.4498 1.456 58.4218 1.428 58.3938 1.428C58.3798 1.428 58.3238 1.428 58.3238 1.526C58.3238 2.702 58.6458 3.738 59.4298 4.354C60.0458 4.844 60.6338 4.844 61.0678 4.844C61.2218 4.844 61.3758 4.83 61.5298 4.816V12.054C61.5298 12.404 61.8518 12.614 62.0898 12.614H63.6578C63.9798 12.614 64.2178 12.376 64.2178 12.054Z" fill="white"/>
<path d="M75.9053 8.33C76.3673 8.33 76.3813 8.12 76.3813 7.854C76.3813 7.812 76.3813 7.756 76.3673 7.686L76.2833 6.636C76.2413 6.202 76.1713 6.076 75.7093 6.076C74.3653 6.076 72.9233 6.174 71.5233 6.44V4.788C71.8033 4.746 72.0973 4.704 72.3773 4.648C73.3153 4.494 74.5893 4.228 75.1773 4.228C75.5833 4.228 75.9193 4.242 76.1433 4.508C76.1853 4.578 76.2273 4.606 76.2413 4.606C76.2973 4.606 76.3253 4.55 76.3393 4.508C76.7733 3.5 76.7453 2.786 76.3953 2.352C76.0453 1.918 75.4433 1.848 74.9953 1.848C74.8273 1.848 74.6453 1.862 74.4493 1.89C73.0773 2.072 71.8873 2.45 70.4173 2.45C69.3113 2.45 68.5693 1.68 68.4293 1.484C68.3873 1.442 68.3593 1.414 68.3313 1.414L68.3033 1.428C68.2893 1.442 68.2753 1.47 68.2753 1.512C68.2753 2.394 68.4433 3.192 68.8353 3.808V10.71C68.8353 11.816 69.2553 12.474 70.2493 12.628C70.7953 12.726 71.2993 12.712 71.5653 12.712C72.2373 12.712 73.5393 12.642 74.6873 12.474C75.4153 12.362 76.0593 12.236 76.4933 12.082C76.7873 11.984 76.8433 11.732 76.8433 11.55V9.856C76.8433 9.618 76.7033 9.562 76.5913 9.562C76.5493 9.562 76.4933 9.576 76.4513 9.59C75.2193 9.968 73.6793 10.262 71.7893 10.262C71.6073 10.262 71.5233 10.178 71.5233 10.024V8.722C72.9373 8.456 74.6033 8.33 75.9053 8.33Z" fill="white"/>
<path fill-rule="evenodd" clip-rule="evenodd" d="M78.3833 12.1183V12.25C78.3833 12.326 78.379 12.4081 78.3677 12.4932C78.7099 12.6144 79.0732 12.67 79.4477 12.67C80.4277 12.67 81.4357 12.32 81.8137 11.088H85.4397L85.7477 12.166C85.8457 12.544 86.0277 12.614 86.3777 12.614H88.0437C88.5337 12.614 88.4777 12.418 88.4777 12.32C88.4777 12.236 88.4637 12.138 88.4217 12.026L85.3837 2.352C85.2857 2.016 85.1177 1.848 84.7117 1.848H82.6257C82.2197 1.848 82.0517 2.016 81.9537 2.352L79.3917 10.388C79.0168 11.5478 78.6615 11.9332 78.3833 12.1183ZM83.6617 4.704L82.3737 9.142H84.8937L83.6617 4.704Z" fill="white"/>
<path d="M102.628 12.124L102.082 2.394C102.068 2.128 101.9 1.988 101.55 1.988H99.2255C98.8895 1.988 98.7635 2.128 98.6936 2.394L96.6075 9.114L95.2635 3.696C94.8576 1.974 93.4576 1.848 91.5816 1.848C91.3856 1.848 91.2035 1.876 91.0495 1.918C90.9795 1.946 90.9375 1.974 90.9375 1.988C90.9375 2.002 90.9375 2.016 90.9935 2.114C91.0495 2.226 91.1615 2.366 91.2455 2.632C91.3295 2.912 91.3715 3.234 91.3715 3.556C91.3715 3.654 91.3715 3.766 91.3575 3.892L91.0075 10.206C90.9375 11.802 90.4055 12.152 90.1115 12.292C90.0135 12.348 89.9995 12.404 89.9995 12.418C89.9995 12.46 90.0415 12.488 90.1255 12.53C90.5035 12.698 90.8815 12.754 91.2875 12.754C92.2815 12.754 93.5555 12.418 93.5975 10.304L93.6815 5.656L95.3895 12.054C95.4595 12.32 95.5855 12.46 95.9215 12.46H97.3215C97.6575 12.46 97.7835 12.32 97.8535 12.054L99.8275 5.46L99.9675 12.152C99.9675 12.488 100.164 12.614 100.5 12.614H102.096C102.432 12.614 102.628 12.502 102.628 12.166V12.124Z" fill="white"/>
</svg>
