<svg width="10" height="61" viewBox="0 0 10 61" fill="none" xmlns="http://www.w3.org/2000/svg">
<path d="M2.39999 20.25H0V60.95H2.39999H3.69998H9.19998V20.25H2.39999Z" fill="#FEE9E6"/>
<path d="M0 56.35C2.4 57.55 5.59998 58.65 9.19998 59.25V54.15C5.49998 53.55 2.4 52.25 0 51.15V56.45V56.35Z" fill="white"/>
<path d="M0 51.05C2.4 52.25 5.49998 53.45 9.19998 54.05V48.95C5.49998 48.25 2.3 46.95 0 45.75V51.05Z" fill="#F58989"/>
<path d="M0 60.95H9.19998V59.25C5.59998 58.65 2.4 57.55 0 56.35V60.95Z" fill="#F58989"/>
<path d="M0 45.75C2.3 46.95 5.49998 48.25 9.19998 48.95V43.85C5.39998 43.05 2.3 41.65 0 40.45V45.75Z" fill="white"/>
<path d="M9.19995 20.25H2.09998C3.89998 21.25 6.29995 22.35 9.19995 23.15V20.25Z" fill="#F58989"/>
<path d="M2.10001 20.25H0V24.35C2 25.55 5.19998 27.25 9.19998 28.35V23.15C6.29998 22.35 3.90001 21.25 2.10001 20.25Z" fill="white"/>
<path d="M0 29.75C2.1 30.95 5.29998 32.55 9.19998 33.55V28.35C5.19998 27.25 2 25.65 0 24.35V29.75Z" fill="#F58989"/>
<path d="M0 40.45C2.3 41.65 5.39998 43.05 9.19998 43.85V38.75C5.29998 37.85 2.2 36.45 0 35.15V40.45Z" fill="#F58989"/>
<path d="M0 35.05C2.2 36.25 5.29998 37.75 9.19998 38.65V33.55C5.29998 32.55 2.1 31.05 0 29.75V35.05Z" fill="white"/>
<path d="M4.60001 20.85C7.14052 20.85 9.19998 20.5814 9.19998 20.25C9.19998 19.9186 7.14052 19.65 4.60001 19.65C2.0595 19.65 0 19.9186 0 20.25C0 20.5814 2.0595 20.85 4.60001 20.85Z" fill="#E85D5D"/>
<path d="M2.40002 20.25C2.40002 20.45 3.40004 20.55 4.60004 20.55C5.80004 20.55 6.80002 20.45 6.80002 20.25C6.80002 20.05 5.80004 19.95 4.60004 19.95C3.40004 19.95 2.40002 20.05 2.40002 20.25Z" fill="#F58989"/>
<path d="M4.29997 0.15C4.49997 -0.05 4.79998 -0.05 4.99998 0.15C10.1 5.65 11.4 17.15 4.69997 17.15C-2.00003 17.15 -0.700023 5.65 4.39998 0.15H4.29997Z" fill="#FFD449"/>
<path d="M4.39992 6.35002C4.49992 6.25002 4.79992 6.25002 4.89992 6.35002C8.09992 9.85002 8.89991 17.15 4.69991 17.15C0.499907 17.15 1.19993 9.95002 4.49993 6.35002H4.39992Z" fill="#F7C331"/>
<path d="M4.39993 9.24999C4.39993 9.14999 4.69992 9.14999 4.79992 9.24999C7.19992 11.85 7.69994 17.15 4.59994 17.15C1.49994 17.15 2.09993 11.85 4.39993 9.24999Z" fill="white"/>
<path d="M4.39996 15.35L4.19995 19.95C4.19995 20.15 4.39998 20.35 4.59998 20.35C4.79998 20.35 4.99997 20.15 4.99997 19.95L4.79996 15.35C4.79996 15.25 4.69997 15.05 4.49997 15.05C4.39997 15.05 4.19995 15.15 4.19995 15.35H4.39996Z" fill="white"/>
</svg>
