<svg width="10" height="61" viewBox="0 0 10 61" fill="none" xmlns="http://www.w3.org/2000/svg">
<path d="M2.39999 20.25H0V60.95H2.39999H3.80002H9.30002V20.25H2.39999Z" fill="#FEE9E6"/>
<path d="M0 56.35C2.4 57.55 5.60001 58.65 9.20001 59.25V54.15C5.50001 53.55 2.4 52.25 0 51.15V56.45V56.35Z" fill="white"/>
<path d="M0 51.05C2.4 52.25 5.50001 53.45 9.20001 54.05V48.95C5.50001 48.25 2.3 46.95 0 45.75V51.05Z" fill="#FCCBAC"/>
<path d="M0 60.95H9.20001V59.25C5.60001 58.65 2.4 57.55 0 56.35V60.95Z" fill="#FCCBAC"/>
<path d="M0 45.75C2.3 46.95 5.50001 48.25 9.20001 48.95V43.85C5.40001 43.05 2.3 41.65 0 40.45V45.75Z" fill="white"/>
<path d="M9.30002 20.25H2.20001C4.00001 21.25 6.40002 22.35 9.30002 23.15V20.25Z" fill="#FCCBAC"/>
<path d="M2.10001 20.25H0V24.35C2 25.55 5.20001 27.25 9.20001 28.35V23.15C6.30001 22.35 3.90001 21.25 2.10001 20.25Z" fill="white"/>
<path d="M0 29.75C2.1 30.95 5.30001 32.55 9.20001 33.55V28.35C5.20001 27.25 2 25.65 0 24.35V29.75Z" fill="#FCCBAC"/>
<path d="M0 40.45C2.3 41.65 5.40001 43.05 9.20001 43.85V38.75C5.30001 37.85 2.2 36.45 0 35.15V40.45Z" fill="#FCCBAC"/>
<path d="M0 35.05C2.2 36.25 5.30001 37.75 9.20001 38.65V33.55C5.30001 32.55 2.1 31.05 0 29.75V35.05Z" fill="white"/>
<path d="M4.60001 20.85C7.14052 20.85 9.20001 20.5814 9.20001 20.25C9.20001 19.9186 7.14052 19.65 4.60001 19.65C2.0595 19.65 0 19.9186 0 20.25C0 20.5814 2.0595 20.85 4.60001 20.85Z" fill="#EFA278"/>
<path d="M2.40002 20.25C2.40002 20.45 3.40004 20.55 4.60004 20.55C5.80004 20.55 6.80005 20.45 6.80005 20.25C6.80005 20.05 5.80004 19.95 4.60004 19.95C3.40004 19.95 2.40002 20.05 2.40002 20.25Z" fill="#FCCBAC"/>
<path d="M4.29999 0.15C4.49999 -0.05 4.79997 -0.05 4.99997 0.15C10.1 5.65 11.4 17.15 4.69998 17.15C-2.00002 17.15 -0.700039 5.65 4.39996 0.15H4.29999Z" fill="#FFD449"/>
<path d="M4.39996 6.35002C4.49996 6.25002 4.79996 6.25002 4.89996 6.35002C8.09996 9.85002 8.89998 17.15 4.69998 17.15C0.499983 17.15 1.19997 9.95002 4.49997 6.35002H4.39996Z" fill="#F7C331"/>
<path d="M4.49996 9.24999C4.49996 9.14999 4.79996 9.14999 4.89996 9.24999C7.29996 11.85 7.79998 17.15 4.69998 17.15C1.59998 17.15 2.19996 11.85 4.49996 9.24999Z" fill="white"/>
<path d="M4.39993 15.35L4.19995 19.95C4.19995 20.15 4.39995 20.35 4.59995 20.35C4.79995 20.35 4.99994 20.15 4.99994 19.95L4.79996 15.35C4.79996 15.25 4.69994 15.05 4.49994 15.05C4.39994 15.05 4.19995 15.15 4.19995 15.35H4.39993Z" fill="white"/>
</svg>
