<svg width="10" height="61" viewBox="0 0 10 61" fill="none" xmlns="http://www.w3.org/2000/svg">
<path d="M2.40002 20.35H0V60.95H2.40002H3.70001H9.20001V20.35H2.40002Z" fill="#9A3AC7"/>
<path d="M0 56.35C2.4 57.55 5.60001 58.65 9.20001 59.25V54.15C5.50001 53.55 2.4 52.25 0 51.15V56.45V56.35Z" fill="white"/>
<path d="M0 51.15C2.4 52.35 5.50001 53.55 9.20001 54.15V49.05C5.50001 48.35 2.3 47.05 0 45.85V51.15Z" fill="#9A3AC7"/>
<path d="M0 60.95H9.20001V59.25C5.60001 58.65 2.4 57.55 0 56.35V60.95Z" fill="#9A3AC7"/>
<path d="M0 45.75C2.3 46.95 5.50001 48.25 9.20001 48.95V43.85C5.40001 43.05 2.3 41.65 0 40.45V45.75Z" fill="white"/>
<path d="M9.19998 20.35H2.09998C3.89998 21.35 6.29998 22.45 9.19998 23.25V20.35Z" fill="#9A3AC7"/>
<path d="M2.10001 20.35H0V24.45C2 25.65 5.20001 27.35 9.20001 28.45V23.25C6.30001 22.45 3.90001 21.35 2.10001 20.35Z" fill="white"/>
<path d="M0 29.75C2.1 30.95 5.30001 32.55 9.20001 33.55V28.35C5.20001 27.25 2 25.65 0 24.35V29.75Z" fill="#9A3AC7"/>
<path d="M0 40.45C2.3 41.65 5.40001 43.05 9.20001 43.85V38.75C5.30001 37.85 2.2 36.45 0 35.15V40.45Z" fill="#9A3AC7"/>
<path d="M0 35.15C2.2 36.35 5.30001 37.85 9.20001 38.75V33.65C5.30001 32.65 2.1 31.15 0 29.85V35.15Z" fill="white"/>
<path d="M0 20.35C0 20.65 2.10001 20.95 4.60001 20.95C7.10001 20.95 9.20001 20.65 9.20001 20.35C9.20001 20.05 7.10001 19.75 4.60001 19.75C2.10001 19.75 0 20.05 0 20.35Z" fill="#EAC9C5"/>
<path d="M2.40002 20.35C2.40002 20.55 3.40001 20.65 4.60001 20.65C5.80001 20.65 6.80002 20.55 6.80002 20.35C6.80002 20.15 5.80001 20.05 4.60001 20.05C3.40001 20.05 2.40002 20.15 2.40002 20.35Z" fill="#9A3AC7"/>
<path d="M4.30003 0.15C4.50003 -0.05 4.80001 -0.05 5.00001 0.15C10.1 5.65 11.4 17.15 4.70003 17.15C-1.99997 17.15 -0.699962 5.65 4.40004 0.15H4.30003Z" fill="#FFD449"/>
<path d="M4.3 6.34999C4.4 6.24999 4.70001 6.24999 4.8 6.34999C8 9.84999 8.79999 17.15 4.59999 17.15C0.399993 17.15 1.10001 9.94999 4.40001 6.34999H4.3Z" fill="#F7C331"/>
<path d="M4.40006 9.34999C4.40006 9.24999 4.70006 9.24999 4.80006 9.34999C7.20006 11.95 7.70005 17.25 4.60005 17.25C1.50005 17.25 2.10006 11.95 4.40006 9.34999Z" fill="white"/>
<path d="M4.29999 15.35L4.09998 19.95C4.09998 20.15 4.29997 20.35 4.49997 20.35C4.69997 20.35 4.89999 20.15 4.89999 19.95L4.69998 15.35C4.69998 15.25 4.59999 15.05 4.39999 15.05C4.29999 15.05 4.09998 15.15 4.09998 15.35H4.29999Z" fill="white"/>
</svg>
