<svg width="17" height="52" viewBox="0 0 17 52" fill="none" xmlns="http://www.w3.org/2000/svg">
<path d="M8.49999 1C4.12697 5.37537 0.640808 9.36329 1.02965 15.9407C1.64169 21.0749 3.07335 23.2615 8.91503 25.0711C14.2404 23.3516 15.1506 21.1079 15.5553 16.3557C15.0642 11.8328 13.5596 11.0795 10.9901 7.2253C10.1601 5.98024 9.42732 3.20865 8.49999 1Z" fill="#FB601A"/>
<path d="M8.91503 25.9012C6.62548 26.0387 5.62712 26.4046 3.93479 27.1462V30.0514C5.92785 28.6863 7.01618 27.7706 8.91503 25.9012Z" fill="#FCE6D6"/>
<path d="M13.8953 27.5613C10.2856 30.8417 8.0724 32.3259 3.93479 34.6166V38.7668C8.07253 36.8121 10.2905 35.587 13.8953 32.9565V27.5613Z" fill="#FCE6D6"/>
<path d="M13.8953 38.3518C10.1302 41.4463 7.91323 42.4783 3.93479 44.1621V48.3123C8.1416 47.2868 10.388 46.3862 13.8953 43.332V38.3518Z" fill="#FCE6D6"/>
<path d="M7.04274 51.2884C9.49223 51.7666 11.3291 51.4207 13.8953 50.3874V47.4822C11.541 49.6603 9.97317 50.3487 7.04274 51.2884Z" fill="#FCE6D6"/>
<path d="M13.8953 27.1462C12.3802 26.131 10.5751 25.9012 8.91503 25.9012C7.01618 27.7706 5.92785 28.6863 3.93479 30.0514V34.6166C8.0724 32.3259 10.2856 30.8417 13.8953 27.5613V27.1462Z" fill="#F9935A"/>
<path d="M13.8953 32.9565C10.2905 35.587 8.07253 36.8121 3.93479 38.7668V44.1621C7.91323 42.4783 10.1302 41.4463 13.8953 38.3518V32.9565Z" fill="#F9935A"/>
<path d="M3.93479 48.3123V50.3874C5.10618 50.81 6.1181 51.108 7.04274 51.2884C9.97317 50.3487 11.541 49.6603 13.8953 47.4822V43.332C10.388 46.3862 8.1416 47.2868 3.93479 48.3123Z" fill="#F9935A"/>
<path d="M8.91503 25.0711C3.07335 23.2615 1.64169 21.0749 1.02965 15.9407C0.640808 9.36329 4.12697 5.37537 8.49999 1C9.42732 3.20865 10.1601 5.98024 10.9901 7.2253C13.5596 11.0795 15.0642 11.8328 15.5553 16.3557C15.1506 21.1079 14.2404 23.3516 8.91503 25.0711ZM8.91503 25.0711V19.6759M8.91503 25.0711V25.9012M8.91503 25.9012C6.62548 26.0387 5.62712 26.4046 3.93479 27.1462V30.0514M8.91503 25.9012C10.5751 25.9012 12.3802 26.131 13.8953 27.1462V27.5613M8.91503 25.9012C7.01618 27.7706 5.92785 28.6863 3.93479 30.0514M3.93479 30.0514V34.6166M3.93479 34.6166C8.0724 32.3259 10.2856 30.8417 13.8953 27.5613M3.93479 34.6166V38.7668M13.8953 27.5613V32.9565M3.93479 38.7668C8.07253 36.8121 10.2905 35.587 13.8953 32.9565M3.93479 38.7668V44.1621M13.8953 32.9565V38.3518M3.93479 44.1621C7.91323 42.4783 10.1302 41.4463 13.8953 38.3518M3.93479 44.1621V48.3123M13.8953 38.3518V43.332M3.93479 48.3123V50.3874C5.10618 50.81 6.1181 51.108 7.04274 51.2884M3.93479 48.3123C8.1416 47.2868 10.388 46.3862 13.8953 43.332M13.8953 43.332V47.4822M7.04274 51.2884C9.49223 51.7666 11.3291 51.4207 13.8953 50.3874V47.4822M7.04274 51.2884C9.97317 50.3487 11.541 49.6603 13.8953 47.4822" stroke="#F9F76D" stroke-linecap="round" stroke-linejoin="round"/>
<path d="M8.94464 1C4.57161 5.37537 1.08545 9.36329 1.47429 15.9407C2.08634 21.0749 3.51799 23.2615 9.35967 25.0711C14.6851 23.3516 15.5952 21.1079 16 16.3557C15.5089 11.8328 14.0042 11.0795 11.4348 7.2253C10.6047 5.98024 9.87196 3.20865 8.94464 1Z" fill="#FB601A"/>
<path d="M9.35967 25.9012C7.07012 26.0387 6.07177 26.4046 4.37943 27.1462V30.0514C6.37249 28.6863 7.46082 27.7706 9.35967 25.9012Z" fill="#FCE6D6"/>
<path d="M14.3399 27.5613C10.7302 30.8417 8.51704 32.3259 4.37943 34.6166V38.7668C8.51717 36.8121 10.7352 35.587 14.3399 32.9565V27.5613Z" fill="#FCE6D6"/>
<path d="M14.3399 38.3518C10.5749 41.4463 8.35787 42.4783 4.37943 44.1621V48.3123C8.58625 47.2868 10.8326 46.3862 14.3399 43.332V38.3518Z" fill="#FCE6D6"/>
<path d="M7.48738 51.2884C9.93687 51.7666 11.7738 51.4207 14.3399 50.3874V47.4822C11.9857 49.6603 10.4178 50.3487 7.48738 51.2884Z" fill="#FCE6D6"/>
<path d="M14.3399 27.1462C12.8249 26.131 11.0197 25.9012 9.35967 25.9012C7.46082 27.7706 6.37249 28.6863 4.37943 30.0514V34.6166C8.51704 32.3259 10.7302 30.8417 14.3399 27.5613V27.1462Z" fill="#F9935A"/>
<path d="M14.3399 32.9565C10.7352 35.587 8.51717 36.8121 4.37943 38.7668V44.1621C8.35787 42.4783 10.5749 41.4463 14.3399 38.3518V32.9565Z" fill="#F9935A"/>
<path d="M4.37943 48.3123V50.3874C5.55082 50.81 6.56274 51.108 7.48738 51.2884C10.4178 50.3487 11.9857 49.6603 14.3399 47.4822V43.332C10.8326 46.3862 8.58625 47.2868 4.37943 48.3123Z" fill="#F9935A"/>
<path d="M9.35967 25.0711C3.51799 23.2615 2.08634 21.0749 1.47429 15.9407C1.08545 9.36329 4.57161 5.37537 8.94464 1C9.87196 3.20865 10.6047 5.98024 11.4348 7.2253C14.0042 11.0795 15.5089 11.8328 16 16.3557C15.5952 21.1079 14.6851 23.3516 9.35967 25.0711ZM9.35967 25.0711V19.6759M9.35967 25.0711V25.9012M9.35967 25.9012C7.07012 26.0387 6.07177 26.4046 4.37943 27.1462V30.0514M9.35967 25.9012C11.0197 25.9012 12.8249 26.131 14.3399 27.1462V27.5613M9.35967 25.9012C7.46082 27.7706 6.37249 28.6863 4.37943 30.0514M4.37943 30.0514V34.6166M4.37943 34.6166C8.51704 32.3259 10.7302 30.8417 14.3399 27.5613M4.37943 34.6166V38.7668M14.3399 27.5613V32.9565M4.37943 38.7668C8.51717 36.8121 10.7352 35.587 14.3399 32.9565M4.37943 38.7668V44.1621M14.3399 32.9565V38.3518M4.37943 44.1621C8.35787 42.4783 10.5749 41.4463 14.3399 38.3518M4.37943 44.1621V48.3123M14.3399 38.3518V43.332M4.37943 48.3123V50.3874C5.55082 50.81 6.56274 51.108 7.48738 51.2884M4.37943 48.3123C8.58625 47.2868 10.8326 46.3862 14.3399 43.332M14.3399 43.332V47.4822M7.48738 51.2884C9.93687 51.7666 11.7738 51.4207 14.3399 50.3874V47.4822M7.48738 51.2884C10.4178 50.3487 11.9857 49.6603 14.3399 47.4822" stroke="white" stroke-linecap="round" stroke-linejoin="round"/>
<circle cx="6.42489" cy="6.81026" r="0.83004" fill="white"/>
<circle cx="5.17985" cy="8.05528" r="0.41502" fill="white"/>
</svg>
