<svg width="17" height="63" viewBox="0 0 17 63" fill="none" xmlns="http://www.w3.org/2000/svg">
<path d="M8.49999 1C4.12697 5.37537 0.640808 9.36329 1.02965 15.9407C1.64169 21.0749 3.07335 23.2615 8.91503 25.0711C14.2404 23.3516 15.1506 21.1079 15.5553 16.3557C15.0642 11.8328 13.5596 11.0795 10.9901 7.2253C10.1601 5.98024 9.42732 3.20865 8.49999 1Z" fill="#FB601A"/>
<path d="M8.91503 25.9012C6.62548 26.0387 5.62712 26.4046 3.93479 27.1462V30.0514C5.92785 28.6863 7.01618 27.7706 8.91503 25.9012Z" fill="#E0FEFF"/>
<path d="M13.8953 27.5613C10.2856 30.8417 8.0724 32.3259 3.93479 34.6166V38.7668C8.07253 36.8121 10.2905 35.587 13.8953 32.9565V27.5613Z" fill="#E0FEFF"/>
<path d="M6 61.3062C8.44948 61.7844 11.3291 61.4384 13.8953 60.4051V57.5C12.1074 59.9728 9.43255 60.6277 6 61.3062Z" fill="#E0FEFF"/>
<path d="M13.8953 27.1462C12.3802 26.131 10.5751 25.9012 8.91503 25.9012C7.01618 27.7706 5.92785 28.6863 3.93479 30.0514V34.6166C8.0724 32.3259 10.2856 30.8417 13.8953 27.5613V27.1462Z" fill="#5AE3F9"/>
<path d="M13.8953 32.9565C10.2905 35.587 8.07253 36.8121 3.93479 38.7668V44.1621C7.91323 42.4783 10.1302 41.4463 13.8953 38.3518V32.9565Z" fill="#5AE3F9"/>
<path d="M13.8953 43.332C10.068 46.4629 7.87758 47.5686 3.93479 49V53.5C7.84926 52.5314 10.0544 51.679 13.8953 48.0979V43.332Z" fill="#FB601A"/>
<path d="M13.8953 38.3518C10.1302 41.4463 7.91323 42.4783 3.93479 44.1621V49C7.87758 47.5686 10.068 46.4629 13.8953 43.332V38.3518Z" fill="#E0FEFF"/>
<path d="M3.93479 53.5V57.5C7.92618 57.1212 10.1386 56.5651 13.8953 53V48.0979C10.0544 51.679 7.84926 52.5314 3.93479 53.5Z" fill="#E0FEFF"/>
<path d="M3.93479 60.4051C5.10618 60.8278 5.07536 61.1257 6 61.3062C9.43255 60.6277 12.1074 59.9728 13.8953 57.5V53C10.1386 56.5651 7.92618 57.1212 3.93479 57.5V60.4051Z" fill="#FB601A"/>
<path d="M8.91503 25.0711C3.07335 23.2615 1.64169 21.0749 1.02965 15.9407C0.640808 9.36329 4.12697 5.37537 8.49999 1C9.42732 3.20865 10.1601 5.98024 10.9901 7.2253C13.5596 11.0795 15.0642 11.8328 15.5553 16.3557C15.1506 21.1079 14.2404 23.3516 8.91503 25.0711ZM8.91503 25.0711V25.9012M8.91503 25.9012C6.62548 26.0387 5.62712 26.4046 3.93479 27.1462V30.0514M8.91503 25.9012C10.5751 25.9012 12.3802 26.131 13.8953 27.1462V27.5613M8.91503 25.9012C7.01618 27.7706 5.92785 28.6863 3.93479 30.0514M3.93479 30.0514V34.6166M3.93479 34.6166C8.0724 32.3259 10.2856 30.8417 13.8953 27.5613M3.93479 34.6166V38.7668M13.8953 27.5613V32.9565M3.93479 38.7668C8.07253 36.8121 10.2905 35.587 13.8953 32.9565M3.93479 38.7668V44.1621M13.8953 32.9565V38.3518M3.93479 44.1621C7.91323 42.4783 10.1302 41.4463 13.8953 38.3518M3.93479 44.1621V49M13.8953 38.3518V43.332M13.8953 43.332C10.068 46.4629 7.87758 47.5686 3.93479 49M13.8953 43.332V48.0979M6 61.3062C8.44948 61.7844 11.3291 61.4384 13.8953 60.4051V57.5M6 61.3062C5.07536 61.1257 5.10618 60.8278 3.93479 60.4051V57.5M6 61.3062C9.43255 60.6277 12.1074 59.9728 13.8953 57.5M13.8953 57.5V53M3.93479 49V53.5M3.93479 53.5V57.5M3.93479 53.5C7.84926 52.5314 10.0544 51.679 13.8953 48.0979M14 48C13.965 48.0329 13.93 48.0655 13.8953 48.0979M3.93479 57.5C7.92618 57.1212 10.1386 56.5651 13.8953 53M13.8953 53V48.0979" stroke="#FBFF30" stroke-linecap="round" stroke-linejoin="round"/>
<path d="M9.67983 25.9012C7.39028 26.0387 6.39193 26.4046 4.69959 27.1462V30.0514C6.69265 28.6863 7.78098 27.7706 9.67983 25.9012Z" fill="#E0FEFF"/>
<path d="M14.6601 27.5613C11.0504 30.8417 8.8372 32.3259 4.69959 34.6166V38.7668C8.83733 36.8121 11.0553 35.587 14.6601 32.9565V27.5613Z" fill="#E0FEFF"/>
<path d="M6.7648 61.3062C9.21428 61.7844 12.0939 61.4384 14.6601 60.4051V57.5C12.8722 59.9728 10.1973 60.6277 6.7648 61.3062Z" fill="#E0FEFF"/>
<path d="M14.6601 27.1462C13.145 26.131 11.3399 25.9012 9.67983 25.9012C7.78098 27.7706 6.69265 28.6863 4.69959 30.0514V34.6166C8.8372 32.3259 11.0504 30.8417 14.6601 27.5613V27.1462Z" fill="#5AE3F9"/>
<path d="M14.6601 32.9565C11.0553 35.587 8.83733 36.8121 4.69959 38.7668V44.1621C8.67803 42.4783 10.895 41.4463 14.6601 38.3518V32.9565Z" fill="#5AE3F9"/>
<path d="M14.6601 43.332C10.8328 46.4629 8.64238 47.5686 4.69959 49V53.5C8.61406 52.5314 10.8192 51.679 14.6601 48.0979V43.332Z" fill="#5AE3F9"/>
<path d="M14.6601 38.3518C10.895 41.4463 8.67803 42.4783 4.69959 44.1621V49C8.64238 47.5686 10.8328 46.4629 14.6601 43.332V38.3518Z" fill="#E0FEFF"/>
<path d="M4.69959 53.5V57.5C8.69098 57.1212 10.9035 56.5651 14.6601 53V48.0979C10.8192 51.679 8.61406 52.5314 4.69959 53.5Z" fill="#E0FEFF"/>
<path d="M4.69959 60.4051C5.87098 60.8278 5.84016 61.1257 6.7648 61.3062C10.1973 60.6277 12.8722 59.9728 14.6601 57.5V53C10.9035 56.5651 8.69098 57.1212 4.69959 57.5V60.4051Z" fill="#5AE3F9"/>
<path fill-rule="evenodd" clip-rule="evenodd" d="M9.67983 25.0711C10.0696 24.9453 10.4357 24.8166 10.7797 24.6844C10.4517 24.8194 10.0866 24.9476 9.67983 25.0711ZM8.32303 24.6145C8.74667 24.7702 9.19827 24.922 9.67983 25.0711C9.17665 24.9245 8.72638 24.7737 8.32303 24.6145Z" fill="#FFD449"/>
<path d="M9.26479 1C4.89177 5.37537 1.40561 9.36329 1.79445 15.9407C2.35604 20.6517 3.60768 22.881 8.32303 24.6145C8.74667 24.7702 9.19827 24.922 9.67983 25.0711C10.0696 24.9453 10.4357 24.8166 10.7797 24.6844C15.1357 23.0097 15.945 20.7601 16.3201 16.3557C15.9499 12.9463 15.0038 11.6789 13.4598 9.61056C12.9555 8.93507 12.3875 8.17415 11.7549 7.2253C11.2422 6.45622 10.7666 5.10468 10.2593 3.66315C9.94538 2.77099 9.61931 1.84436 9.26479 1Z" fill="#FF6C63"/>
<path d="M9.67983 25.0711V19.6759M9.67983 25.0711V25.9012M9.67983 25.0711C10.0696 24.9453 10.4357 24.8166 10.7797 24.6844M9.67983 25.0711C10.0866 24.9476 10.4517 24.8194 10.7797 24.6844M9.67983 25.0711C9.19827 24.922 8.74667 24.7702 8.32303 24.6145M9.67983 25.0711C9.17665 24.9245 8.72638 24.7737 8.32303 24.6145M9.67983 25.9012C7.39028 26.0387 6.39193 26.4046 4.69959 27.1462V30.0514M9.67983 25.9012C11.3399 25.9012 13.145 26.131 14.6601 27.1462V27.5613M9.67983 25.9012C7.78098 27.7706 6.69265 28.6863 4.69959 30.0514M4.69959 30.0514V34.6166M4.69959 34.6166C8.8372 32.3259 11.0504 30.8417 14.6601 27.5613M4.69959 34.6166V38.7668M14.6601 27.5613V32.9565M4.69959 38.7668C8.83733 36.8121 11.0553 35.587 14.6601 32.9565M4.69959 38.7668V44.1621M14.6601 32.9565V38.3518M4.69959 44.1621C8.67803 42.4783 10.895 41.4463 14.6601 38.3518M4.69959 44.1621V49M14.6601 38.3518V43.332M14.6601 43.332C10.8328 46.4629 8.64238 47.5686 4.69959 49M14.6601 43.332V48.0979M6.7648 61.3062C9.21428 61.7844 12.0939 61.4384 14.6601 60.4051V57.5M6.7648 61.3062C5.84016 61.1257 5.87098 60.8278 4.69959 60.4051V57.5M6.7648 61.3062C10.1973 60.6277 12.8722 59.9728 14.6601 57.5M14.6601 57.5V53M4.69959 49V53.5M4.69959 53.5V57.5M4.69959 53.5C8.61406 52.5314 10.8192 51.679 14.6601 48.0979M14.7648 48C14.7298 48.0329 14.6948 48.0655 14.6601 48.0979M4.69959 57.5C8.69098 57.1212 10.9035 56.5651 14.6601 53M14.6601 53V48.0979M10.7797 24.6844C15.1357 23.0097 15.945 20.7601 16.3201 16.3557C15.9499 12.9463 15.0038 11.6789 13.4598 9.61056C12.9555 8.93507 12.3875 8.17415 11.7549 7.2253C11.2422 6.45622 10.7666 5.10468 10.2593 3.66315C9.94538 2.77099 9.61931 1.84436 9.26479 1C4.89177 5.37537 1.40561 9.36329 1.79445 15.9407C2.35604 20.6517 3.60768 22.881 8.32303 24.6145" stroke="white" stroke-linecap="round" stroke-linejoin="round"/>
<circle cx="7.42489" cy="6.81026" r="0.83004" fill="white"/>
<circle cx="6.17982" cy="8.05528" r="0.41502" fill="white"/>
</svg>
