<svg width="531" height="489" viewBox="0 0 531 489" fill="none" xmlns="http://www.w3.org/2000/svg">
<path d="M118.706 121.785C114.303 123.802 102.563 138.674 97.0925 149.008C93.3568 156.066 92.6897 158.586 92.6897 166.148C92.8231 184.927 107.366 199.547 125.911 199.547C138.585 199.547 150.192 191.607 156.196 178.751C162.2 165.896 158.998 153.923 143.922 133.254C134.716 120.777 127.645 117.5 118.706 121.785ZM133.248 143.463C137.118 148.63 140.987 154.806 142.054 157.2C148.058 170.559 138.852 185.683 124.843 185.683C120.307 185.683 118.706 184.801 113.903 180.012C107.366 173.584 105.498 167.787 107.899 160.477C109.5 155.562 123.776 134.01 125.51 134.01C125.911 134.01 129.513 138.295 133.248 143.463Z" fill="black"/>
<path d="M124.843 185.683C120.307 185.683 118.706 184.801 113.903 180.012C107.366 173.584 105.498 167.787 107.899 160.477C111.884 171.104 115.339 176.699 124.843 185.683Z" fill="white"/>
<path fill-rule="evenodd" clip-rule="evenodd" d="M133.248 143.463C137.118 148.63 140.987 154.806 142.054 157.2C148.058 170.559 138.852 185.683 124.843 185.683C124.159 183.262 123.46 181.016 122.794 178.875C118.639 165.52 115.756 156.252 125.51 134.01C125.911 134.01 129.513 138.295 133.248 143.463Z" fill="#FDF371"/>
<path d="M107.899 160.477C109.5 155.562 123.776 134.01 125.51 134.01C115.756 156.252 118.639 165.52 122.794 178.875C123.46 181.016 124.159 183.262 124.843 185.683C115.339 176.699 111.884 171.104 107.899 160.477Z" fill="white"/>
<path d="M256.793 121.785C252.39 123.802 240.649 138.674 235.179 149.008C231.443 156.066 230.776 158.586 230.776 166.148C230.91 184.927 245.452 199.547 263.997 199.547C276.672 199.547 288.279 191.607 294.283 178.751C300.287 165.896 297.085 153.923 282.009 133.254C272.803 120.777 265.732 117.5 256.793 121.785ZM271.335 143.463C275.204 148.63 279.073 154.806 280.141 157.2C286.144 170.559 276.939 185.683 262.93 185.683C258.394 185.683 256.793 184.801 251.99 180.012C245.452 173.584 243.584 167.787 245.986 160.477C247.587 155.562 261.863 134.01 263.597 134.01C263.997 134.01 267.599 138.295 271.335 143.463Z" fill="black"/>
<path d="M262.93 185.683C258.394 185.683 256.793 184.801 251.99 180.012C245.452 173.584 243.584 167.787 245.986 160.477C249.971 171.104 253.426 176.699 262.93 185.683Z" fill="white"/>
<path fill-rule="evenodd" clip-rule="evenodd" d="M271.335 143.463C275.204 148.63 279.073 154.806 280.141 157.2C286.144 170.559 276.939 185.683 262.93 185.683C262.245 183.262 261.547 181.016 260.881 178.875C256.726 165.52 253.843 156.252 263.597 134.01C263.997 134.01 267.599 138.295 271.335 143.463Z" fill="#FDF371"/>
<path d="M245.986 160.477C247.587 155.562 261.863 134.01 263.597 134.01C253.843 156.252 256.726 165.52 260.881 178.875C261.547 181.016 262.245 183.262 262.93 185.683C253.426 176.699 249.971 171.104 245.986 160.477Z" fill="white"/>
<path d="M398.882 121.785C394.479 123.802 382.738 138.674 377.268 149.008C373.533 156.066 372.865 158.586 372.865 166.148C372.999 184.927 387.541 199.547 406.086 199.547C418.761 199.547 430.368 191.607 436.372 178.751C442.376 165.896 439.174 153.923 424.098 133.254C414.892 120.777 407.821 117.5 398.882 121.785ZM413.424 143.463C417.293 148.63 421.162 154.806 422.23 157.2C428.234 170.559 419.028 185.683 405.019 185.683C400.483 185.683 398.882 184.801 394.079 180.012C387.541 173.584 385.674 167.787 388.075 160.477C389.676 155.562 403.952 134.01 405.686 134.01C406.086 134.01 409.689 138.295 413.424 143.463Z" fill="black"/>
<path d="M405.019 185.683C400.483 185.683 398.882 184.801 394.079 180.012C387.541 173.584 385.674 167.787 388.075 160.477C392.06 171.104 395.515 176.699 405.019 185.683Z" fill="white"/>
<path fill-rule="evenodd" clip-rule="evenodd" d="M413.424 143.463C417.293 148.63 421.162 154.806 422.23 157.2C428.234 170.559 419.028 185.683 405.019 185.683C404.334 183.262 403.636 181.016 402.97 178.875C398.815 165.52 395.932 156.252 405.686 134.01C406.086 134.01 409.689 138.295 413.424 143.463Z" fill="#FDF371"/>
<path d="M388.075 160.477C389.676 155.562 403.952 134.01 405.686 134.01C395.932 156.252 398.815 165.52 402.97 178.875C403.636 181.016 404.334 183.262 405.019 185.683C395.515 176.699 392.06 171.104 388.075 160.477Z" fill="white"/>
<path d="M240.116 291.549C237.714 293.817 237.447 295.708 237.447 311.588C237.447 332.761 237.981 333.769 250.522 335.912C257.06 337.046 261.596 337.046 269.868 335.912C284.277 333.895 291.748 330.24 295.751 323.183C300.82 313.982 299.486 299.111 292.815 292.305L289.613 289.028H266.132C244.518 289.028 242.517 289.28 240.116 291.549ZM283.343 304.908C284.544 307.933 284.277 314.108 282.809 316.755C280.674 320.536 263.063 324.065 255.459 322.3C252.257 321.544 252.123 321.04 252.123 313.1C252.123 308.437 252.523 304.152 253.057 303.774C253.457 303.27 260.395 302.892 268.267 302.892C280.007 302.892 282.676 303.27 283.343 304.908Z" fill="black"/>
<path fill-rule="evenodd" clip-rule="evenodd" d="M282.809 316.755C284.277 314.108 284.544 307.933 283.343 304.908C282.676 303.27 280.007 302.892 268.267 302.892C260.395 302.892 253.457 303.27 253.057 303.774C252.523 304.152 252.123 308.437 252.123 313.1C252.123 321.04 252.257 321.544 255.459 322.3C263.063 324.065 280.674 320.536 282.809 316.755ZM240.116 291.549C237.714 293.817 237.447 295.708 237.447 311.588C237.447 332.761 237.981 333.769 250.522 335.912C257.06 337.046 261.596 337.046 269.868 335.912C284.277 333.895 291.748 330.24 295.751 323.183C300.82 313.982 299.486 299.111 292.815 292.305L289.613 289.028H266.132C244.518 289.028 242.517 289.28 240.116 291.549Z" fill="black"/>
<path fill-rule="evenodd" clip-rule="evenodd" d="M258.127 199.42H253.19C247.053 199.546 231.31 204.588 223.305 208.999C215.433 213.41 207.962 220.468 205.027 226.265C202.892 230.55 202.759 235.969 203.026 288.776L203.426 346.625L207.295 351.918C210.23 355.825 213.699 358.345 220.637 361.496C230.643 366.033 244.385 369.688 251.856 369.688H256.259H271.469C271.869 369.688 276.939 368.806 282.542 367.672C304.156 363.513 319.365 353.304 327.504 337.802C336.443 320.284 336.576 304.152 328.037 283.231L325.369 276.803L328.037 269.115C337.377 242.901 320.833 214.292 290.014 203.453C286.011 201.941 281.875 200.807 280.808 200.807C272.333 199.811 267.467 199.388 258.127 199.42ZM309.092 234.079C303.355 225.887 293.482 219.207 282.943 216.056C265.331 210.889 250.789 211.897 235.179 219.081C229.976 221.476 223.839 225.509 221.571 227.903L217.435 232.44V286.634C217.435 323.435 217.968 341.709 218.902 343.474C219.399 344.34 220.858 345.443 222.915 346.625C228.046 349.57 236.9 352.999 243.851 354.438C258.661 357.337 280.674 355.321 293.883 349.775C317.764 339.819 326.303 310.958 312.695 285.878L308.025 277.055L311.627 269.494C318.165 256.26 317.364 245.548 309.092 234.079Z" fill="black"/>
<path d="M218.902 343.474C217.968 341.709 217.435 323.435 217.435 286.634V232.44L221.571 227.903L222.915 346.625C220.858 345.443 219.399 344.34 218.902 343.474Z" fill="white"/>
<path fill-rule="evenodd" clip-rule="evenodd" d="M282.943 216.056C293.482 219.207 303.355 225.887 309.092 234.079C317.364 245.548 318.165 256.26 311.627 269.494L308.025 277.055L312.695 285.878C326.303 310.958 317.764 339.819 293.883 349.775C280.674 355.321 258.661 357.337 243.851 354.438C236.9 352.999 228.046 349.57 222.915 346.625L221.571 227.903C223.839 225.509 229.976 221.476 235.179 219.081C250.789 211.897 265.331 210.889 282.943 216.056ZM237.447 253.362C237.581 239.246 239.048 236.977 250.656 233.449C252.523 232.818 258.661 232.566 264.264 232.818C290.414 233.701 304.423 252.227 289.347 265.839L285.344 269.493L265.065 269.872C245.986 270.25 244.518 270.124 241.05 267.603C237.581 264.956 237.447 264.452 237.447 253.362ZM237.447 311.588C237.447 295.708 237.714 293.817 240.116 291.549C242.517 289.28 244.518 289.028 266.132 289.028H289.613L292.815 292.305C299.486 299.111 300.82 313.982 295.751 323.183C291.748 330.24 284.277 333.895 269.868 335.912C261.596 337.046 257.06 337.046 250.522 335.912C237.981 333.769 237.447 332.761 237.447 311.588Z" fill="#F7C9DD"/>
<path fill-rule="evenodd" clip-rule="evenodd" d="M283.343 304.908C284.544 307.933 284.277 314.108 282.809 316.755C280.674 320.536 263.063 324.065 255.459 322.3C252.257 321.544 252.123 321.04 252.123 313.1C252.123 308.437 252.523 304.152 253.057 303.774C253.457 303.27 260.395 302.892 268.267 302.892C280.007 302.892 282.676 303.27 283.343 304.908ZM237.447 311.588C237.447 295.708 237.714 293.817 240.116 291.549C242.517 289.28 244.518 289.028 266.132 289.028H289.613L292.815 292.305C299.486 299.111 300.82 313.982 295.751 323.183C291.748 330.24 284.277 333.895 269.868 335.912C261.596 337.046 257.06 337.046 250.522 335.912C237.981 333.769 237.447 332.761 237.447 311.588Z" fill="black"/>
<path fill-rule="evenodd" clip-rule="evenodd" d="M250.656 233.449C239.048 236.977 237.581 239.246 237.447 253.362C237.447 264.452 237.581 264.956 241.05 267.603C244.518 270.124 245.986 270.25 265.065 269.872L285.344 269.493L289.347 265.839C304.423 252.227 290.414 233.701 264.264 232.818C258.661 232.566 252.523 232.818 250.656 233.449ZM280.141 253.109C280.141 251.975 277.606 249.959 274.537 248.698C268.4 246.052 258.26 245.422 254.525 247.564C253.191 248.194 252.123 250.211 252.123 251.849C252.123 255 252.123 255 266.132 255C277.873 255 280.141 254.748 280.141 253.109Z" fill="black"/>
<path fill-rule="evenodd" clip-rule="evenodd" d="M377.135 198.916C357.656 198.916 356.589 199.042 350.852 202.319C347.116 204.336 343.514 207.739 341.513 211.141L338.177 216.561L337.777 280.206C337.51 324.821 337.777 345.868 338.844 350.532C340.712 358.345 345.115 363.765 352.586 367.42C357.656 369.814 359.657 369.94 381.404 369.31C399.416 368.932 407.287 368.05 415.426 366.033C443.043 359.102 462.922 340.575 471.728 313.604C473.729 307.429 474.263 301.884 474.263 283.987C474.263 264.2 473.996 261.05 471.194 253.11C466.391 239.498 460.387 229.92 451.582 221.602C442.509 213.032 432.103 207.36 417.56 203.201L407.554 200.303C395.99 198.925 389.304 198.692 377.135 198.916ZM458.119 261.806C451.048 232.693 430.368 216.939 394.879 213.41C381.805 212.15 365.528 212.024 360.858 213.032C359.39 213.41 357.122 214.544 355.922 215.678C353.654 217.443 353.52 222.358 353.52 284.113V350.658L356.589 353.43C359.39 355.951 360.458 356.077 381.538 355.447C395.947 354.943 406.353 354.06 411.557 352.674C435.438 346.373 452.516 329.61 458.253 306.421C460.921 295.834 460.787 272.644 458.119 261.806Z" fill="black"/>
<path fill-rule="evenodd" clip-rule="evenodd" d="M375.801 234.079C373.8 236.095 373.533 240.885 373.533 284.617V333.013L376.468 334.904C380.07 337.298 386.741 337.424 398.749 335.534C410.623 333.517 417.694 330.493 425.032 324.065C435.705 314.865 440.241 303.144 440.241 284.869C440.241 249.959 425.565 234.331 390.744 232.567C380.07 232.062 377.669 232.315 375.801 234.079ZM425.165 288.65C426.499 268.485 421.429 256.008 409.555 250.463C406.22 248.951 400.083 247.312 395.947 246.808L388.209 245.926V283.861V321.796H393.412C399.683 321.796 408.221 319.024 413.825 315.369C419.962 311.21 424.365 300.875 425.165 288.65Z" fill="black"/>
<path fill-rule="evenodd" clip-rule="evenodd" d="M394.879 213.41C430.368 216.939 451.048 232.693 458.119 261.806C460.787 272.644 460.921 295.834 458.253 306.421C452.516 329.61 435.438 346.373 411.557 352.674C406.353 354.06 395.947 354.943 381.538 355.447C360.458 356.077 359.39 355.951 356.589 353.43L358.356 222.389C358.418 217.193 358.822 214.904 360.858 213.032C365.528 212.024 381.805 212.15 394.879 213.41ZM373.533 284.617C373.533 240.885 373.8 236.095 375.801 234.079C377.669 232.315 380.07 232.062 390.744 232.567C425.565 234.331 440.241 249.959 440.241 284.869C440.241 303.144 435.705 314.865 425.032 324.065C417.694 330.493 410.623 333.517 398.749 335.534C386.741 337.424 380.07 337.298 376.468 334.904L373.533 333.013V284.617Z" fill="#8FD3F5"/>
<path d="M356.589 353.43L353.52 350.658V284.113C353.52 222.358 353.654 217.443 355.922 215.678C357.122 214.544 359.39 213.41 360.858 213.032C358.822 214.904 358.418 217.193 358.356 222.389L356.589 353.43Z" fill="white"/>
<path d="M74.4116 199.546C67.7407 201.437 62.0038 205.596 58.9352 210.637C56 215.678 56 215.804 56 283.735C56 328.98 56.5337 353.052 57.4676 355.447C60.6696 363.387 70.6759 369.688 80.1485 369.688C88.1535 369.688 96.8256 365.403 101.095 359.228C104.564 354.186 104.697 353.682 105.097 330.997L105.631 307.933H125.377H145.123L145.656 330.241C146.19 354.06 146.99 357.211 153.661 362.883C165.402 373.091 183.413 371.327 191.819 359.228L195.421 354.06L195.821 287.264C196.088 241.767 195.821 218.829 194.754 215.678C193.953 213.158 191.819 209.251 189.951 207.108C179.011 194.883 157.664 196.774 149.392 210.889C146.323 216.183 146.057 217.947 145.656 238.994L145.123 261.428L125.51 261.05L106.031 260.671L105.364 237.986C104.697 214.544 104.164 212.276 98.1598 206.1C92.6897 200.303 81.7495 197.278 74.4116 199.546ZM87.8867 216.687C90.555 219.837 90.6884 221.602 90.6884 245.674C90.6884 270.628 90.6884 271.258 93.6236 273.149C96.1585 274.787 101.495 275.165 125.777 275.165H154.862L158.064 272.014C161.399 268.99 161.399 268.863 161.399 243.657C161.399 220.09 161.533 218.325 164.068 215.93C168.07 212.15 175.141 212.528 178.744 216.813C181.412 220.09 181.412 220.72 181.145 285.626L180.745 351.036L177.543 353.43C173.54 356.581 169.271 356.455 165.002 353.304L161.533 350.658L161.133 324.443C160.866 304.53 160.332 297.725 158.865 296.212C157.264 294.322 153.261 294.07 126.311 294.07C99.6274 294.07 95.2246 294.322 93.0899 296.212C90.9553 298.103 90.6884 300.623 90.6884 323.939C90.6884 349.523 90.6884 349.649 87.353 352.674C83.3505 356.581 77.6136 356.707 73.6111 353.304L70.6759 350.658V284.365C70.6759 210.007 70.2756 213.41 80.1485 213.41C84.0176 213.41 85.752 214.166 87.8867 216.687Z" fill="black"/>
<path fill-rule="evenodd" clip-rule="evenodd" d="M90.6884 245.674C90.6884 221.602 90.555 219.837 87.8867 216.687C85.752 214.166 84.0176 213.41 80.1485 213.41C74.5888 214.593 74.2477 221.271 73.6681 232.618C73.6494 232.985 73.6305 233.356 73.6111 233.732V353.304C77.6136 356.707 83.3505 356.581 87.353 352.674C90.6884 349.649 90.6884 349.523 90.6884 323.939C90.6884 300.623 90.9553 298.103 93.0899 296.212C95.2246 294.322 99.6274 294.07 126.311 294.07C153.261 294.07 157.264 294.322 158.865 296.212C160.332 297.725 160.866 304.53 161.133 324.443L161.533 350.658L165.002 353.304C169.271 356.455 173.54 356.581 177.543 353.43L180.745 351.036L181.145 285.626C181.412 220.72 181.412 220.09 178.744 216.813C175.141 212.528 168.07 212.15 164.068 215.93C161.533 218.325 161.399 220.09 161.399 243.657C161.399 268.863 161.399 268.99 158.064 272.014L154.862 275.165H125.777C101.495 275.165 96.1585 274.787 93.6236 273.149C90.6884 271.258 90.6884 270.628 90.6884 245.674Z" fill="#7CC8B9"/>
<path d="M73.6111 353.304L70.6759 350.658V284.365C70.6759 210.007 70.2756 213.41 80.1485 213.41C74.5888 214.593 74.2477 221.271 73.6681 232.618C73.6494 232.985 73.6305 233.356 73.6111 233.732V353.304Z" fill="white"/>
<rect x="176.111" y="220.972" width="3.00188" height="16.0689" rx="1.50094" fill="white"/>
<rect x="176.111" y="238.931" width="3.00188" height="3.78093" rx="1.50094" fill="white"/>
<rect x="305.192" y="242.712" width="3.00188" height="16.0689" rx="1.50094" fill="white"/>
<rect x="305.192" y="260.671" width="3.00188" height="3.78093" rx="1.50094" fill="white"/>
<rect x="452.284" y="264.452" width="3.00188" height="16.0689" rx="1.50094" fill="white"/>
<rect x="452.284" y="282.412" width="3.00188" height="3.78093" rx="1.50094" fill="white"/>
</svg>
