<svg width="66" height="141" viewBox="0 0 66 141" fill="none" xmlns="http://www.w3.org/2000/svg">
<path d="M32.2188 70.3034C32.2188 70.3034 37.1614 83.6679 33.8393 97.1042C30.5173 110.541 22.3336 124.767 37.8906 140" stroke="white" stroke-miterlimit="10"/>
<path d="M37.6475 73.0337H37.1613L34.3254 66.4233L33.11 64.7707L31.9756 66.4951L29.3828 73.1774H28.8967C28.5725 73.1774 28.3295 73.3929 28.3295 73.6804C28.3295 73.9678 28.5725 74.1833 28.8967 74.1833L37.5664 74.0396C37.8905 74.0396 38.1336 73.824 38.1336 73.5366C38.1336 73.2492 37.8905 73.0337 37.5664 73.0337H37.6475Z" fill="#FEE9E6"/>
<path d="M33.1398 68.471C50.8588 68.2516 64.9864 53.0522 64.6946 34.5221C64.4029 15.992 49.8022 1.14821 32.0832 1.36762C14.3641 1.58703 0.236536 16.7865 0.528317 35.3166C0.820098 53.8467 15.4208 68.6904 33.1398 68.471Z" fill="#FEE9E6"/>
<g opacity="0.2">
<path d="M8.64008 35.1677C8.39701 18.0669 20.3889 3.76828 36.1889 1.54087C34.8925 1.39716 33.5151 1.32532 32.1376 1.32532C14.3929 1.54087 0.294411 16.7736 0.618515 35.2396C0.942619 53.7774 15.5273 68.579 33.272 68.3634C34.6494 68.3634 35.9458 68.2197 37.2423 68.076C21.3612 66.2079 8.88316 52.2685 8.64008 35.1677Z" fill="#EAC9C5"/>
</g>
<path opacity="0.2" d="M48.7479 11.8874C51.9079 15.9111 52.3941 20.4378 49.8012 22.0185C47.2084 23.5993 42.5899 21.5874 39.5109 17.6356C36.3509 13.6118 35.8648 9.08513 38.4576 7.50439C41.0504 5.92364 45.6689 7.9355 48.7479 11.8874Z" fill="white"/>
<path opacity="0.2" d="M56.9316 26.4734C58.3901 28.7008 58.4711 31.1438 57.0937 31.8623C55.6352 32.5808 53.2855 31.4312 51.827 29.2038C50.3685 26.9764 50.2875 24.5334 51.6649 23.8149C53.1234 23.0963 55.4732 24.246 56.9316 26.4734Z" fill="white"/>
</svg>
