<svg width="62" height="127" viewBox="0 0 62 127" fill="none" xmlns="http://www.w3.org/2000/svg">
<path d="M32.5954 56.5187C32.5954 56.5187 38.3482 69.5958 35.8364 83.1759C33.3246 96.756 26.1133 111.342 42.4806 125.784" stroke="white" stroke-miterlimit="10"/>
<path d="M37.9432 64.7818H37.538L34.7021 59.1055L33.5678 57.6684L32.6765 59.2492L30.7319 65.2848H30.3267C30.0837 65.2848 29.8406 65.5722 29.8406 65.7877C29.8406 66.0033 30.0837 66.2188 30.4078 66.2188L38.0242 65.7877C38.2673 65.7877 38.5104 65.5722 38.5104 65.2848C38.5104 64.9974 38.2673 64.8536 37.9432 64.8536V64.7818Z" fill="#F58989"/>
<path d="M33.7066 60.9231C49.3326 59.9784 60.981 45.9574 59.724 29.6064C58.4669 13.2553 44.7805 0.765919 29.1545 1.71058C13.5285 2.65525 1.8801 16.6762 3.13713 33.0273C4.39415 49.3784 18.0806 61.8677 33.7066 60.9231Z" fill="#F58989"/>
<g opacity="0.2">
<path d="M10.3133 32.5919C9.17893 17.5029 18.9831 4.35399 32.8385 1.69546C31.7042 1.62361 30.4888 1.62361 29.2734 1.69546C13.6354 2.62954 1.96762 16.7126 3.26404 33.023C4.56045 49.3335 18.2538 61.8358 33.8919 60.9017C35.1072 60.8298 36.2416 60.6861 37.376 60.4706C23.2775 59.4646 11.5287 47.6809 10.3133 32.5919Z" fill="#E85D5D"/>
</g>
<path opacity="0.2" d="M45.9901 19.0643C48.1794 17.5529 47.5252 13.5608 44.5289 10.1477C41.5326 6.73458 37.3289 5.19288 35.1396 6.70423C32.9503 8.21558 33.6045 12.2077 36.6008 15.6208C39.5971 19.0339 43.8008 20.5756 45.9901 19.0643Z" fill="white"/>
<path opacity="0.2" d="M52.4467 22.8201C53.9051 24.6883 54.0672 26.8439 52.8518 27.5624C51.6364 28.2809 49.4487 27.3468 48.0713 25.4068C46.6128 23.5387 46.4507 21.3831 47.6661 20.6646C48.8815 19.946 51.0692 20.8801 52.4467 22.8201Z" fill="white"/>
</svg>
