<svg width="58" height="133" viewBox="0 0 58 133" fill="none" xmlns="http://www.w3.org/2000/svg">
<path d="M28.4626 69.5475C28.4626 69.5475 31.4097 81.8299 27.9198 93.721C24.3522 105.612 16.907 117.894 28.1524 132.524" stroke="white" stroke-miterlimit="10"/>
<path d="M32.8831 73.4592H32.4953L30.0911 66.6531L29.0829 64.932L28.0747 66.6531L25.6705 73.4592H25.2828C24.9725 73.4592 24.7399 73.6939 24.7399 74.0068C24.7399 74.3197 24.9725 74.5544 25.2828 74.5544H33.1158C33.426 74.5544 33.6587 74.3197 33.6587 74.0068C33.6587 73.6939 33.426 73.4592 33.1158 73.4592H32.8831Z" fill="#FCCBAC"/>
<path d="M29.0055 68.6871C44.982 68.6871 57.9334 53.311 57.9334 34.3436C57.9334 15.3761 44.982 0 29.0055 0C13.0291 0 0.0776367 15.3761 0.0776367 34.3436C0.0776367 53.311 13.0291 68.6871 29.0055 68.6871Z" fill="#FCCBAC"/>
<g opacity="0.2">
<path d="M7.29016 34.3436C7.29016 16.8197 18.3029 2.34695 32.573 0.234708C31.4097 0.0782456 30.1688 0 28.9279 0C12.9516 0 0 15.4116 0 34.3436C0 53.2755 12.9516 68.6871 28.9279 68.6871C44.9042 68.6871 31.3321 68.6088 32.573 68.4524C18.3029 66.3401 7.29016 51.8674 7.29016 34.3436Z" fill="#EFA278"/>
</g>
<path opacity="0.2" d="M43.7408 11.0307C46.5328 15.177 46.843 19.7927 44.5163 21.4355C42.1897 23.0001 38.0793 20.9661 35.2873 16.7416C32.4953 12.5172 32.1851 7.97973 34.5118 6.33687C36.8384 4.77224 40.9488 6.80626 43.7408 11.0307Z" fill="white"/>
<path opacity="0.2" d="M50.9534 26.051C52.2718 28.3197 52.2718 30.8231 50.9534 31.6054C49.635 32.3877 47.541 31.136 46.2226 28.7891C44.9042 26.5204 44.9042 24.017 46.2226 23.2347C47.541 22.4523 49.635 23.7041 50.9534 26.051Z" fill="white"/>
</svg>
