<svg width="49" height="115" viewBox="0 0 49 115" fill="none" xmlns="http://www.w3.org/2000/svg">
<path d="M25.6277 51.5509C25.6277 51.5509 30.2034 63.3638 28.187 75.5679C26.2481 87.772 20.4315 100.993 33.4607 113.979" stroke="white" stroke-miterlimit="10"/>
<path d="M29.9707 58.9825H29.6605L27.4114 53.8192L26.4808 52.5675L25.7828 53.9757L24.2317 59.3736H23.9215C23.6888 59.3736 23.5337 59.6083 23.5337 59.843C23.5337 60.0777 23.7664 60.2342 23.999 60.2342L30.0483 59.843C30.281 59.843 30.4361 59.6083 30.4361 59.3736C30.4361 59.1389 30.2034 58.9825 29.9707 58.9825Z" fill="#F58989"/>
<path d="M26.5612 55.7492C38.9538 54.897 48.1923 42.2552 47.196 27.513C46.1997 12.7708 35.3458 1.51068 22.9532 2.36289C10.5606 3.21511 1.32209 15.8569 2.31842 30.5991C3.31475 45.3413 14.1686 56.6014 26.5612 55.7492Z" fill="#F58989"/>
<g opacity="0.2">
<path d="M8.02256 29.9587C7.09191 16.3464 14.9249 4.5335 25.8601 2.10833C24.9295 2.10833 23.9988 2.0301 23.0682 2.10833C10.6594 2.96888 1.43041 15.6424 2.43862 30.3498C3.44683 45.1356 14.3045 56.3226 26.7133 55.4621C27.6439 55.4621 28.5746 55.2274 29.5052 55.0709C18.3373 54.2104 8.95322 43.5709 8.02256 29.9587Z" fill="#E85D5D"/>
</g>
<path opacity="0.2" d="M35.0893 9.85319C37.4935 12.9042 37.9588 16.5029 36.2526 17.8328C34.5464 19.1627 31.2116 17.8328 28.8074 14.7035C26.4032 11.6525 25.9378 8.05387 27.644 6.72394C29.3502 5.394 32.6851 6.72394 35.0893 9.85319Z" fill="white"/>
<path opacity="0.2" d="M41.4488 21.1966C42.6122 22.9177 42.7672 24.7952 41.759 25.4993C40.8284 26.1252 39.1222 25.2646 37.9589 23.5435C36.7956 21.8224 36.6404 19.9449 37.6486 19.2408C38.5793 18.615 40.2855 19.4755 41.4488 21.1966Z" fill="white"/>
</svg>
