<svg width="43" height="103" viewBox="0 0 43 103" fill="none" xmlns="http://www.w3.org/2000/svg">
<path d="M21.4506 50.9148C21.4506 50.9148 24.6303 60.6937 22.5364 70.5509C20.4424 80.408 15.1686 90.891 25.1732 102" stroke="white" stroke-miterlimit="10"/>
<path d="M24.9405 52.8709H24.6303L22.8465 48.0206L22.0709 46.7689L21.373 48.0206L19.6668 52.9491H19.3565C19.1239 52.9491 18.9688 53.1056 18.9688 53.3403C18.9688 53.575 19.1239 53.7314 19.3565 53.7314H24.9405C25.1731 53.6532 25.3282 53.4967 25.3282 53.262C25.3282 53.0274 25.1731 52.8709 24.9405 52.8709Z" fill="#FEE9E6"/>
<path d="M22.0345 49.6636C33.4696 49.5025 42.5869 38.34 42.3985 24.7315C42.2101 11.1229 32.7874 0.22158 21.3523 0.382647C9.91721 0.543715 0.799929 11.7062 0.988309 25.3147C1.17669 38.9233 10.5994 49.8246 22.0345 49.6636Z" fill="#FEE9E6"/>
<g opacity="0.2">
<path d="M6.25005 25.0988C6.09494 12.5035 13.8504 2.0988 24.0101 0.377709C23.1569 0.299478 22.3039 0.221237 21.4508 0.221237C10.0502 0.3777 0.898751 11.5648 1.13142 25.177C1.28652 38.7893 10.7482 49.6634 22.1488 49.507C23.0019 49.507 23.855 49.4287 24.7081 49.2723C14.4708 47.9423 6.40516 37.694 6.25005 25.0988Z" fill="#EAC9C5"/>
</g>
<path opacity="0.2" d="M32.0757 7.96589C34.0922 10.9387 34.4024 14.2244 32.7737 15.3979C31.1451 16.5713 28.1204 15.0849 26.104 12.1904C24.0876 9.21758 23.7774 5.93187 25.406 4.7584C27.0347 3.58493 30.0593 5.07133 32.0757 7.96589Z" fill="white"/>
<path opacity="0.2" d="M37.427 18.6835C38.3576 20.3264 38.4352 22.1257 37.5045 22.6733C36.5739 23.221 35.1003 22.3604 34.0921 20.7176C33.1614 19.0747 33.0839 17.2754 34.0146 16.7278C34.9452 16.1801 36.4188 17.0407 37.427 18.6835Z" fill="white"/>
</svg>
