<svg width="219" height="204" viewBox="0 0 219 204" fill="none" xmlns="http://www.w3.org/2000/svg">
<path d="M6.44434 146.4V182.5C6.54434 194.4 52.5443 204 109.344 204C166.144 204 212.144 194.4 212.244 182.5V146.4H6.44434Z" fill="#FAD082"/>
<path d="M109.244 200.2C52.5443 200.2 6.44424 190.6 6.34424 178.7V182.5C6.44424 194.4 52.4443 204 109.244 204C166.044 204 212.044 194.4 212.144 182.5V178.7C212.044 190.6 166.044 200.2 109.244 200.2Z" fill="#FAD082"/>
<path d="M6.44434 118.3V154.4C6.54434 166.3 52.5443 175.9 109.344 175.9C166.144 175.9 212.144 166.3 212.244 154.4V118.3H6.44434Z" fill="#F9DE83"/>
<path d="M6.44434 102.6V130.5C6.54434 142.4 52.5443 152 109.344 152C166.144 152 212.144 142.4 212.244 130.5V102.6H6.44434Z" fill="#F9DE83"/>
<path d="M217.544 155.7C215.944 152.9 215.144 149.8 215.144 146.6C215.144 146.6 215.544 122.5 215.144 108.8C214.844 100.8 212.944 92.2 200.344 87.2C181.944 80.2 148.044 75.5 109.344 75.5C70.6442 75.5 33.9442 80.6 16.1442 88.1C5.04421 93.1 3.64421 101.6 3.64421 105C3.64421 117 3.64421 144.1 3.64421 144.1C3.64421 148.3 2.64422 152.4 0.744219 156.2C-0.255781 158.2 -0.0557812 160 0.244219 161.2C1.84422 167.6 6.74422 167.9 6.74422 167.9V130.6C6.74422 127.1 8.74421 123.7 12.0442 122.7C13.0442 122.4 14.2442 122.3 15.3442 122.6C20.0442 123.9 24.8442 126.8 25.4442 132.5C26.0442 138.1 23.6442 146.9 25.4442 152.1C26.8442 155.9 32.2442 154.1 32.9442 152.5C34.8442 148.4 32.0442 140.9 33.5442 134.3C35.1442 127.7 43.5442 128.4 44.8442 133C45.5442 135.8 45.6442 145.4 45.6442 152.6C45.6442 157.1 44.1442 159 42.8442 164.3C41.3442 170.4 45.0442 173.5 47.3442 173.7C49.9442 173.9 53.3442 170.5 52.5442 165.8C51.7442 161.4 50.9442 157.1 50.9442 152.6C50.9442 147.4 51.2442 141.2 52.4442 137.7C54.6442 131.1 61.8442 131.1 64.9442 133.6C68.0442 136.1 68.2442 147.8 77.1442 146.9C86.0442 146 81.2442 134.5 92.1442 136.1C102.144 137.5 100.744 155.3 108.744 156.8C116.744 158.2 113.744 134.1 126.544 135.2C133.744 135.8 133.944 161.2 132.844 165.1C131.744 169 130.644 176.4 136.544 175.9C141.344 175.5 140.144 169.1 139.544 165.6C138.944 161.7 139.844 147.3 140.944 142.7C142.044 138.1 148.644 138.3 150.044 143C151.444 147.7 154.344 188 154.244 190.4C153.944 196.8 164.344 195.8 161.944 190.2C159.644 184.6 159.144 181.5 159.144 178.6C159.144 171.6 161.444 156.8 162.144 143.6C162.444 136.9 168.944 130.9 173.944 134.1C179.844 137.9 178.544 159.6 178.544 159.6C178.544 159.6 174.944 173.7 180.144 175C187.744 176.8 186.044 165.7 184.644 160.6C183.244 155.4 183.844 136.7 186.044 135.7C195.144 131.5 191.244 153.1 200.144 150.2C204.944 148.7 205.044 139.5 207.044 132.7C208.644 127.4 211.944 130.5 211.944 132.1L212.244 166.1C212.244 166.1 216.444 166.1 218.144 161.3C218.544 160.2 218.644 157.6 217.544 155.7Z" fill="#F8AE17"/>
<path d="M6.44434 119.5V169.3C7.54434 169.8 8.34433 169.9 8.34433 169.9V132.6C8.34433 129.1 10.3443 125.7 13.6443 124.7C14.6443 124.4 15.8443 124.3 16.9443 124.6C21.6443 125.9 26.4443 128.8 27.0443 134.5C27.6443 140.1 25.1443 148.9 27.0443 154.1C28.4443 157.9 33.8443 156.1 34.5443 154.5C36.4443 150.4 33.6443 142.9 35.1443 136.3C36.7443 129.7 45.1443 130.4 46.4443 135C47.2443 137.8 47.2444 147.4 47.2444 154.6C47.2444 159.1 45.7443 161 44.4443 166.3C42.9443 172.4 46.6443 175.5 48.9443 175.7C51.5443 175.9 54.9443 172.5 54.1443 167.8C53.3443 163.4 52.5443 159.1 52.5443 154.6C52.5443 149.4 52.8443 143.2 54.0443 139.7C56.2443 133.1 63.4443 133.1 66.5443 135.6C69.6443 138.1 69.8444 149.8 78.7444 148.9C87.6444 148 82.8444 136.5 93.7444 138.1C103.744 139.5 102.344 157.3 110.344 158.8C118.344 160.2 115.344 136.1 128.144 137.2C135.344 137.8 135.544 163.2 134.444 167.1C133.344 171 132.244 178.4 138.144 177.9C142.944 177.5 141.744 171.1 141.144 167.6C140.544 163.7 141.444 149.3 142.544 144.7C143.644 140.1 150.244 140.3 151.644 145C153.044 149.7 155.944 190 155.844 192.4C155.544 198.8 165.944 197.8 163.544 192.2C161.244 186.6 160.744 183.5 160.744 180.6C160.744 173.6 163.044 158.8 163.744 145.6C164.044 138.9 170.544 132.9 175.544 136.1C181.444 139.9 180.144 161.6 180.144 161.6C180.144 161.6 176.544 175.7 181.744 177C189.344 178.8 187.644 167.7 186.244 162.6C184.844 157.4 185.444 138.7 187.644 137.7C196.744 133.5 192.844 155.1 201.744 152.3C206.544 150.8 206.644 141.6 208.644 134.8C209.544 131.6 211.144 131.5 212.244 132.2V102.8H6.44434V119.7V119.5Z" fill="#F8AE17"/>
<path d="M66.6444 158.5C66.6444 156.7 65.1444 155.2 63.3444 155.2C61.5444 155.2 60.0444 156.7 60.0444 158.5C60.0444 160.3 61.5444 161.8 63.3444 161.8C65.1444 161.8 66.6444 160.3 66.6444 158.5Z" fill="#F9DE83"/>
<path d="M86.3441 167C86.3441 165.4 85.0441 164.2 83.5441 164.2C82.0441 164.2 80.7441 165.5 80.7441 167C80.7441 168.5 82.0441 169.8 83.5441 169.8C85.0441 169.8 86.3441 168.5 86.3441 167Z" fill="#F9DE83"/>
<path d="M115.044 167.5C117.64 167.5 119.744 165.396 119.744 162.8C119.744 160.204 117.64 158.1 115.044 158.1C112.449 158.1 110.344 160.204 110.344 162.8C110.344 165.396 112.449 167.5 115.044 167.5Z" fill="#F9DE83"/>
<path d="M32.8441 162.8C32.8441 161.5 31.7441 160.5 30.5441 160.5C29.3441 160.5 28.2441 161.6 28.2441 162.8C28.2441 164 29.3441 165.1 30.5441 165.1C31.7441 165.1 32.8441 164 32.8441 162.8Z" fill="#F9DE83"/>
<path d="M58.7444 189.5C58.7444 188.5 57.9443 187.6 56.8443 187.6C55.7443 187.6 54.9443 188.4 54.9443 189.5C54.9443 190.6 55.7443 191.4 56.8443 191.4C57.9443 191.4 58.7444 190.6 58.7444 189.5Z" fill="#FAD082"/>
<path d="M80.244 186.7C80.244 185.1 78.944 183.9 77.444 183.9C75.944 183.9 74.644 185.2 74.644 186.7C74.644 188.2 75.944 189.5 77.444 189.5C78.944 189.5 80.244 188.2 80.244 186.7Z" fill="#FAD082"/>
<path d="M106.144 197.5C106.144 195.9 104.844 194.7 103.344 194.7C101.844 194.7 100.544 196 100.544 197.5C100.544 199 101.844 200.3 103.344 200.3C104.844 200.3 106.144 199 106.144 197.5Z" fill="#FAD082"/>
<path d="M19.7444 183.4C19.7444 182.4 18.9443 181.5 17.8443 181.5C16.7443 181.5 15.9443 182.3 15.9443 183.4C15.9443 184.5 16.7443 185.3 17.8443 185.3C18.9443 185.3 19.7444 184.5 19.7444 183.4Z" fill="#FAD082"/>
<path d="M145.544 187.6C145.544 186.3 144.444 185.3 143.244 185.3C142.044 185.3 140.944 186.4 140.944 187.6C140.944 188.8 142.044 189.9 143.244 189.9C144.444 189.9 145.544 188.8 145.544 187.6Z" fill="#FAD082"/>
<path d="M199.544 178.3C199.544 176.7 198.244 175.5 196.744 175.5C195.244 175.5 193.944 176.8 193.944 178.3C193.944 179.8 195.244 181.1 196.744 181.1C198.244 181.1 199.544 179.8 199.544 178.3Z" fill="#FAD082"/>
<path d="M189.844 189.5C189.844 188.3 188.944 187.4 187.744 187.4C186.544 187.4 185.644 188.3 185.644 189.5C185.644 190.7 186.544 191.6 187.744 191.6C188.944 191.6 189.844 190.7 189.844 189.5Z" fill="#FAD082"/>
<path d="M179.344 186.7C179.344 184.9 177.844 183.4 176.044 183.4C174.244 183.4 172.744 184.9 172.744 186.7C172.744 188.5 174.244 190 176.044 190C177.844 190 179.344 188.5 179.344 186.7Z" fill="#FAD082"/>
<path d="M217.544 155.7C215.944 152.9 215.144 149.8 215.144 146.6C215.144 146.6 215.544 122.5 215.144 108.8C214.844 100.8 212.944 92.2 200.344 87.2C181.944 80.2 148.044 75.5 109.344 75.5C70.6442 75.5 33.9442 80.6 16.1442 88.1C5.04421 93.1 3.64421 101.6 3.64421 105C3.64421 117 3.64421 144.1 3.64421 144.1C3.64421 148.3 2.64422 152.4 0.744219 156.2C-0.255781 158.2 -0.0557812 160 0.244219 161.2C1.84422 167.6 6.74422 167.9 6.74422 167.9V130.6C6.74422 127.1 8.74421 123.7 12.0442 122.7C13.0442 122.4 23.2442 120.1 25.4442 132.4C26.4442 138 23.6442 146.8 25.4442 152C26.8442 155.8 32.2442 154 32.9442 152.4C34.8442 148.3 32.0442 140.8 33.5442 134.2C35.1442 127.6 43.5442 128.3 44.8442 132.9C45.5442 135.7 45.6442 145.3 45.6442 152.5C45.6442 157 44.1442 158.9 42.8442 164.2C41.3442 170.3 45.0442 173.4 47.3442 173.6C49.9442 173.8 53.3442 170.4 52.5442 165.7C51.7442 161.3 50.9442 157 50.9442 152.5C50.9442 147.3 51.2442 141.1 52.4442 137.6C54.6442 131 61.8442 131 64.9442 133.5C68.0442 136 68.2442 147.7 77.1442 146.8C86.0442 145.9 81.2442 134.4 92.1442 136C102.144 137.4 100.744 155.2 108.744 156.7C116.744 158.1 113.744 134 126.544 135.1C133.744 135.7 133.944 161.1 132.844 165C131.744 168.9 130.644 176.3 136.544 175.8C141.344 175.4 140.144 169 139.544 165.5C138.944 161.6 139.844 147.2 140.944 142.6C142.044 138 148.644 138.2 150.044 142.9C151.444 147.6 154.344 187.9 154.244 190.3C153.944 196.7 164.344 195.7 161.944 190.1C159.644 184.5 159.144 181.4 159.144 178.5C159.144 171.5 161.444 156.7 162.144 143.5C162.444 136.8 168.944 130.8 173.944 134C179.844 137.8 178.544 159.5 178.544 159.5C178.544 159.5 174.944 173.6 180.144 174.9C187.744 176.7 186.044 165.6 184.644 160.5C183.244 155.3 183.844 136.6 186.044 135.6C195.144 131.4 191.244 153 200.144 150.1C204.944 148.6 205.044 139.4 207.044 132.6C208.644 127.3 211.944 130.4 211.944 132L212.244 166C212.244 166 216.444 166 218.144 161.2C218.544 160.1 218.644 157.5 217.544 155.6V155.7Z" fill="#F8AE17"/>
<path d="M207.444 98.1C207.444 110.4 163.444 120.3 109.244 120.3C55.0444 120.3 11.0444 110.4 11.0444 98.1C11.0444 85.8 55.0444 75.9 109.244 75.9C163.444 75.9 207.444 85.8 207.444 98.1Z" fill="#F8AE17"/>
<path d="M104.944 120.7C61.3443 120.6 24.9443 115 13.7443 105.2C12.3443 104 10.3443 102.1 9.54433 99.4C8.54433 96.2 8.14432 94.9 6.94432 97.9C6.54432 98.9 6.74432 101.1 6.94432 101.8C8.94432 116.1 50.2443 123.3 103.844 122C109.544 121.5 112.344 120.6 105.044 120.6L104.944 120.7Z" fill="#F9DE83"/>
<path d="M2.84412 157.6C2.74412 156.7 1.64413 157.2 1.54413 157.8C1.04413 159.6 1.24413 161.1 2.44413 162.7C3.04413 163.5 5.24413 163.7 4.44413 161.6C3.94413 160.4 3.14413 159 2.94413 157.6H2.84412Z" fill="#F9DE83"/>
<path d="M29.2441 130.1C28.5441 126.9 27.2441 124.2 24.7441 122.1C19.2441 117.5 13.3441 118.2 7.74412 122.3C7.04412 122.8 7.74411 123.4 8.64411 122.9C16.3441 118 24.8441 122.1 26.7441 130.3C27.8441 135.1 24.6441 146.8 27.7441 151C28.6441 152.2 31.0441 150.8 29.6441 147.6C27.5441 142.8 30.2441 135.2 29.1441 130.1H29.2441Z" fill="#F9DE83"/>
<path d="M46.8441 163.7C46.8441 162.8 46.0441 162.3 45.4441 163.1C44.1441 164.9 43.1441 169.5 46.1441 170.2C46.7441 170.4 47.4441 169.6 47.5441 169C47.6441 167.2 47.0441 165.2 46.8441 163.6V163.7Z" fill="#F9DE83"/>
<path d="M78.6445 140.4C72.8445 138.9 72.9445 132.4 68.0445 129.7C65.1445 128 62.1445 128 58.7445 129.7C58.0445 130.1 58.1445 130.8 58.9445 130.5C61.8445 129.4 65.1445 130.2 67.2445 132.2C69.0445 133.9 69.8445 136.9 71.0445 138.9C72.6445 141.4 75.1445 143.8 78.2445 142.8C79.2445 142.5 79.9445 140.7 78.5445 140.4H78.6445Z" fill="#F9DE83"/>
<path d="M38.7443 126.6C38.2443 126.8 38.4443 127.9 39.0443 127.8C40.9443 127.6 42.9443 127.8 44.4443 129.3C45.7443 130.6 46.3443 132.3 46.9443 134C47.3443 134.9 48.6443 134.4 48.7443 133.6C49.1443 128.7 44.2443 124.2 38.7443 126.7V126.6Z" fill="#F9DE83"/>
<path d="M109.144 151.3C107.944 150.6 104.944 143.7 104.344 142.4C103.544 140.6 102.644 138.6 101.444 136.9C99.4444 134 96.8444 132.8 93.4444 133.3C92.7444 133.4 92.9444 133.9 93.8444 133.9C101.844 134.4 102.444 150.4 107.344 153.3C109.944 154.8 110.644 152.1 109.044 151.2L109.144 151.3Z" fill="#F9DE83"/>
<path d="M127.744 132.8C126.944 132.6 126.244 133.1 127.144 133.4C130.344 134.7 132.444 137.8 133.144 141.1C133.444 142.4 135.144 142.3 135.044 141.1C134.744 136.8 131.844 133.9 127.744 132.8Z" fill="#F9DE83"/>
<path d="M136.544 167.9C136.144 166.7 135.044 166.6 134.444 167.6C133.644 168.8 133.044 170.1 133.544 171.6C133.944 172.8 135.144 173.8 136.444 173.2C137.644 172.6 136.944 168.8 136.644 167.9H136.544Z" fill="#F9DE83"/>
<path d="M32.7441 66.6001V93.5001C32.7441 102.3 67.0441 109.5 109.344 109.5C151.644 109.5 185.844 102.3 185.944 93.5001V66.6001H32.7441Z" fill="#FAD082"/>
<path d="M32.7441 41.3999V68.2999C32.7441 77.0999 67.0441 84.2999 109.344 84.2999C151.644 84.2999 185.844 77.0999 185.944 68.2999V41.3999H32.7441Z" fill="#F9DE83"/>
<path d="M32.7441 19.5V44.3C32.7441 53.1 67.0441 60.3 109.344 60.3C151.644 60.3 185.844 53.1 185.944 44.3V19.5H32.7441Z" fill="#F9DE83"/>
<path d="M32.7445 19.5002V66.5002H33.7445V48.7002C33.7445 47.7002 33.9445 46.8002 34.1445 45.8002C35.2445 42.2002 40.2445 41.5002 42.4445 44.6002C44.0445 46.8002 44.4445 47.9002 45.0445 51.4002C45.8445 55.9002 46.1445 61.1002 45.9445 62.4002C45.6445 64.6002 43.0445 70.4002 47.0445 71.3002C50.5445 72.1002 50.1445 66.5002 49.5445 63.3002C48.9445 60.2002 51.6445 50.6002 55.1445 50.5002C62.0445 50.4002 60.6445 62.5002 63.7445 63.2002C66.8445 63.9002 69.3445 51.8002 74.5445 52.0002C79.7445 52.2002 79.5445 57.6002 86.1445 58.1002C90.7445 58.4002 92.6445 48.6002 99.6445 54.0002C104.445 57.8002 108.045 72.6002 107.145 76.7002C106.245 80.8002 104.045 88.0002 108.745 88.1002C113.445 88.3002 112.945 83.3002 111.845 77.6002C110.745 72.0002 112.145 64.6002 119.845 64.1002C129.445 63.5002 130.345 84.4002 129.345 89.4002C128.445 94.4002 130.645 98.5002 134.045 96.0002C137.445 93.5002 134.245 90.9002 134.045 88.5002C133.745 85.4002 132.745 56.3002 139.945 56.6002C147.145 56.9002 145.145 65.0002 152.645 64.1002C157.545 63.5002 160.345 41.9002 166.245 46.3002C172.145 50.7002 173.045 72.5002 172.145 74.8002C171.645 76.1002 169.445 84.0002 174.145 84.0002C178.845 84.0002 177.245 78.5002 176.145 74.5002C175.045 70.6002 177.445 43.8002 181.145 41.3002C183.745 39.6002 185.045 41.4002 185.845 43.5002V19.2002H32.6445L32.7445 19.5002Z" fill="#F8AE17"/>
<path d="M94.3443 72.5999C94.3443 70.2999 92.4443 68.3999 90.1443 68.3999C87.8443 68.3999 85.9443 70.2999 85.9443 72.5999C85.9443 74.8999 87.8443 76.7999 90.1443 76.7999C92.4443 76.7999 94.3443 74.8999 94.3443 72.5999Z" fill="#F9DE83"/>
<path d="M66.2444 67.5001C66.2444 66.5001 65.4443 65.6001 64.3443 65.6001C63.2443 65.6001 62.4443 66.4001 62.4443 67.5001C62.4443 68.6001 63.2443 69.4001 64.3443 69.4001C65.4443 69.4001 66.2444 68.6001 66.2444 67.5001Z" fill="#F9DE83"/>
<path d="M74.6443 76.4C74.6443 75.4 73.8443 74.5 72.7443 74.5C71.6443 74.5 70.8442 75.3 70.8442 76.4C70.8442 77.5 71.6443 78.3 72.7443 78.3C73.8443 78.3 74.6443 77.5 74.6443 76.4Z" fill="#F9DE83"/>
<path d="M155.344 70.8C155.344 69.2 154.044 68 152.544 68C151.044 68 149.744 69.3 149.744 70.8C149.744 72.3 151.044 73.6 152.544 73.6C154.044 73.6 155.344 72.3 155.344 70.8Z" fill="#F9DE83"/>
<path d="M149.245 91.0002C149.245 89.7002 148.145 88.7002 146.945 88.7002C145.745 88.7002 144.645 89.8002 144.645 91.0002C144.645 92.2002 145.745 93.3002 146.945 93.3002C148.145 93.3002 149.245 92.2002 149.245 91.0002Z" fill="#FAD082"/>
<path d="M170.844 96.0998C170.844 94.7998 169.744 93.7998 168.544 93.7998C167.344 93.7998 166.244 94.8998 166.244 96.0998C166.244 97.2998 167.344 98.3998 168.544 98.3998C169.744 98.3998 170.844 97.2998 170.844 96.0998Z" fill="#FAD082"/>
<path d="M158.644 98.5001C158.644 97.7001 158.044 97.1001 157.244 97.1001C156.444 97.1001 155.844 97.7001 155.844 98.5001C155.844 99.3001 156.444 99.9001 157.244 99.9001C158.044 99.9001 158.644 99.3001 158.644 98.5001Z" fill="#FAD082"/>
<path d="M50.7445 89.0998C50.7445 87.7998 49.6445 86.7998 48.4445 86.7998C47.2445 86.7998 46.1445 87.8998 46.1445 89.0998C46.1445 90.2998 47.2445 91.3998 48.4445 91.3998C49.6445 91.3998 50.7445 90.2998 50.7445 89.0998Z" fill="#FAD082"/>
<path d="M61.0441 97.5001C61.0441 96.7001 60.4441 96.1001 59.6441 96.1001C58.8441 96.1001 58.2441 96.7001 58.2441 97.5001C58.2441 98.3001 58.8441 98.9001 59.6441 98.9001C60.4441 98.9001 61.0441 98.3001 61.0441 97.5001Z" fill="#FAD082"/>
<path d="M84.0443 97.5002C84.0443 96.2002 82.9444 95.2002 81.7444 95.2002C80.5444 95.2002 79.4443 96.3002 79.4443 97.5002C79.4443 98.7002 80.5444 99.8002 81.7444 99.8002C82.9444 99.8002 84.0443 98.7002 84.0443 97.5002Z" fill="#FAD082"/>
<path d="M192.944 67.6001C192.844 67.0001 192.344 66.0001 191.744 64.9001C190.144 61.8001 189.344 58.5001 189.344 55.0001L189.144 30.9001C189.144 30.9001 189.144 26.8001 189.144 25.4001C189.044 21.6001 189.744 16.2001 184.244 12.4001C173.044 5.50009 143.844 0.600098 109.444 0.600098C75.0441 0.600098 44.8441 5.7001 34.1441 12.7001C29.8441 15.8001 29.7442 21.6001 29.7442 24.8001C29.7442 26.7001 29.7442 30.9001 29.7442 30.9001V50.5001C29.7442 53.2001 28.9442 55.8001 27.7442 58.1001C27.2442 59.2001 26.8441 60.2001 26.9441 60.9001C28.5441 68.5001 32.8441 65.9001 32.8441 65.9001V46.4001C32.8441 45.4001 33.0442 44.4001 33.2442 43.5001C34.3442 39.9001 39.3441 39.2001 41.5441 42.3001C43.1441 44.5001 43.5441 45.6001 44.1441 49.1001C44.9441 53.6001 45.2441 58.8001 45.0441 60.1001C44.7441 62.3001 42.1441 68.1001 46.1441 69.0001C49.6441 69.8001 49.2441 64.1001 48.6441 61.0001C48.0441 57.9001 50.7442 48.3001 54.2442 48.2001C61.1442 48.1001 59.7441 60.2001 62.8441 60.9001C65.9441 61.6001 68.4441 49.5001 73.6441 49.7001C78.8442 49.9001 78.6442 55.3001 85.2442 55.8001C89.8442 56.1001 91.7442 46.3001 98.7442 51.7001C103.544 55.5001 107.144 70.3001 106.244 74.4001C105.344 78.5001 103.144 85.7001 107.844 85.8001C112.544 86.0001 112.044 81.0001 110.944 75.3001C109.844 69.7001 111.244 62.3001 118.944 61.8001C128.544 61.2001 129.444 82.1001 128.444 87.1001C127.544 92.1001 129.744 96.2001 133.144 93.7001C136.544 91.2001 133.344 88.6001 133.144 86.2001C132.844 83.1001 131.844 54.0001 139.044 54.3001C146.244 54.6001 144.244 62.7001 151.744 61.8001C156.644 61.2001 159.444 39.6001 165.344 44.0001C171.244 48.4001 172.144 70.2001 171.244 72.5001C170.744 73.8001 168.544 81.7001 173.244 81.7001C177.944 81.7001 176.344 76.2001 175.244 72.2001C174.144 68.3001 176.544 41.5001 180.244 39.0001C185.244 35.7001 185.744 45.6001 185.744 45.6001V69.1001C185.744 69.1001 187.044 74.8001 190.544 72.9001C192.144 72.1001 193.644 70.0001 192.944 67.3001V67.6001Z" fill="#F8AE17"/>
<path d="M110.144 34.1001C75.544 34.0001 45.844 28.7001 37.944 21.3001C36.844 20.3001 35.644 18.9001 35.444 17.2001C35.044 14.6001 33.244 14.0001 32.044 16.7001C31.744 17.3001 31.644 18.6001 31.644 19.2001C32.044 30.7001 66.844 36.2001 109.344 35.2001C113.844 34.8001 116.044 34.1001 110.244 34.1001H110.144Z" fill="#F9DE83"/>
<path d="M46.8443 64.2001C46.8443 63.5001 45.9443 63.5 45.5443 63.8C44.4443 64.5 44.2443 66 45.2443 66.9C45.9443 67.5 47.1443 66.9 47.0443 66C47.0443 65.4 46.9443 64.8001 46.8443 64.2001Z" fill="#F9DE83"/>
<path d="M29.8443 59.2001C29.8443 58.5001 28.9443 58.5 28.5443 58.8C27.4443 59.5 27.2443 61 28.2443 61.9C28.9443 62.5 30.1443 61.9 30.0443 61C30.0443 60.4 29.8443 59.8001 29.8443 59.2001Z" fill="#F9DE83"/>
<path d="M42.9443 38.4C39.9443 36.5 35.3443 36.4001 33.2443 39.6001C32.7443 40.3001 33.4443 40.3 34.0443 39.9C37.1443 37.6 41.1443 39 43.2443 41.8C45.0443 44.2 46.1443 47.7 46.0443 51.9C46.0443 53 47.1443 50.1001 47.1443 48.1001C47.1443 44.3001 46.5443 40.7 42.9443 38.4Z" fill="#F9DE83"/>
<path d="M61.2443 48.9001C60.3443 47.5001 58.5443 45.7001 55.8443 45.7001C53.1443 45.7001 54.9443 46.3001 55.5443 46.5001C58.2443 47.5001 59.0443 48.6 60.1443 50.8C61.1443 53 61.3443 55.0001 62.2443 57.7001C62.6443 58.8001 63.9443 58.2001 63.9443 56.6001C63.9443 53.8001 62.9443 51.2001 61.3443 48.9001H61.2443Z" fill="#F9DE83"/>
<path d="M84.2443 52.8001C81.6443 52.6001 79.6443 49.1001 78.1443 48.2001C76.7443 47.4001 74.7443 47.2001 73.2443 47.6001C72.4443 47.8001 72.7443 48.3001 73.6443 48.2001C75.0443 48.0001 77.0443 49.7001 77.8443 50.5001C78.7443 51.4001 81.4443 54.6001 83.6443 54.7001C86.4443 54.8001 86.1443 52.9001 84.2443 52.8001Z" fill="#F9DE83"/>
<path d="M97.744 48.6001C96.844 48.5001 96.244 48.9001 97.344 49.3001C103.144 51.1001 105.544 57.6001 106.544 63.0001C106.744 64.3001 107.044 63.1001 107.044 62.0001C107.044 55.6001 104.444 49.6001 97.744 48.6001Z" fill="#F9DE83"/>
<path d="M108.844 79.1001C108.844 78.4001 107.944 78.5001 107.644 78.9001C106.844 80.1001 106.344 81.5001 107.144 82.7001C107.844 83.8001 109.444 83.1001 109.344 81.9001C109.344 80.9001 108.844 80.0001 108.844 79.1001Z" fill="#F9DE83"/>
<path d="M131.844 90.0001C131.644 89.5001 131.344 89.2001 130.944 88.8001C130.544 88.4001 129.744 88.5001 129.444 89.1001C128.944 90.0001 128.944 90.6001 129.344 91.7001C130.044 93.5001 132.744 92.5001 131.844 90.0001Z" fill="#F9DE83"/>
<path d="M181.545 17.0002C181.545 26.0002 149.245 33.3002 109.345 33.3002C69.4445 33.3002 37.1445 26.0002 37.1445 17.0002C37.1445 8.00018 69.4445 0.700195 109.345 0.700195C149.245 0.700195 181.545 8.00018 181.545 17.0002Z" fill="#F9DE83"/>
<path d="M98.244 80.6C98.244 80.6 98.1439 80.6 98.0439 80.5C98.0439 80.5 98.144 80.5 98.244 80.6Z" fill="#F8AE17"/>
</svg>
