<svg width="231" height="216" viewBox="0 0 231 216" fill="none" xmlns="http://www.w3.org/2000/svg">
<g filter="url(#filter0_d_567_2196)">
<path d="M12.4443 152.4V188.5C12.5443 200.4 58.5443 210 115.344 210C172.144 210 218.144 200.4 218.244 188.5V152.4H12.4443Z" fill="#EE9BB4"/>
<path d="M115.244 206.2C58.5443 206.2 12.4442 196.6 12.3442 184.7V188.5C12.4442 200.4 58.4443 210 115.244 210C172.044 210 218.044 200.4 218.144 188.5V184.7C218.044 196.6 172.044 206.2 115.244 206.2Z" fill="#EE9BB4"/>
<path d="M12.4443 124.3V160.4C12.5443 172.3 58.5443 181.9 115.344 181.9C172.144 181.9 218.144 172.3 218.244 160.4V124.3H12.4443Z" fill="#F5B5D7"/>
<path d="M12.4443 108.6V136.5C12.5443 148.4 58.5443 158 115.344 158C172.144 158 218.144 148.4 218.244 136.5V108.6H12.4443Z" fill="#F5B5D7"/>
<path d="M223.544 161.7C221.944 158.9 221.144 155.8 221.144 152.6C221.144 152.6 221.544 128.5 221.144 114.8C220.844 106.8 218.944 98.2 206.344 93.2C187.944 86.2 154.044 81.5 115.344 81.5C76.6442 81.5 39.9442 86.6 22.1442 94.1C11.0442 99.1 9.64421 107.6 9.64421 111C9.64421 123 9.64421 150.1 9.64421 150.1C9.64421 154.3 8.64422 158.4 6.74422 162.2C5.74422 164.2 5.94422 166 6.24422 167.2C7.84422 173.6 12.7442 173.9 12.7442 173.9V136.6C12.7442 133.1 14.7442 129.7 18.0442 128.7C19.0442 128.4 20.2442 128.3 21.3442 128.6C26.0442 129.9 30.8442 132.8 31.4442 138.5C32.0442 144.1 29.6442 152.9 31.4442 158.1C32.8442 161.9 38.2442 160.1 38.9442 158.5C40.8442 154.4 38.0442 146.9 39.5442 140.3C41.1442 133.7 49.5442 134.4 50.8442 139C51.5442 141.8 51.6442 151.4 51.6442 158.6C51.6442 163.1 50.1442 165 48.8442 170.3C47.3442 176.4 51.0442 179.5 53.3442 179.7C55.9442 179.9 59.3442 176.5 58.5442 171.8C57.7442 167.4 56.9442 163.1 56.9442 158.6C56.9442 153.4 57.2442 147.2 58.4442 143.7C60.6442 137.1 67.8442 137.1 70.9442 139.6C74.0442 142.1 74.2442 153.8 83.1442 152.9C92.0442 152 87.2442 140.5 98.1442 142.1C108.144 143.5 106.744 161.3 114.744 162.8C122.744 164.2 119.744 140.1 132.544 141.2C139.744 141.8 139.944 167.2 138.844 171.1C137.744 175 136.644 182.4 142.544 181.9C147.344 181.5 146.144 175.1 145.544 171.6C144.944 167.7 145.844 153.3 146.944 148.7C148.044 144.1 154.644 144.3 156.044 149C157.444 153.7 160.344 194 160.244 196.4C159.944 202.8 170.344 201.8 167.944 196.2C165.644 190.6 165.144 187.5 165.144 184.6C165.144 177.6 167.444 162.8 168.144 149.6C168.444 142.9 174.944 136.9 179.944 140.1C185.844 143.9 184.544 165.6 184.544 165.6C184.544 165.6 180.944 179.7 186.144 181C193.744 182.8 192.044 171.7 190.644 166.6C189.244 161.4 189.844 142.7 192.044 141.7C201.144 137.5 197.244 159.1 206.144 156.2C210.944 154.7 211.044 145.5 213.044 138.7C214.644 133.4 217.944 136.5 217.944 138.1L218.244 172.1C218.244 172.1 222.444 172.1 224.144 167.3C224.544 166.2 224.644 163.6 223.544 161.7Z" fill="#FCFDEB"/>
<path d="M12.4443 125.5V175.3C13.5443 175.8 14.3443 175.9 14.3443 175.9V138.6C14.3443 135.1 16.3443 131.7 19.6443 130.7C20.6443 130.4 21.8443 130.3 22.9443 130.6C27.6443 131.9 32.4443 134.8 33.0443 140.5C33.6443 146.1 31.1443 154.9 33.0443 160.1C34.4443 163.9 39.8443 162.1 40.5443 160.5C42.4443 156.4 39.6443 148.9 41.1443 142.3C42.7443 135.7 51.1443 136.4 52.4443 141C53.2443 143.8 53.2444 153.4 53.2444 160.6C53.2444 165.1 51.7443 167 50.4443 172.3C48.9443 178.4 52.6443 181.5 54.9443 181.7C57.5443 181.9 60.9443 178.5 60.1443 173.8C59.3443 169.4 58.5443 165.1 58.5443 160.6C58.5443 155.4 58.8443 149.2 60.0443 145.7C62.2443 139.1 69.4443 139.1 72.5443 141.6C75.6443 144.1 75.8444 155.8 84.7444 154.9C93.6444 154 88.8444 142.5 99.7444 144.1C109.744 145.5 108.344 163.3 116.344 164.8C124.344 166.2 121.344 142.1 134.144 143.2C141.344 143.8 141.544 169.2 140.444 173.1C139.344 177 138.244 184.4 144.144 183.9C148.944 183.5 147.744 177.1 147.144 173.6C146.544 169.7 147.444 155.3 148.544 150.7C149.644 146.1 156.244 146.3 157.644 151C159.044 155.7 161.944 196 161.844 198.4C161.544 204.8 171.944 203.8 169.544 198.2C167.244 192.6 166.744 189.5 166.744 186.6C166.744 179.6 169.044 164.8 169.744 151.6C170.044 144.9 176.544 138.9 181.544 142.1C187.444 145.9 186.144 167.6 186.144 167.6C186.144 167.6 182.544 181.7 187.744 183C195.344 184.8 193.644 173.7 192.244 168.6C190.844 163.4 191.444 144.7 193.644 143.7C202.744 139.5 198.844 161.1 207.744 158.3C212.544 156.8 212.644 147.6 214.644 140.8C215.544 137.6 217.144 137.5 218.244 138.2V108.8H12.4443V125.7V125.5Z" fill="#FCFDEB"/>
<path d="M72.6444 164.5C72.6444 162.7 71.1444 161.2 69.3444 161.2C67.5444 161.2 66.0444 162.7 66.0444 164.5C66.0444 166.3 67.5444 167.8 69.3444 167.8C71.1444 167.8 72.6444 166.3 72.6444 164.5Z" fill="#F5B5D7"/>
<path d="M92.3441 173C92.3441 171.4 91.0441 170.2 89.5441 170.2C88.0441 170.2 86.7441 171.5 86.7441 173C86.7441 174.5 88.0441 175.8 89.5441 175.8C91.0441 175.8 92.3441 174.5 92.3441 173Z" fill="#F5B5D7"/>
<path d="M121.044 173.5C123.64 173.5 125.744 171.396 125.744 168.8C125.744 166.204 123.64 164.1 121.044 164.1C118.449 164.1 116.344 166.204 116.344 168.8C116.344 171.396 118.449 173.5 121.044 173.5Z" fill="#F5B5D7"/>
<path d="M38.8441 168.8C38.8441 167.5 37.7441 166.5 36.5441 166.5C35.3441 166.5 34.2441 167.6 34.2441 168.8C34.2441 170 35.3441 171.1 36.5441 171.1C37.7441 171.1 38.8441 170 38.8441 168.8Z" fill="#F5B5D7"/>
<path d="M64.7444 195.5C64.7444 194.5 63.9443 193.6 62.8443 193.6C61.7443 193.6 60.9443 194.4 60.9443 195.5C60.9443 196.6 61.7443 197.4 62.8443 197.4C63.9443 197.4 64.7444 196.6 64.7444 195.5Z" fill="#EE9BB4"/>
<path d="M86.244 192.7C86.244 191.1 84.944 189.9 83.444 189.9C81.944 189.9 80.644 191.2 80.644 192.7C80.644 194.2 81.944 195.5 83.444 195.5C84.944 195.5 86.244 194.2 86.244 192.7Z" fill="#EE9BB4"/>
<path d="M112.144 203.5C112.144 201.9 110.844 200.7 109.344 200.7C107.844 200.7 106.544 202 106.544 203.5C106.544 205 107.844 206.3 109.344 206.3C110.844 206.3 112.144 205 112.144 203.5Z" fill="#EE9BB4"/>
<path d="M25.7444 189.4C25.7444 188.4 24.9443 187.5 23.8443 187.5C22.7443 187.5 21.9443 188.3 21.9443 189.4C21.9443 190.5 22.7443 191.3 23.8443 191.3C24.9443 191.3 25.7444 190.5 25.7444 189.4Z" fill="#EE9BB4"/>
<path d="M151.544 193.6C151.544 192.3 150.444 191.3 149.244 191.3C148.044 191.3 146.944 192.4 146.944 193.6C146.944 194.8 148.044 195.9 149.244 195.9C150.444 195.9 151.544 194.8 151.544 193.6Z" fill="#EE9BB4"/>
<path d="M205.544 184.3C205.544 182.7 204.244 181.5 202.744 181.5C201.244 181.5 199.944 182.8 199.944 184.3C199.944 185.8 201.244 187.1 202.744 187.1C204.244 187.1 205.544 185.8 205.544 184.3Z" fill="#EE9BB4"/>
<path d="M195.844 195.5C195.844 194.3 194.944 193.4 193.744 193.4C192.544 193.4 191.644 194.3 191.644 195.5C191.644 196.7 192.544 197.6 193.744 197.6C194.944 197.6 195.844 196.7 195.844 195.5Z" fill="#EE9BB4"/>
<path d="M185.344 192.7C185.344 190.9 183.844 189.4 182.044 189.4C180.244 189.4 178.744 190.9 178.744 192.7C178.744 194.5 180.244 196 182.044 196C183.844 196 185.344 194.5 185.344 192.7Z" fill="#EE9BB4"/>
<path d="M223.544 161.7C221.944 158.9 221.144 155.8 221.144 152.6C221.144 152.6 221.544 128.5 221.144 114.8C220.844 106.8 218.944 98.2 206.344 93.2C187.944 86.2 154.044 81.5 115.344 81.5C76.6442 81.5 39.9442 86.6 22.1442 94.1C11.0442 99.1 9.64421 107.6 9.64421 111C9.64421 123 9.64421 150.1 9.64421 150.1C9.64421 154.3 8.64422 158.4 6.74422 162.2C5.74422 164.2 5.94422 166 6.24422 167.2C7.84422 173.6 12.7442 173.9 12.7442 173.9V136.6C12.7442 133.1 14.7442 129.7 18.0442 128.7C19.0442 128.4 29.2442 126.1 31.4442 138.4C32.4442 144 29.6442 152.8 31.4442 158C32.8442 161.8 38.2442 160 38.9442 158.4C40.8442 154.3 38.0442 146.8 39.5442 140.2C41.1442 133.6 49.5442 134.3 50.8442 138.9C51.5442 141.7 51.6442 151.3 51.6442 158.5C51.6442 163 50.1442 164.9 48.8442 170.2C47.3442 176.3 51.0442 179.4 53.3442 179.6C55.9442 179.8 59.3442 176.4 58.5442 171.7C57.7442 167.3 56.9442 163 56.9442 158.5C56.9442 153.3 57.2442 147.1 58.4442 143.6C60.6442 137 67.8442 137 70.9442 139.5C74.0442 142 74.2442 153.7 83.1442 152.8C92.0442 151.9 87.2442 140.4 98.1442 142C108.144 143.4 106.744 161.2 114.744 162.7C122.744 164.1 119.744 140 132.544 141.1C139.744 141.7 139.944 167.1 138.844 171C137.744 174.9 136.644 182.3 142.544 181.8C147.344 181.4 146.144 175 145.544 171.5C144.944 167.6 145.844 153.2 146.944 148.6C148.044 144 154.644 144.2 156.044 148.9C157.444 153.6 160.344 193.9 160.244 196.3C159.944 202.7 170.344 201.7 167.944 196.1C165.644 190.5 165.144 187.4 165.144 184.5C165.144 177.5 167.444 162.7 168.144 149.5C168.444 142.8 174.944 136.8 179.944 140C185.844 143.8 184.544 165.5 184.544 165.5C184.544 165.5 180.944 179.6 186.144 180.9C193.744 182.7 192.044 171.6 190.644 166.5C189.244 161.3 189.844 142.6 192.044 141.6C201.144 137.4 197.244 159 206.144 156.1C210.944 154.6 211.044 145.4 213.044 138.6C214.644 133.3 217.944 136.4 217.944 138L218.244 172C218.244 172 222.444 172 224.144 167.2C224.544 166.1 224.644 163.5 223.544 161.6V161.7Z" fill="#FCFDEB"/>
<path d="M213.444 104.1C213.444 116.4 169.444 126.3 115.244 126.3C61.0444 126.3 17.0444 116.4 17.0444 104.1C17.0444 91.8 61.0444 81.9 115.244 81.9C169.444 81.9 213.444 91.8 213.444 104.1Z" fill="#F5B5D7"/>
<path d="M110.944 126.7C67.3443 126.6 30.9443 121 19.7443 111.2C18.3443 110 16.3443 108.1 15.5443 105.4C14.5443 102.2 14.1443 100.9 12.9443 103.9C12.5443 104.9 12.7443 107.1 12.9443 107.8C14.9443 122.1 56.2443 129.3 109.844 128C115.544 127.5 118.344 126.6 111.044 126.6L110.944 126.7Z" fill="#F5B5D7"/>
<path d="M8.84412 163.6C8.74412 162.7 7.64413 163.2 7.54413 163.8C7.04413 165.6 7.24413 167.1 8.44413 168.7C9.04413 169.5 11.2441 169.7 10.4441 167.6C9.94413 166.4 9.14413 165 8.94413 163.6H8.84412Z" fill="#F5B5D7"/>
<path d="M35.2441 136.1C34.5441 132.9 33.2441 130.2 30.7441 128.1C25.2441 123.5 19.3441 124.2 13.7441 128.3C13.0441 128.8 13.7441 129.4 14.6441 128.9C22.3441 124 30.8441 128.1 32.7441 136.3C33.8441 141.1 30.6441 152.8 33.7441 157C34.6441 158.2 37.0441 156.8 35.6441 153.6C33.5441 148.8 36.2441 141.2 35.1441 136.1H35.2441Z" fill="#F5B5D7"/>
<path d="M52.8441 169.7C52.8441 168.8 52.0441 168.3 51.4441 169.1C50.1441 170.9 49.1441 175.5 52.1441 176.2C52.7441 176.4 53.4441 175.6 53.5441 175C53.6441 173.2 53.0441 171.2 52.8441 169.6V169.7Z" fill="#F5B5D7"/>
<path d="M84.6445 146.4C78.8445 144.9 78.9445 138.4 74.0445 135.7C71.1445 134 68.1445 134 64.7445 135.7C64.0445 136.1 64.1445 136.8 64.9445 136.5C67.8445 135.4 71.1445 136.2 73.2445 138.2C75.0445 139.9 75.8445 142.9 77.0445 144.9C78.6445 147.4 81.1445 149.8 84.2445 148.8C85.2445 148.5 85.9445 146.7 84.5445 146.4H84.6445Z" fill="#F5B5D7"/>
<path d="M44.7443 132.6C44.2443 132.8 44.4443 133.9 45.0443 133.8C46.9443 133.6 48.9443 133.8 50.4443 135.3C51.7443 136.6 52.3443 138.3 52.9443 140C53.3443 140.9 54.6443 140.4 54.7443 139.6C55.1443 134.7 50.2443 130.2 44.7443 132.7V132.6Z" fill="#F5B5D7"/>
<path d="M115.144 157.3C113.944 156.6 110.944 149.7 110.344 148.4C109.544 146.6 108.644 144.6 107.444 142.9C105.444 140 102.844 138.8 99.4444 139.3C98.7444 139.4 98.9444 139.9 99.8444 139.9C107.844 140.4 108.444 156.4 113.344 159.3C115.944 160.8 116.644 158.1 115.044 157.2L115.144 157.3Z" fill="#F5B5D7"/>
<path d="M133.744 138.8C132.944 138.6 132.244 139.1 133.144 139.4C136.344 140.7 138.444 143.8 139.144 147.1C139.444 148.4 141.144 148.3 141.044 147.1C140.744 142.8 137.844 139.9 133.744 138.8Z" fill="#F5B5D7"/>
<path d="M142.544 173.9C142.144 172.7 141.044 172.6 140.444 173.6C139.644 174.8 139.044 176.1 139.544 177.6C139.944 178.8 141.144 179.8 142.444 179.2C143.644 178.6 142.944 174.8 142.644 173.9H142.544Z" fill="#F5B5D7"/>
<path d="M38.7441 72.6001V99.5001C38.7441 108.3 73.0441 115.5 115.344 115.5C157.644 115.5 191.844 108.3 191.944 99.5001V72.6001H38.7441Z" fill="#EE9BB4"/>
<path d="M38.7441 47.3999V74.2999C38.7441 83.0999 73.0441 90.2999 115.344 90.2999C157.644 90.2999 191.844 83.0999 191.944 74.2999V47.3999H38.7441Z" fill="#F5B5D7"/>
<path d="M38.7441 25.5V50.3C38.7441 59.1 73.0441 66.3 115.344 66.3C157.644 66.3 191.844 59.1 191.944 50.3V25.5H38.7441Z" fill="#F5B5D7"/>
<path d="M38.7445 25.5002V72.5002H39.7445V54.7002C39.7445 53.7002 39.9445 52.8002 40.1445 51.8002C41.2445 48.2002 46.2445 47.5002 48.4445 50.6002C50.0445 52.8002 50.4445 53.9002 51.0445 57.4002C51.8445 61.9002 52.1445 67.1002 51.9445 68.4002C51.6445 70.6002 49.0445 76.4002 53.0445 77.3002C56.5445 78.1002 56.1445 72.5002 55.5445 69.3002C54.9445 66.2002 57.6445 56.6002 61.1445 56.5002C68.0445 56.4002 66.6445 68.5002 69.7445 69.2002C72.8445 69.9002 75.3445 57.8002 80.5445 58.0002C85.7445 58.2002 85.5445 63.6002 92.1445 64.1002C96.7445 64.4002 98.6445 54.6002 105.645 60.0002C110.445 63.8002 114.045 78.6002 113.145 82.7002C112.245 86.8002 110.045 94.0002 114.745 94.1002C119.445 94.3002 118.945 89.3002 117.845 83.6002C116.745 78.0002 118.145 70.6002 125.845 70.1002C135.445 69.5002 136.345 90.4002 135.345 95.4002C134.445 100.4 136.645 104.5 140.045 102C143.445 99.5002 140.245 96.9002 140.045 94.5002C139.745 91.4002 138.745 62.3002 145.945 62.6002C153.145 62.9002 151.145 71.0002 158.645 70.1002C163.545 69.5002 166.345 47.9002 172.245 52.3002C178.145 56.7002 179.045 78.5002 178.145 80.8002C177.645 82.1002 175.445 90.0002 180.145 90.0002C184.845 90.0002 183.245 84.5002 182.145 80.5002C181.045 76.6002 183.445 49.8002 187.145 47.3002C189.745 45.6002 191.045 47.4002 191.845 49.5002V25.2002H38.6445L38.7445 25.5002Z" fill="#FCFDEB"/>
<path d="M100.344 78.5999C100.344 76.2999 98.4443 74.3999 96.1443 74.3999C93.8443 74.3999 91.9443 76.2999 91.9443 78.5999C91.9443 80.8999 93.8443 82.7999 96.1443 82.7999C98.4443 82.7999 100.344 80.8999 100.344 78.5999Z" fill="#F5B5D7"/>
<path d="M72.2444 73.5001C72.2444 72.5001 71.4443 71.6001 70.3443 71.6001C69.2443 71.6001 68.4443 72.4001 68.4443 73.5001C68.4443 74.6001 69.2443 75.4001 70.3443 75.4001C71.4443 75.4001 72.2444 74.6001 72.2444 73.5001Z" fill="#F5B5D7"/>
<path d="M80.6443 82.4C80.6443 81.4 79.8443 80.5 78.7443 80.5C77.6443 80.5 76.8442 81.3 76.8442 82.4C76.8442 83.5 77.6443 84.3 78.7443 84.3C79.8443 84.3 80.6443 83.5 80.6443 82.4Z" fill="#F5B5D7"/>
<path d="M161.344 76.8C161.344 75.2 160.044 74 158.544 74C157.044 74 155.744 75.3 155.744 76.8C155.744 78.3 157.044 79.6 158.544 79.6C160.044 79.6 161.344 78.3 161.344 76.8Z" fill="#F5B5D7"/>
<path d="M155.245 97.0002C155.245 95.7002 154.145 94.7002 152.945 94.7002C151.745 94.7002 150.645 95.8002 150.645 97.0002C150.645 98.2002 151.745 99.3002 152.945 99.3002C154.145 99.3002 155.245 98.2002 155.245 97.0002Z" fill="#EE9BB4"/>
<path d="M176.844 102.1C176.844 100.8 175.744 99.7998 174.544 99.7998C173.344 99.7998 172.244 100.9 172.244 102.1C172.244 103.3 173.344 104.4 174.544 104.4C175.744 104.4 176.844 103.3 176.844 102.1Z" fill="#EE9BB4"/>
<path d="M164.644 104.5C164.644 103.7 164.044 103.1 163.244 103.1C162.444 103.1 161.844 103.7 161.844 104.5C161.844 105.3 162.444 105.9 163.244 105.9C164.044 105.9 164.644 105.3 164.644 104.5Z" fill="#EE9BB4"/>
<path d="M56.7445 95.0998C56.7445 93.7998 55.6445 92.7998 54.4445 92.7998C53.2445 92.7998 52.1445 93.8998 52.1445 95.0998C52.1445 96.2998 53.2445 97.3998 54.4445 97.3998C55.6445 97.3998 56.7445 96.2998 56.7445 95.0998Z" fill="#EE9BB4"/>
<path d="M67.0441 103.5C67.0441 102.7 66.4441 102.1 65.6441 102.1C64.8441 102.1 64.2441 102.7 64.2441 103.5C64.2441 104.3 64.8441 104.9 65.6441 104.9C66.4441 104.9 67.0441 104.3 67.0441 103.5Z" fill="#EE9BB4"/>
<path d="M90.0443 103.5C90.0443 102.2 88.9444 101.2 87.7444 101.2C86.5444 101.2 85.4443 102.3 85.4443 103.5C85.4443 104.7 86.5444 105.8 87.7444 105.8C88.9444 105.8 90.0443 104.7 90.0443 103.5Z" fill="#EE9BB4"/>
<path d="M198.944 73.6001C198.844 73.0001 198.344 72.0001 197.744 70.9001C196.144 67.8001 195.344 64.5001 195.344 61.0001L195.144 36.9001C195.144 36.9001 195.144 32.8001 195.144 31.4001C195.044 27.6001 195.744 22.2001 190.244 18.4001C179.044 11.5001 149.844 6.6001 115.444 6.6001C81.0441 6.6001 50.8441 11.7001 40.1441 18.7001C35.8441 21.8001 35.7442 27.6001 35.7442 30.8001C35.7442 32.7001 35.7442 36.9001 35.7442 36.9001V56.5001C35.7442 59.2001 34.9442 61.8001 33.7442 64.1001C33.2442 65.2001 32.8441 66.2001 32.9441 66.9001C34.5441 74.5001 38.8441 71.9001 38.8441 71.9001V52.4001C38.8441 51.4001 39.0442 50.4001 39.2442 49.5001C40.3442 45.9001 45.3441 45.2001 47.5441 48.3001C49.1441 50.5001 49.5441 51.6001 50.1441 55.1001C50.9441 59.6001 51.2441 64.8001 51.0441 66.1001C50.7441 68.3001 48.1441 74.1001 52.1441 75.0001C55.6441 75.8001 55.2441 70.1001 54.6441 67.0001C54.0441 63.9001 56.7442 54.3001 60.2442 54.2001C67.1442 54.1001 65.7441 66.2001 68.8441 66.9001C71.9441 67.6001 74.4441 55.5001 79.6441 55.7001C84.8442 55.9001 84.6442 61.3001 91.2442 61.8001C95.8442 62.1001 97.7442 52.3001 104.744 57.7001C109.544 61.5001 113.144 76.3001 112.244 80.4001C111.344 84.5001 109.144 91.7001 113.844 91.8001C118.544 92.0001 118.044 87.0001 116.944 81.3001C115.844 75.7001 117.244 68.3001 124.944 67.8001C134.544 67.2001 135.444 88.1001 134.444 93.1001C133.544 98.1001 135.744 102.2 139.144 99.7001C142.544 97.2001 139.344 94.6001 139.144 92.2001C138.844 89.1001 137.844 60.0001 145.044 60.3001C152.244 60.6001 150.244 68.7001 157.744 67.8001C162.644 67.2001 165.444 45.6001 171.344 50.0001C177.244 54.4001 178.144 76.2001 177.244 78.5001C176.744 79.8001 174.544 87.7001 179.244 87.7001C183.944 87.7001 182.344 82.2001 181.244 78.2001C180.144 74.3001 182.544 47.5001 186.244 45.0001C191.244 41.7001 191.744 51.6001 191.744 51.6001V75.1001C191.744 75.1001 193.044 80.8001 196.544 78.9001C198.144 78.1001 199.644 76.0001 198.944 73.3001V73.6001Z" fill="#FCFDEB"/>
<path d="M116.144 40.1001C81.544 40.0001 51.844 34.7001 43.944 27.3001C42.844 26.3001 41.644 24.9001 41.444 23.2001C41.044 20.6001 39.244 20.0001 38.044 22.7001C37.744 23.3001 37.644 24.6001 37.644 25.2001C38.044 36.7001 72.844 42.2001 115.344 41.2001C119.844 40.8001 122.044 40.1001 116.244 40.1001H116.144Z" fill="#F5B5D7"/>
<path d="M52.8443 70.2001C52.8443 69.5001 51.9443 69.5 51.5443 69.8C50.4443 70.5 50.2443 72 51.2443 72.9C51.9443 73.5 53.1443 72.9 53.0443 72C53.0443 71.4 52.9443 70.8001 52.8443 70.2001Z" fill="#F5B5D7"/>
<path d="M35.8443 65.2001C35.8443 64.5001 34.9443 64.5 34.5443 64.8C33.4443 65.5 33.2443 67 34.2443 67.9C34.9443 68.5 36.1443 67.9 36.0443 67C36.0443 66.4 35.8443 65.8001 35.8443 65.2001Z" fill="#F5B5D7"/>
<path d="M48.9443 44.4C45.9443 42.5 41.3443 42.4001 39.2443 45.6001C38.7443 46.3001 39.4443 46.3 40.0443 45.9C43.1443 43.6 47.1443 45 49.2443 47.8C51.0443 50.2 52.1443 53.7 52.0443 57.9C52.0443 59 53.1443 56.1001 53.1443 54.1001C53.1443 50.3001 52.5443 46.7 48.9443 44.4Z" fill="#F5B5D7"/>
<path d="M67.2443 54.9001C66.3443 53.5001 64.5443 51.7001 61.8443 51.7001C59.1443 51.7001 60.9443 52.3001 61.5443 52.5001C64.2443 53.5001 65.0443 54.6 66.1443 56.8C67.1443 59 67.3443 61.0001 68.2443 63.7001C68.6443 64.8001 69.9443 64.2001 69.9443 62.6001C69.9443 59.8001 68.9443 57.2001 67.3443 54.9001H67.2443Z" fill="#F5B5D7"/>
<path d="M90.2443 58.8001C87.6443 58.6001 85.6443 55.1001 84.1443 54.2001C82.7443 53.4001 80.7443 53.2001 79.2443 53.6001C78.4443 53.8001 78.7443 54.3001 79.6443 54.2001C81.0443 54.0001 83.0443 55.7001 83.8443 56.5001C84.7443 57.4001 87.4443 60.6001 89.6443 60.7001C92.4443 60.8001 92.1443 58.9001 90.2443 58.8001Z" fill="#F5B5D7"/>
<path d="M103.744 54.6001C102.844 54.5001 102.244 54.9001 103.344 55.3001C109.144 57.1001 111.544 63.6001 112.544 69.0001C112.744 70.3001 113.044 69.1001 113.044 68.0001C113.044 61.6001 110.444 55.6001 103.744 54.6001Z" fill="#F5B5D7"/>
<path d="M114.844 85.1001C114.844 84.4001 113.944 84.5001 113.644 84.9001C112.844 86.1001 112.344 87.5001 113.144 88.7001C113.844 89.8001 115.444 89.1001 115.344 87.9001C115.344 86.9001 114.844 86.0001 114.844 85.1001Z" fill="#F5B5D7"/>
<path d="M137.844 96.0001C137.644 95.5001 137.344 95.2001 136.944 94.8001C136.544 94.4001 135.744 94.5001 135.444 95.1001C134.944 96.0001 134.944 96.6001 135.344 97.7001C136.044 99.5001 138.744 98.5001 137.844 96.0001Z" fill="#F5B5D7"/>
<path d="M187.545 23.0002C187.545 32.0002 155.245 39.3002 115.345 39.3002C75.4445 39.3002 43.1445 32.0002 43.1445 23.0002C43.1445 14.0002 75.4445 6.7002 115.345 6.7002C155.245 6.7002 187.545 14.0002 187.545 23.0002Z" fill="#F5B5D7"/>
<path d="M12.8445 102.4C12.8445 102.4 14.2445 106.9 18.0445 108.5C21.8445 110.1 23.9445 109 25.3445 110.1C26.7445 111.3 32.1445 113.4 32.1445 113.4C35.7445 113 32.6445 115.7 39.4445 118.3C42.3445 119.4 48.6445 118.5 51.4445 119.2C54.2445 119.9 61.3445 118 63.1445 118.3C65.0445 118.5 67.1445 123.2 72.3445 124.9C77.5445 126.5 82.6445 122.6 87.1445 122.8C90.6445 123 95.1445 122.6 98.8445 123C102.645 123.5 106.145 126.9 111.045 126.7C115.945 126.5 129.745 127.4 132.345 126C134.945 124.6 135.445 121.8 138.645 122.7C141.945 123.6 149.245 124.8 152.445 124.6C155.745 124.4 160.445 121.1 162.545 121.8C164.645 122.5 178.745 122.7 182.445 120.9C186.245 119 187.345 112 190.145 112.7C192.945 113.4 203.745 112.7 205.845 110.6C207.945 108.5 211.445 108.5 213.545 105.4C215.645 102.3 212.945 100.2 212.945 100.2L159.745 109.2L106.745 114.6L69.9445 111.3L27.9445 103.6L12.6445 102.4H12.8445Z" fill="#FCFDEB"/>
<path d="M104.244 86.6C104.244 86.6 104.144 86.6 104.044 86.5C104.044 86.5 104.144 86.5 104.244 86.6Z" fill="#FCFDEB"/>
</g>
<defs>
<filter id="filter0_d_567_2196" x="0" y="0.600098" width="230.423" height="215.4" filterUnits="userSpaceOnUse" color-interpolation-filters="sRGB">
<feFlood flood-opacity="0" result="BackgroundImageFix"/>
<feColorMatrix in="SourceAlpha" type="matrix" values="0 0 0 0 0 0 0 0 0 0 0 0 0 0 0 0 0 0 127 0" result="hardAlpha"/>
<feOffset/>
<feGaussianBlur stdDeviation="3"/>
<feComposite in2="hardAlpha" operator="out"/>
<feColorMatrix type="matrix" values="0 0 0 0 0 0 0 0 0 0 0 0 0 0 0 0 0 0 0.7 0"/>
<feBlend mode="normal" in2="BackgroundImageFix" result="effect1_dropShadow_567_2196"/>
<feBlend mode="normal" in="SourceGraphic" in2="effect1_dropShadow_567_2196" result="shape"/>
</filter>
</defs>
</svg>
